<svg fill="none" height="168" viewBox="0 0 168 168" width="168" xmlns="http://www.w3.org/2000/svg"><path d="m81.0359 162.056c-16.0262.002-31.6929-4.749-45.019-13.652-13.326-8.902-23.7128-21.557-29.84676-36.362-6.1340075-14.8062-7.73973-31.0985-4.6141-46.8169 3.12562-15.7184 10.84216-30.157 22.17386-41.4898 11.3317-11.3327 25.7695-19.05066 41.4877-22.17777 15.7181-3.12711 32.0105-1.5229292 46.8174 4.60967 14.806 6.1326 27.461 16.5182 36.365 29.8434 8.904 13.3251 13.656 28.9914 13.656 45.0176-.024 21.4808-8.568 42.0758-23.756 57.2658-15.189 15.19-35.783 23.736-57.2641 23.762z" fill="#478540" transform="translate(2.9635 2.9718)"/><path d="m84 5.95131c15.4363.00151 30.525 4.58029 43.359 13.15729s22.837 20.7671 28.743 35.0288c5.906 14.2616 7.451 29.9544 4.438 45.0938-3.012 15.1398-10.446 29.0458-21.362 39.9598-10.915 10.915-24.822 18.348-39.9619 21.359-15.1398 3.01-30.8324 1.464-45.0934-4.443-14.2611-5.908-26.4502-15.911-35.026-28.746-8.5757-12.835-13.15301-27.9248-13.15301-43.361-.00101-10.2504 2.01735-20.4007 5.93981-29.8709 3.9224-9.4703 9.6721-18.075 16.9206-25.3228s15.8538-12.9966 25.3244-16.9181c9.4707-3.92155 19.6211-5.9389 29.8715-5.93689zm0-5.95131c-16.6136 0-32.8541 4.92651-46.6679 14.1565-13.8137 9.2301-24.5802 22.3491-30.93794 37.6981-6.3577638 15.349-8.02124 32.2386-4.78009 48.5334 3.24116 16.294 11.24143 31.261 22.98903 43.009s26.7149 19.748 43.0093 22.989 33.1836 1.578 48.5326-4.78 28.468-17.124 37.698-30.938 14.157-30.054 14.157-46.668c-.026-22.2701-8.885-43.6205-24.632-59.3679-15.747-15.74731-37.098-24.6057484-59.368-24.6321z" fill="#fff"/><path d="m21.7293 17.6471c-1.9072-1.2868-4.5267-1.4629-8.05-.5208-.8665.235-1.6046.8039-2.0525 1.582s-.5692 1.702-.3372 2.5693c.2439.8597.8128 1.5906 1.5862 2.0381s1.6907.5763 2.5575.3593c.4519-.1225.8348-.2068 1.1565-.2604.8119-.1379 1.1107.1685 1.2179.4672.1024.5232.0666 1.064-.104 1.5691s-.4701.9569-.8688 1.3108c-1.5318 1.2102-4.5343 1.3864-6.4108.4213-3.46204-1.7923-3.82969-6.8092-3.53098-10.7231.76594-9.68139 5.59898-9.68139 7.19208-9.68139h.6128c.6662.04015 1.2994.30399 1.7971.74881.4976.44482.8306 1.04459.9449 1.70219.1186.79939.5185 1.53019 1.1279 2.06099.6094.5307 1.3882.8266 2.1963.8342.1772.0006.3541-.0147.5285-.0459.44-.0613.8632-.2101 1.2447-.4377.3816-.2276.7136-.5293.9765-.8874.2681-.3582.4623-.76608.5715-1.19999.1091-.4339.1309-.88517.0642-1.32758-.3573-2.23046-1.4756-4.26848-3.165-5.76799-1.6894-1.499509-3.8457-2.3680571-6.1028-2.45813813h-.5361c-8.42532 0-13.465163 5.66024813-14.2464159 15.93909813-.8655051 11.3282 4.1283859 15.6633 7.1844559 17.2412 1.79794.916 3.78796 1.3912 5.80576 1.3863 2.6765.0471 5.2908-.8081 7.4219-2.428 1.4132-1.2463 2.4982-2.821 3.1594-4.5855.6611-1.7644.8782-3.6644.632-5.5325-.0775-.8743-.3486-1.7204-.7938-2.4768-.4451-.7565-1.0531-1.4044-1.7797-1.8967z" fill="#2d6631" transform="translate(92.8845 96.8447)"/><path d="m23.6597 19.6937c-.0843-1.2178-.1685-2.4433-.2298-3.6765v-.2451c-.2374-4.4118-.5821-11.08305-5.4075-14.16977-2.3621-1.47516-5.2116-1.956944-7.9274-1.340375-1.27591.287314-2.48144.827015-3.54561 1.587315-1.06416.76031-1.96545 1.72586-2.65078 2.83979-2.21416 3.91268-3.427096 8.31184-3.530959 12.80644-.168506 4.4117-.36765123 9.4133-.36765123 13.7868.04141833.871.41658323 1.6926 1.04765023 2.2944.63108.6018 1.46961.9375 2.34161.9375s1.71053-.3357 2.3416-.9375 1.00624-1.4234 1.04765-2.2944c0-1.7846.00001-3.8297.1149-6.4339 1.83824.0537 3.82969.0843 6.12749.0843 1.4093 0 2.811 0 4.2126.0536.1149 2.2365.1379 4.0135.0919 5.6832-.0332.8922.2882 1.7612.8939 2.4171.6057.656 1.4464 1.0454 2.3384 1.0832h.2604c.8621-.0232 1.6825-.376 2.2923-.9858s.9627-1.4302.9859-2.2923c.0629-3.5785-.0624-7.1578-.3753-10.7231zm-6.8934-1.4706c-1.2485 0-2.497 0-3.7531-.0459-2.2978 0-4.17432 0-5.90533-.0766v-.4596c.06822-3.2937.93563-6.5215 2.52758-9.40568.21153-.34859.49285-.64966.82635-.88429.3335-.23462.7119-.39773 1.1115-.47907.943-.21068 1.9309-.04877 2.7573.4519 1.8766 1.20252 2.1293 5.95894 2.2978 8.80054v.2605c.0511.6127.0996 1.2255.1456 1.8382z" fill="#2d6631" transform="translate(64.5839 96.958)"/><path d="m23.1928.24893h-1.3174c-2.7574 0-5.4764-.000002-8.2415-.091914l-1.9301-.038299c-2.71908-.0612746-5.43048-.11488528-8.14955-.11488528-.45863-.02180902-.91693.04969138-1.34713.21017728-.43019.160486-.82334.406618-1.15563.723486-.332297.316865-.596822.697885-.777561 1.119965-.1807378.42209-.27392772.87648-.27392772 1.33563 0 .45916.09318992.91353.27392772 1.33562.180739.42209.445264.80311.777561 1.11997.33229.31687.72544.563 1.15563.72349.4302.16049.8885.23198 1.34713.21017 2.06037 0 4.12839.0383 6.18875.08425 0 3.34711 0 7.03891.0383 10.72311v1.4782 12.4924c0 .8999.3575 1.763.9938 2.3993s1.4994.9938 2.3993.9938 1.7629-.3575 2.3993-.9938c.6363-.6363.9938-1.4994.9938-2.3993 0-4.0901 0-9.0457-.046-14.0013v-2.2365c0-2.8952 0-5.7445 0-8.37931 1.7617 0 3.5157.05362 5.285.05362h1.3863c.8999-.00508 1.7609-.36744 2.3937-1.00735.6327-.63992.9853-1.50498.9802-2.40488-.005-.89991-.3674-1.76094-1.0073-2.39368-.6399-.632733-1.505-.985347-2.4049-.980269z" fill="#2d6631" transform="translate(38.8472 96.8408)"/><path d="m3.38542 22.1049c.43656.0081.87044-.0699 1.27686-.2295.40641-.1596.77741-.3977 1.09179-.7007s.56598-.6649.74045-1.0652c.17446-.4003.26837-.831.27634-1.2675v-15.45657c0-.89787-.35669-1.75897-.99158-2.39386-.63489-.634891-1.49599-.99156766-2.39386-.99156766s-1.75897.35667666-2.393856.99156766c-.634891.63489-.99156774 1.49599-.99156774 2.39386v15.45657c.00797293.4365.10188174.8672.27634474 1.2675s.426063.7622.740439 1.0652c.31439.303.68539.5411 1.0918.7007.40642.1596.84029.2376 1.27684.2295z" fill="#2d6631" transform="translate(121.875 96.5459)"/><path d="m3.39309-.00000467c-.89858-.00000229-1.76047.35643967-2.396573.99111167-.636108.634673-.994483 1.495753-.99651139 2.394323v3.36245c0 .89991.35748439 1.76295.99381139 2.39927.636323.63633 1.499363.99385 2.399273.99385.8999 0 1.76294-.35752 2.39927-.99385.63633-.63632.99381-1.49936.99381-2.39927v-3.36245c-.00203-.89857-.3604-1.75965-.99651-2.394323-.63611-.634672-1.49799-.99111396-2.39657-.99111167z" fill="#2d6631" transform="translate(122.22 120.75)"/><path d="m24.2339 21.9976c-.0683-.8733-.3314-1.7202-.7702-2.4784-.4387-.7582-1.0419-1.4084-1.7651-1.9027-1.8918-1.2868-4.5266-1.4323-8.0193-.5209-.4474.0989-.8701.2874-1.2427.5541s-.6873.6061-.9252.9978c-.2378.3916-.3939.8273-.4587 1.2809-.0649.4536-.0372.9156.0813 1.3582.1186.4426.3255.8566.6084 1.2171.2829.3604.6359.6598 1.0376.8801.4018.2204.844.357 1.3.4018s.9163-.0032 1.3533-.1412c.4442-.1149.8348-.2068 1.1565-.2604.8043-.1379 1.1106.1685 1.2179.4748.0974.5214.0599 1.0589-.1091 1.5617-.1689.5027-.4636.9539-.856 1.3106-1.5319 1.2178-4.542 1.3863-6.4262.4213-2.73437-1.417-3.95221-5.1165-3.53094-10.7231.76593-9.68142 5.59134-9.68142 7.18444-9.68142h.6281c.6662.04015 1.2995.30399 1.7971.74881s.8306 1.04458.9449 1.70218c.1186.79937.5185 1.53023 1.1279 2.06093.6094.5308 1.3882.8266 2.1963.8343.1772.0003.354-.0151.5285-.046.8854-.1306 1.6827-.6073 2.2169-1.3253.5343-.718.7617-1.61875.6324-2.50433-.357-2.23401-1.4785-4.27479-3.173-5.77374-1.6946-1.498945-3.857-2.3630529-6.1178-2.4447279h-.5055c-8.42532 0-13.465164 5.6602479-14.2464167 15.9390979-.8655053 11.3282 4.1283867 15.6633 7.1844567 17.2412 1.79563.9148 3.78286 1.3899 5.79816 1.3863 2.6798.0461 5.2971-.812 7.4295-2.4357 1.4064-1.2523 2.482-2.8324 3.1313-4.6001.6493-1.7676.8524-3.6682.5912-5.5332z" fill="#2d6631" transform="translate(22.3198 52.7498)"/><path d="m3.3963 9.65843c.4388.00021.87337-.08567 1.27911-.25276 3.01012-1.24081 8.15719-2.12164 14.23109-2.44333v.06128c0 2.42035-.0537 6.57168-.1073 10.17158-.1532 9.3827-.3446 21.0555.2222 27.4894.0784.8403.4686 1.6209 1.0938 2.1879.6251.567 1.4399.8795 2.2839.8758h.3064c.8929-.0835 1.7163-.5172 2.2904-1.2061s.8521-1.5771.7733-2.4704c-.5285-6.0738-.3523-17.5552-.2068-26.8076.0613-3.6459.1149-7.83555.1149-10.28654.0038-.0561.0038-.1124 0-.16851 6.3037.11489 11.7954.84253 15.1655 2.02207.8487.28003 1.7729.22024 2.5785-.16682.8055-.38706 1.4297-1.07126 1.7414-1.90886.2962-.8471.2439-1.77715-.1453-2.58575-.3892-.80859-1.0835-1.42957-1.9304-1.72646-4.3965-1.53187-11.3818-2.44333035-19.1484-2.44333035-8.9767 0-17.13389 1.15656035-21.82907 3.06374035-.42225.18012-.80355.44405-1.12084.77582-.317285.33177-.563952.72447-.725063 1.15433-.2162525.51543-.3015144 1.07639-.2481787 1.6328s.2436097 1.09096.5538397 1.55592c.310231.46497.730762.84589 1.224052 1.10875.4933.26287 1.044.3995 1.60296.3977z" fill="#2d6631" transform="translate(60.4294 39.4303)"/><path d="m23.5544 21.9142c-.8524-.2744-1.7783-.2055-2.5808.1922-.8024.3976-1.4181 1.0926-1.716 1.9371-.2771.7785-.7292 1.4831-1.3214 2.0594-.5923.5763-1.3089 1.009-2.0947 1.2648-.8141.2858-1.6819.3853-2.5396.2911-.8576-.0941-1.6833-.3794-2.416-.835-1.29619-.9382-2.27439-2.2505-2.80332-3.7607-.13875-.3307-.24395-.6746-.31404-1.0263.20396-.0584.41633-.0817.62807-.069h.91912c1.10207.0613 2.20677.0613 3.30887 0 1.9564-.0241 3.8865-.4545 5.6679-1.2638 1.9595-1.1225 3.5638-2.7736 4.6297-4.7645 1.0659-1.991 1.5504-4.2415 1.3982-6.4947-.1007-1.4415-.5138-2.84382-1.2109-4.1096-.697-1.26578-1.6612-2.36468-2.8256-3.22039-1.1867-.90077-2.5532-1.535878-4.0069-1.86229-1.4536-.3264131-2.9605-.3364986-4.4184-.029569-7.4908 1.654419-12.354483 8.746969-11.8183291 17.333049.2604171 4.0212 1.5318691 11.3052 7.0695691 14.9358 2.00362 1.3008 4.34376 1.9876 6.73256 1.9761 1.4123.0004 2.815-.2325 4.1514-.6894 1.7738-.5852 3.3882-1.5728 4.717-2.8856 1.3287-1.3128 2.3357-2.9152 2.9423-4.6818.2883-.8482.2294-1.776-.1637-2.581-.3932-.805-1.0888-1.4218-1.935-1.7159zm-14.90503-6.7479h-.22212c-.55148-.0536-1.24081-.1225-1.394-.3293-.08721-.1927-.10084-.4107-.0383-.6128.08719-.5184.21003-1.0303.36765-1.5318.38331-1.4232 1.14576-2.71565 2.20601-3.73948 1.06029-1.02383 2.37849-1.74065 3.81419-2.074.2241-.0486.4525-.07426.6817-.07659.7833.01812 1.5402.28653 2.16.76593.3791.27162.6956.62137.9282 1.02568.2325.4043.3757.85376.4198 1.31808.0682.95898-.126 1.91838-.5619 2.77528-.4358.8569-1.0968 1.5788-1.9121 2.0884-.9421.4672-3.8756.6587-6.44913.3906z" fill="#2d6631" transform="translate(91.236 52.8639)"/><path d="m21.4794 1.78538c-.3223-.59515-.8145-1.080876-1.4138-1.395283-.5994-.314408-1.2788-.4432641-1.9516-.3701463-.6729.0731177-1.3087.3448973-1.8265.7807063-.5179.435813-.8942 1.015913-1.0811 1.666403-.1221.41983-.1586.85992-.1073 1.29412s.1894.85366.406 1.23346c1.1719 2.02207 5.4917 20.45046 2.2978 20.68026-1.463.1148-1.5855-3.7684-2.0144-6.3267-.5015-3.0783-1.1637-6.1284-1.9838-9.1375-1.4553-4.59565-3.4084-6.89346-5.41515-7.90449-.60475-.31653-1.26993-.50072-1.95136-.54034s-1.3635.06624-2.00086.31056c-4.44241431 1.69271-4.725803 9.05337-4.289221 24.34907.053616 1.7999.099568 3.3088.091909 4.3198-.00808.4444.072414.8859.236795 1.2989.16438.4129.409356.7889.720627 1.1062.46686.4785 1.06469.8085 1.71844.9485.65375.1399 1.33428.0836 1.95615-.1618.62187-.2455 1.15735-.6692 1.53924-1.218s.59315-1.1981.60726-1.8665c0-1.0953-.45956-13.3886-.76594-16.2072-.10723-.9804.00001-3.4773 1.47826-2.5582.70466.4289.92678 1.9608 1.09528 2.6731.4902 2.0833.55148 4.2203.91147 6.319 1.1949 7.0236 3.1097 12.1324 6.3573 12.9136.3418.0772.6912.1158 1.0416.1149.8922.0358 1.7805-.1358 2.5952-.5013s1.5335-.9149 2.1-1.605c3.8144-4.902 4.8484-20.4734-.3523-30.21612z" fill="#2d6631" transform="translate(120.648 52.5958)"/><path d="m3.75116 30.4988c1.15881 1.3769 2.61314 2.4749 4.25482 3.2122 1.64167.7373 3.42842 1.095 5.22742 1.0464.2758 0 .5515 0 .8426-.0766 1.8945-.2866 3.6886-1.0383 5.2216-2.1877 1.5331-1.1495 2.7575-2.661 3.5636-4.3993 1.3819-2.8312 2.0972-5.9412 2.091-9.0916.1532-5.5816-.4706-11.15744-1.8535-16.56718-.2641-.86504-.8583-1.591243-1.6539-2.021321-.7957-.4300781-1.7287-.52941-2.5971-.276485-.4317.129258-.8334.343234-1.1816.629433-.3481.286203-.6357.638893-.8461 1.037473-.2103.39859-.3392.83509-.379 1.28401-.0398.44893.0103.90128.1472 1.33065.6157 2.25612 1.0258 4.56334 1.2255 6.89342.1762 1.5319.2834 2.8952.3217 4.182.1225 3.4007.1072 6.6943-1.3327 9.5512-.3128.7462-.8063 1.403-1.4361 1.911-.6297.5081-1.376.8516-2.1715.9995-.835.0571-1.6712-.0919-2.4352-.4338-.7639-.3419-1.43214-.8662-1.94592-1.527-1.30974-1.4705-1.97611-3.6152-2.08334-6.7402-.04796-2.6608.17532-5.3195.66637-7.9351.32506-2.13039.80374-4.23453 1.4323-6.29593.26673-.86132.1821-1.79317-.23543-2.59236-.41752-.79919-1.13409-1.40088-1.99345-1.673891-.86131-.252426-1.78694-.161259-2.58246.254351-.79552.41562-1.39904 1.12334-1.68379 1.97452-.95742 3.06374-2.841611 11.48901-2.205886 16.72801.306374 4.6798 1.600796 8.5172 3.622866 10.7843z" fill="#2d6631" transform="translate(49.2815 52.4672)"/><g fill="#fff"><path d="m21.7293 17.5858c-1.9072-1.2867-4.5267-1.4629-8.05-.5131-.8679.2333-1.6078.8015-2.0573 1.5798-.4494.7783-.5718 1.7031-.3401 2.5715.2456.8586.8148 1.5883 1.5878 2.0355.7729.4472 1.6892.5769 2.5559.3619.4519-.1225.8349-.2068 1.1566-.2681.8119-.1378 1.1106.1762 1.2178.4672.1025.5232.0666 1.0641-.104 1.5691-.1706.5051-.47.9569-.8687 1.3109-1.5319 1.2178-4.5344 1.394-6.4109.4212-3.46201-1.7846-3.82966-6.8015-3.53095-10.723.76594-9.68145 5.59895-9.68145 7.19215-9.68145h.6127c.6674.04051 1.3014.30545 1.7992.75179s.8301 1.04785.9429 1.70685c.1202.79798.5208 1.52701 1.1301 2.05621.6092.5292 1.3871.824 2.194.8314.1758.0157.3527.0157.5285 0 .8841-.1345 1.6796-.6119 2.2143-1.3286.5347-.7168.7656-1.61535.6426-2.50111-.357-2.23124-1.475-4.27024-3.1643-5.77103-1.6892-1.500782-3.8457-2.3709159-6.1034-2.46275813h-.5285c-8.42532 0-13.465163 5.66024813-14.2464159 15.93909813-.8655051 11.3205 4.1283859 15.6633 7.1844559 17.2335 1.79604.922 3.78696 1.4 5.80576 1.394 2.6774.0449 5.2918-.8131 7.4219-2.4357 1.4202-1.2508 2.5094-2.8331 3.1709-4.6063.6614-1.7731.8745-3.6822.6205-5.5576-.0764-.8756-.347-1.7232-.7922-2.4811s-1.0537-1.407-1.7813-1.9001z" transform="translate(92.8845 93.5895)"/><path d="m23.6635 19.6906c-.0842-1.2178-.1685-2.4356-.2297-3.6688v-.2528c-.2375-4.4041-.5822-11.07537-5.4075-14.16208-1.1683-.733961-2.4698-1.230164-3.8302-1.460173-1.3603-.2300095-2.7527-.1893028-4.0973.119788-1.27588.287314-2.48141.827015-3.54558 1.587325-1.06416.76031-1.96545 1.72585-2.65078 2.83977-2.21504 3.91232-3.428045 8.31177-3.530959 12.80637-.168506 4.4118-.36765138 9.4134-.36765138 13.7869-.02180902.4586.04969728.9169.21018338 1.3471.160486.4302.406612.8233.72348 1.1556.316867.3323.697877.5968 1.119967.7776.42209.1807.87647.2739 1.33563.2739s.91353-.0932 1.33562-.2739c.42209-.1808.8031-.4453 1.11997-.7776s.563-.7254.72349-1.1556c.16048-.4302.23198-.8885.21017-1.3471 0-1.777.00001-3.8297.1149-6.4262 1.83824.0459 3.82966.0766 6.12746.0842 1.4093 0 2.811 0 4.2126.046.1149 2.2365.1379 4.0135.092 5.6909-.0312.8916.2908 1.7595.8961 2.415.6053.6554 1.4448 1.0455 2.3361 1.0853h.2604c.8621-.0232 1.6825-.3761 2.2924-.9859.6098-.6098.9626-1.4302.9858-2.2923.0634-3.5785-.0619-7.1578-.3753-10.7231zm-6.8934-1.4629c-1.2484 0-2.4969-.0383-3.7531-.046-2.2978 0-4.17429-.0383-5.9053-.0842v-.4596c.07359-3.3065.95165-6.5453 2.55822-9.43629.2105-.34869.49168-.64946.82538-.88294.3338-.23349.7127-.39454 1.1124-.47276.9428-.21812 1.9336-.05574 2.7574.45191 1.8765 1.19485 2.1293 5.95898 2.2978 8.80058v.2527c.0306.6281.0689 1.2409.1149 1.8536z" transform="translate(64.5793 93.6676)"/><path d="m23.024.245101h-1.3174c-2.7574 0-5.4765-.000001-8.2415-.084253l-1.9301-.04596c-2.7191-.0612752-5.43051-.1148859-8.14957-.1148859-.44458-.00000002-.88481.0875638-1.29555.2576979-.41074.170133-.78394.419504-1.09831.73387-.314366.31437-.563737.68757-.73387 1.09831-.1701342.41074-.25770085.85097-.25770085 1.29555s.08756665.88481.25770085 1.29555c.170133.41073.419504.78394.73387 1.0983.31437.31437.68757.56374 1.09831.73388.41074.17013.85097.2577 1.29555.2577 2.06036 0 4.12838.04595 6.18874.09191 0 3.34713.00001 7.03893.0383 10.72303v1.4706 12.5001c0 .8999.35748 1.7629.99383 2.3993.6363.6363 1.4994.9938 2.3993.9938s1.7629-.3575 2.3992-.9938c.6364-.6364.9938-1.4994.9938-2.3993 0-4.0901 0-9.0457-.0459-14.0013v-2.2365c0-2.9029 0-5.75219 0-8.37934 1.7616 0 3.5156.05362 5.2849.05362h1.3864c.447.01056.8915-.06874 1.3073-.2332.4157-.16446.7942-.41074 1.113-.72422.4752-.4759.7982-1.08227.9281-1.74211s.0608-1.3434-.1986-1.96388c-.2593-.62048-.6972-1.1499-1.258-1.521034-.5609-.371136-1.2193-.567247-1.8918-.563435z" transform="translate(39.0162 93.5359)"/><path d="m3.38542 22.1049c.88238.0143 1.73442-.322 2.36912-.9352.6347-.6131 1.00021-1.453 1.01632-2.3354v-15.44887c0-.89787-.35669-1.75897-.99158-2.39386-.63489-.634891-1.49599-.99156743-2.39386-.99156743s-1.75897.35667643-2.393856.99156743c-.634891.63489-.99156774 1.49599-.99156774 2.39386v15.44887c.01611314.8824.38162474 1.7223 1.01632374 2.3354.63469.6132 1.48672.9495 2.3691.9352z" transform="translate(121.875 93.2371)"/><path d="m3.39309.00000561c-.89928.00202314-1.76115.36015439-2.397041.99604339-.635889.635891-.99402025 1.497761-.99604339 2.397041v3.35479c0 .89991.35748439 1.76295.99381139 2.39927.636323.63633 1.499363.99385 2.399273.99385.8999 0 1.76294-.35752 2.39927-.99385.63633-.63632.99381-1.49936.99381-2.39927v-3.35479c-.00202-.89928-.36015-1.76115-.99604-2.397041-.63589-.635889-1.49776-.99402025-2.39704-.99604339z" transform="translate(122.22 117.433)"/><path d="m24.2339 21.9976c-.0693-.8741-.3328-1.7217-.7714-2.481s-1.0413-1.4111-1.7639-1.9078c-1.8918-1.2791-4.5266-1.4552-8.0193-.5132-.4307.1137-.8346.3116-1.1883.5823-.3537.2708-.6503.6089-.8725.995-.2222.386-.3657.8123-.4222 1.2541-.0564.4418-.0247.8905.0933 1.32.2316.8674.7983 1.6072 1.5754 2.0568.7771.4495 1.7009.5721 2.5683.3406.4442-.1149.8349-.2068 1.1565-.2604.8043-.1456 1.1106.1685 1.2179.4672.0974.5213.0599 1.0589-.1091 1.5616-.1689.5027-.4636.9539-.856 1.3106-1.5319 1.2179-4.542 1.394-6.4262.4213-2.73437-1.4093-3.9522-5.1164-3.53094-10.7231.76593-9.68138 5.59134-9.68138 7.18444-9.68138h.6281c.6676.03608 1.3029.29851 1.8014.74405.4984.44553.8302 1.04759.9406 1.70694.1202.79798.5209 1.52699 1.1301 2.05619s1.3871.824 2.1941.8314c.1769.0027.3538-.0101.5285-.0383.8845-.1326 1.6805-.6097 2.2144-1.3272.5339-.71759.7621-1.61723.6349-2.50249-.3586-2.23262-1.4808-4.27161-3.1752-5.76902-1.6944-1.497419-3.8559-2.3604391-6.1156-2.44178766h-.5055c-8.42532 0-13.465164 5.66024766-14.2464167 15.93909766-.8655053 11.3205 4.1283867 15.6557 7.1844667 17.2412 1.79552.9151 3.78285 1.3902 5.79815 1.3863 2.6789.0483 5.2961-.807 7.4295-2.428 1.4043-1.2556 2.4783-2.8373 3.1275-4.6057.6491-1.7684.8534-3.6693.595-5.5353z" transform="translate(22.3198 49.441)"/><path d="m3.36862 9.64311c.43843-.0034.87233-.08914 1.2791-.25276 3.01012-1.24081 8.15718-2.12164 14.23108-2.44333v.06128c0 2.42035-.0536 6.5717-.1073 10.1716-.1531 9.3827-.3446 21.0555.2222 27.4894.0784.8403.4686 1.6209 1.0938 2.1879s1.4399.8795 2.2839.8758h.3064c.8929-.0836 1.7163-.5172 2.2904-1.2061s.8521-1.5771.7733-2.4704c-.5284-6.0815-.3523-17.5628-.2068-26.8077.0613-3.6382.1149-7.83547.1149-10.2788.004-.0561.004-.11241 0-.1685 6.3037.10723 11.7954.84252 15.1655 2.02206.8487.28273 1.7741.22518 2.5812-.16054.8071-.38571 1.4332-1.06951 1.7464-1.90748.1478-.41991.2114-.86485.187-1.30935-.0243-.44451-.1361-.87985-.3289-1.2811-.1928-.40126-.4628-.76054-.7947-1.0573-.3318-.29676-.7189-.52516-1.1391-.67212-4.3965-1.531867-11.3818-2.43566977-19.1484-2.43566977-8.9767 0-17.13392 1.15655977-21.82909 3.06373977-.7236.3011-1.320654.84342-1.689731 1.53483-.3690767.69141-.4874228 1.48926-.3349322 2.25803.1524912.76877.5664172 1.46104 1.1714532 1.95923.60504.49818 1.36389.77155 2.14763.77366z" transform="translate(60.4564 36.1368)"/><path d="m23.5391 21.9273c-.8525-.2704-1.7767-.1996-2.5781.1975-.8014.3972-1.4175 1.0897-1.7188 1.9318-.2771.7794-.729 1.4849-1.3212 2.0625-.5922.5775-1.3088 1.0117-2.0948 1.2693-.8147.2847-1.6828.3829-2.5405.2875-.8577-.0955-1.683-.3822-2.4151-.839-1.29972-.9347-2.27883-2.2482-2.80334-3.7607-.13909-.328-.24432-.6693-.31404-1.0187.20303-.0629.41624-.0863.62808-.0689.27573 0 .57444 0 .91911.0383 1.10199.0651 2.20689.0651 3.30889 0 1.9606-.0313 3.8923-.4777 5.6679-1.3098 1.9654-1.121 3.575-2.7734 4.6439-4.7677 1.0689-1.9942 1.5539-4.2494 1.3993-6.50682-.1007-1.4415-.5138-2.84382-1.2109-4.1096-.697-1.26578-1.6612-2.36467-2.8256-3.22039-1.1877-.89897-2.5542-1.532986-4.0075-1.859327-1.4534-.326342-2.9598-.3374327-4.4178-.032526-7.4908 1.662073-12.35448 8.746963-11.8183259 17.340763.2604179 4.0135 1.5318659 11.2975 7.0695659 14.928 2.00107 1.3073 4.34236 1.9971 6.73256 1.9838 1.4123.0004 2.815-.2325 4.1514-.6893 1.7724-.5878 3.3855-1.5764 4.7138-2.8888 1.3284-1.3124 2.3363-2.9134 2.9455-4.6787.2811-.8493.2169-1.7751-.1786-2.5775-.3955-.8025-1.0906-1.4172-1.9354-1.7117zm-14.90504-6.7402h-.22213c-.55147-.0613-1.24081-.1302-1.394-.337-.08741-.19-.10106-.4057-.0383-.6051.08839-.5182.21121-1.03.36765-1.5319.38376-1.4221 1.14649-2.71336 2.20678-3.73588 1.06034-1.02252 2.37834-1.73793 3.81344-2.06988.2241-.04859.4525-.07426.6817-.0766.784.01432 1.5421.28314 2.1599.76594.3799.2709.697.62048.9296 1.02492.2326.40445.3753.85427.4185 1.31884.0657.95856-.1297 1.91706-.5653 2.77356-.4356.8564-1.0952 1.5787-1.9087 2.0901-.9421.4519-3.8756.6511-6.44914.383z" transform="translate(91.251 49.5343)"/><path d="m21.51 1.78537c-.3223-.59514-.8145-1.080868-1.4138-1.395275-.5993-.3144081-1.2787-.4432642-1.9516-.3701464-.6728.0731177-1.3087.3448974-1.8265.7807064-.5178.435805-.8942 1.015915-1.0811 1.666395-.1221.41983-.1586.85992-.1073 1.29413.0514.4342.1894.85366.406 1.23346 1.1719 2.02206 5.4918 20.44276 2.2978 20.68026-1.4629.1148-1.5855-3.7684-2.0144-6.3267-.5142-3.0658-1.1865-6.1029-2.0144-9.0993-1.4553-4.59556-3.4084-6.89336-5.41515-7.89673-.60412-.31843-1.26945-.5037-1.9512-.54334-.68174-.03964-1.36407.06728-2.00101.31356-4.4424192 1.69271-4.725819 9.04571-4.289237 24.34901.053615 1.7923.099568 3.3089.091908 4.3199-.008079.4444.072426.8859.236807 1.2988.16438.4129.409344.789.720612 1.1062.46917.4807 1.07046.8113 1.7277.95.65723.1387 1.34083.0791 1.96421-.171.62338-.2502 1.15849-.6798 1.53753-1.2343.37903-.5545.58495-1.2091.59166-1.8808 0-1.0953-.45956-13.3962-.76593-16.2071-.10723-.9881 0-3.4774 1.47826-2.5583.70466.429.92677 1.9532 1.09528 2.6655.49019 2.091.55147 4.2203.91146 6.3266 1.1949 7.0236 3.1097 12.1324 6.3573 12.9137.3418.0772.6912.1157 1.0416.1148.8941.0391 1.785-.1301 2.6025-.4943s1.5391-.9134 2.108-1.6043c3.8297-4.879 4.8637-20.4581-.337-30.23143z" transform="translate(120.617 49.2488)"/><path d="m3.75116 30.4894c1.15881 1.3769 2.61314 2.4748 4.25482 3.2121 1.64167.7373 3.42842 1.095 5.22742 1.0465.2758 0 .5515-.046.8426-.0766 1.8939-.2886 3.687-1.041 5.2198-2.1903 1.5328-1.1492 2.7576-2.6596 3.5654-4.3968 1.3819-2.8287 2.0997-5.9357 2.0987-9.0839.1536-5.5817-.4702-11.15751-1.8536-16.56718-.2658-.86388-.8602-1.588809-1.6553-2.018601-.7952-.4297918-1.7273-.530056-2.5956-.279202-.4348.130013-.8392.345527-1.1896.63391-.3503.288383-.6396.643823-.8507 1.045473-.2112.40165-.34.84143-.379 1.29353-.0389.45211.0128.90744.1521 1.33929.6157 2.25613 1.0258 4.56334 1.2255 6.89338.1762 1.5319.2834 2.8953.3217 4.1744.1225 3.4084.1072 6.7019-1.3327 9.5588-.3134.7503-.8087 1.4106-1.4412 1.9214-.6325.5109-1.3823.8561-2.1817 1.0045-.8348.0557-1.6706-.0939-2.4343-.4357-.76376-.3418-1.43215-.8654-1.94683-1.5251-1.30975-1.4706-1.97611-3.6152-2.08334-6.7402-.04475-2.669.18367-5.3356.68168-7.9581.32514-2.13291.80382-4.23959 1.4323-6.30361.26861-.86029.18474-1.79203-.23318-2.59053s-1.13571-1.39845-1.9957-1.668061c-.86131-.252426-1.78694-.161259-2.58246.254351-.79552.41562-1.39904 1.12334-1.68379 1.97452-.95741 3.06374-2.841611 11.48903-2.205886 16.72803.306374 4.6262 1.600796 8.4559 3.622866 10.7537z" transform="translate(49.2815 49.1677)"/></g></svg>