<svg fill="none" height="40" viewBox="0 0 174 40" width="174" xmlns="http://www.w3.org/2000/svg"><path d="m167.867 10.0354v-3.06378c.001-.91573-.179-1.82261-.529-2.66877-.35-.84617-.864-1.615-1.511-2.26252-.648-.64751-1.417-1.161012-2.263-1.511113s-1.753-.52993551-2.669-.52921475h-148.0808c-.9157-.00072076-1.8226.17911375-2.6688.52921475-.84615.350101-1.61498.863603-2.2625 1.511113-.64752.64752-1.16102 1.41635-1.51112 2.26252-.3501.84616-.52993 1.75304-.52921 2.66877v3.06378c-3.31043.6193-5.84257 3.9024-5.84257 7.865v1.288c0 3.9681 2.53214 7.2457 5.84257 7.865v3.0528c-.00217.9167.1766 1.8247.52606 2.6722.34945.8474.86272 1.6175 1.51038 2.2662.64767.6487 1.41699 1.1632 2.26389 1.5139.8469.3508 1.7546.531 2.6713.5303h148.0808c.917.0007 1.825-.1795 2.672-.5303.847-.3507 1.616-.8652 2.264-1.5139.647-.6487 1.16-1.4188 1.51-2.2662.349-.8475.528-1.7555.526-2.6722v-3.0528c3.288-.6193 5.843-3.8969 5.843-7.865v-1.288c0-3.9626-2.533-7.2457-5.843-7.865zm-161.9477 10.2492c-.34471 0-.68169-.1023-.96831-.2938s-.51001-.4637-.64192-.7822c-.13192-.3184-.16644-.6689-.09919-1.007s.23325-.6486.477-.8924c.24375-.2437.55431-.4097.8924-.477.33809-.0672.68853-.0327 1.007.0992s.59068.3553.78219.642c.19152.2866.29373.6235.29373.9683 0 .4622-.18362.9055-.51048 1.2324-.32686.3268-.77017.5105-1.23242.5105zm161.8707 0c-.345.0011-.682-.1002-.97-.2911-.287-.1909-.511-.4627-.644-.7811-.133-.3183-.168-.6689-.101-1.0074.066-.3384.232-.6495.475-.8938.244-.2443.554-.4108.893-.4785.338-.0677.689-.0335 1.007.0982.319.1318.592.3551.784.6419.191.2867.294.6239.294.9689 0 .4613-.183.9037-.509 1.2304s-.767.511-1.229.5125z" fill="#2c1803" transform="translate(.136597 2.23022)"/><path d="m1.86348 3.48104h-.23567c-.09251.00348-.18499-.00761-.27404-.03288-.12165-.01487-.23906-.05401-.3453-.1151-.133395-.05525-.257306-.13107-.367213-.22471-.262676-.21594-.453764-.50639-.5480827-.83309-.0549699-.17782-.08629698-.36209-.09317425-.54808.01112385-.17475.04238905-.34763.09317425-.5152.0508937-.17188.1285797-.334648.2301947-.482315.092554-.135162.205312-.255313.334331-.356254.109907-.093639.233817-.169464.36722-.224714.10658-.0603038.22384-.0993902.34529-.115098.089-.0255422.18152-.03664456.27404-.03288475h.23568l-.2302.04932755c-.08746.0155291-.17232.0432005-.25212.0822122-.10527.034815-.20495.084657-.29596.147983-.11494.065326-.220107.146509-.31241.241157-.099399.105101-.189272.218818-.268561.339812-.074992.128693-.13215.266974-.169906.411064-.098784.30272-.098784.62901 0 .93174.040327.14754.099262.28936.175387.42202.080685.11998.17047.23359.268561.33982.173296.17089.380559.30346.608369.38913.07919.04052.16428.06827.25212.08222z" fill="#fcf4e4" transform="translate(4.19275 16.9459)"/><path d="m.00000803.00061591h.23567197c.090702-.00345593.181367.00764622.268555.03288469.121811.0141105.239381.0533001.345296.1150984.133398.05525.257299.131075.367209.224714.12941.102237.24381.222163.33982.356255.09835.147574.1758.308032.23019.476832.1232.355.1232.74116 0 1.09617-.05323.17096-.13075.3334-.23019.48231-.09566.13263-.20804.25237-.33434.35625-.11401.09067-.239282.16621-.372689.22472-.105384.05858-.220514.09758-.339809.11509-.089002.02555-.181524.03665-.274042.03289h-.23567197l.23018597-.04933c.085668-.01567.168705-.04335.246644-.08221.106558-.03584.207909-.0856.301439-.14798.113352-.06744.216668-.15046.306923-.24664.10254-.10033.1927-.21257.26856-.33433.07414-.12979.133-.26773.17539-.41106.04585-.15298.06984-.31166.07125-.47136-.0041-.15586-.02805-.31057-.07125-.46039-.04033-.14754-.09927-.28935-.17539-.42202-.0758-.123469-.16594-.237533-.26856-.339811-.090374-.09451-.193714-.175706-.306923-.241157-.091626-.062285-.191166-.112052-.29597-.147981-.079481-.039794-.164452-.0675045-.252113-.0822138z" fill="#fcf4e4" transform="translate(167.928 16.9403)"/><path d="m167.867 10.0354v-3.04734c.003-.91711-.175-1.82576-.525-2.67382-.349-.84806-.862-1.61884-1.51-2.2681-.647-.64926-1.417-1.164231-2.264-1.51536-.847-.351128-1.756-.53150393-2.673-.53077782h-148.0808c-.9171-.00072611-1.8254.17964982-2.6726.53077782-.84723.351129-1.6168.8661-2.26453 1.51536s-1.16089 1.42004-1.51002 2.2681-.52737 1.75671-.52448 2.67382v3.06374c-3.31043.6029-5.84257 3.886-5.84257 7.8541v1.2825c0 3.9681 2.53214 7.2511 5.84257 7.8705v3.0638c0 1.8489.73451 3.6222 2.04194 4.9296 1.30743 1.3075 3.08069 2.042 4.92969 2.042h148.0808c.916 0 1.822-.1804 2.668-.5307.846-.3504 1.615-.8639 2.262-1.5113.647-.6473 1.161-1.4159 1.511-2.2617.351-.8459.531-1.7524.531-2.6679v-3.0638c3.288-.6194 5.843-3.9024 5.843-7.8705v-1.2825c0-3.9681-2.533-7.2512-5.843-7.8705zm-161.9477 10.2546c-.34471 0-.68169-.1022-.96831-.2937s-.51001-.4637-.64192-.7822c-.13192-.3185-.16644-.6689-.09919-1.007s.23325-.6486.477-.8924c.24375-.2437.55431-.4097.8924-.477.33809-.0672.68853-.0327 1.007.0992s.59068.3553.78219.6419c.19152.2867.29373.6236.29373.9683 0 .4623-.18362.9056-.51048 1.2325-.32686.3268-.77017.5104-1.23242.5104zm161.8707 0c-.345.0011-.682-.1002-.97-.291-.287-.1909-.511-.4627-.644-.7811s-.168-.669-.101-1.0074c.066-.3385.232-.6495.475-.8938.244-.2443.554-.4109.893-.4786.338-.0677.689-.0335 1.007.0983.319.1317.592.3551.784.6419.191.2867.294.6239.294.9688 0 .4613-.183.9038-.509 1.2305s-.767.511-1.229.5124z" fill="#fff" transform="translate(.136597 .136719)"/><path d="m167.867 10.0354v-3.04734c.003-.91711-.175-1.82576-.525-2.67382-.349-.84806-.862-1.61884-1.51-2.2681-.647-.64926-1.417-1.164231-2.264-1.51536-.847-.351128-1.756-.53150393-2.673-.53077782h-148.0808c-.9171-.00072611-1.8254.17964982-2.6726.53077782-.84723.351129-1.6168.8661-2.26453 1.51536s-1.16089 1.42004-1.51002 2.2681-.52737 1.75671-.52448 2.67382v3.06374c-3.31043.6029-5.84257 3.886-5.84257 7.8541v1.2825c0 3.9681 2.53214 7.2511 5.84257 7.8705v3.0638c0 1.8489.73451 3.6222 2.04194 4.9296 1.30743 1.3075 3.08069 2.042 4.92969 2.042h148.0808c.916 0 1.822-.1804 2.668-.5307.846-.3504 1.615-.8639 2.262-1.5113.647-.6473 1.161-1.4159 1.511-2.2617.351-.8459.531-1.7524.531-2.6679v-3.0638c3.288-.6194 5.843-3.9024 5.843-7.8705v-1.2825c0-3.9681-2.533-7.2512-5.843-7.8705zm-161.9477 10.2546c-.34471 0-.68169-.1022-.96831-.2937s-.51001-.4637-.64192-.7822c-.13192-.3185-.16644-.6689-.09919-1.007s.23325-.6486.477-.8924c.24375-.2437.55431-.4097.8924-.477.33809-.0672.68853-.0327 1.007.0992s.59068.3553.78219.6419c.19152.2867.29373.6236.29373.9683 0 .4623-.18362.9056-.51048 1.2325-.32686.3268-.77017.5104-1.23242.5104zm161.8707 0c-.345.0011-.682-.1002-.97-.291-.287-.1909-.511-.4627-.644-.7811s-.168-.669-.101-1.0074c.066-.3385.232-.6495.475-.8938.244-.2443.554-.4109.893-.4786.338-.0677.689-.0335 1.007.0983.319.1317.592.3551.784.6419.191.2867.294.6239.294.9688 0 .4613-.183.9038-.509 1.2305s-.767.511-1.229.5124z" fill="#412618" opacity=".75" transform="translate(.136597 .136719)"/><path d="m161.032 37.3683h-148.0808c-1.8897 0-3.70197-.7507-5.03819-2.0869-1.33621-1.3362-2.08688-3.1485-2.08688-5.0382v-2.9377c-3.3762-.6961-5.82613-4.0339-5.82613-7.9801v-1.2825c0-3.9517 2.44993-7.284 5.84257-7.9856v-2.93222c0-1.88969.75067-3.70198 2.08689-5.03819 1.33621-1.336214 3.14854-2.08689 5.03824-2.08689h148.0643c1.89 0 3.702.750676 5.039 2.08689 1.336 1.33621 2.086 3.1485 2.086 5.03819v2.94872c3.393.7015 5.843 4.0339 5.843 7.9855v1.2826c0 3.9516-2.45 7.284-5.843 7.9801v2.9541c-.008 1.884-.763 3.6879-2.098 5.017s-3.143 2.0752-5.027 2.0752zm-148.0808-37.094258c-.8987.000719-1.7885.178536-2.6184.52329-.82999.344758-1.58387.849688-2.21859 1.485938-.63473.63625-1.13784 1.39134-1.4806 2.22213-.34276.83078-.51844 1.72097-.517 2.61968v3.17892h-.1151c-3.3159.6248-5.727468 3.8749-5.727468 7.7389v1.2825c0 3.8366 2.411568 7.1251 5.727468 7.7335h.1151v3.1789c-.00144.8989.1742 1.7894.51689 2.6205s.84572 1.5865 1.48037 2.2232c.63466.6367 1.3885 1.1421 2.21853 1.4875.83.3453 1.7198.5238 2.6188.5253h148.0808c1.812-.0029 3.549-.7239 4.83-2.005s2.002-3.0179 2.005-4.8296v-3.1789h.115c3.316-.6193 5.728-3.875 5.728-7.7335v-1.3044c0-3.8366-2.412-7.1251-5.728-7.7335h-.115v-3.18432c.001-.89871-.174-1.7889-.517-2.61968-.343-.83079-.846-1.58588-1.481-2.22213-.634-.63625-1.388-1.14118-2.218-1.485938-.83-.344754-1.72-.522571-2.619-.52329z" fill="#fcf4e4" transform="translate(0 -.000244)"/><path d="m13.6528 13.4829c-.5554.4962-1.0008 1.1032-1.3076 1.7819-.3068.6786-.4681 1.414-.4737 2.1588h-5.48085v-7.44848h2.4609c.22409.89228.62069 1.73198 1.16745 2.47188l.0822.1041h1.1893v-6.35228h-1.2167l-.08224.10962c-.54933.73831-.94618 1.57859-1.16742 2.47186h-2.46089v-7.57452h4.99305c.0056.74477.1669 1.48014.4737 2.15882.3068.67867.7522 1.28565 1.3076 1.7819l.0767.06029h1.1345v-5.20679042h-14.34880017v.88789542l1.54559017.383655v16.08625l-1.54559017.3837v.8879h14.89690017v-5.2068h-1.151z" fill="#412618" transform="translate(19.632 10.8518)"/><path d="m21.9727 4.54059c0-2.58696-2.1924-4.53813199-5.0534-4.53813199-.722.02324559-1.4254.23537599-2.0399.61523999s-1.1187.914192-1.4623 1.549692c-.4974-.69263-1.1575-1.252352-1.9221-1.629874s-1.61026-.5612671-2.46258-.53505799c-.69641.01155979-1.37849.19964599-1.98239.54664899s-1.10987.841573-1.47054 1.437413c-.30414-.51512-.74431-.93649-1.27222-1.217842-.52791-.281356-1.12312-.411824-1.72032-.377081h-2.5869505v.882413l1.5455905.38914v10.91785l-1.5455905.3836v.8879h7.7827805v-.8879l-1.55107-.3836v-9.27908c.22471-.54808.91529-1.83608 1.78675-1.83608.69606 0 1.39761.95366 1.39761 3.07475v9.31741h6.23173v-.8934l-1.5456-.3836v-9.27908c.2192-.54808.9153-1.83608 1.7867-1.83608.6961 0 1.3976.95366 1.3976 3.07475v6.68661c0 1.7045.8989 2.6034 2.598 2.6034h3.6338v-.866l-1.5456-.3836z" fill="#412618" transform="translate(36.0146 15.6285)"/><path d="m12.8416 5.83161c0-3.54062-2.6418-5.83160975-6.72499-5.83160975-3.73245 0-5.05881 1.68261975-5.05881 3.11858975-.01325.29143.03439.58241.13988.8544.10548.27198.2665.51899.47278.72527s.4533.3673.72528.47279c.27199.10549.56297.15313.85439.13988.36927-.00596.7368-.0519 1.09617-.13702l.21376-.05481v-3.87495c.32419-.11243.66535-.16806 1.00847-.16443 1.57848 0 2.55954.79472 2.55954 4.75189v.50423c-1.34827.07204-2.69139.22026-4.02293.44395-2.07723.33981-4.10514201 1.30992-4.10514201 3.69411 0 1.8141 1.33184201 3.7598 5.05333201 3.7598.73629.0094 1.46293-.1682 2.11188-.5162.64895-.3479 1.199-.8549 1.59864-1.4733.30267.5184.74301.9429 1.27215 1.2264.5292.2834 1.1266.4148 1.7259.3795h2.6034v-.8879l-1.5511-.3837zm-6.72499 6.93869c-.61385 0-1.27155-.6686-1.27155-2.554-.03255-.52262.10244-1.04196.38533-1.48257.28289-.4406.69894-.77949 1.18767-.96739.14798-.06029 1.73742-.36722 1.73742-.23568v3.40364c-.12058.2904-.82213 1.836-2.03887 1.836z" fill="#412618" transform="translate(60.7498 15.631)"/><path d="m14.6174 4.53829c0-2.19233-2.0279-4.53812743-5.31094-4.53812743-.73574-.00633031-1.46125.17258743-2.10969.52027143-.64844.347685-1.19895.852956-1.60084 1.469276-.30291-.51786-.74347-.94159-1.27272-1.224111-.52925-.282524-1.12647-.412781-1.7253-.376298h-2.59791335v.882419l1.54560335.38913v10.91785l-1.54560335.3836v.8879h7.78279335v-.8879l-1.5456-.3836v-9.27908c.1151-.285.81664-1.83608 2.03887-1.83608.82212 0 1.64425 1.05781 1.64425 3.07475v6.68661c0 1.7045.89889 2.6034 2.60339 2.6034h3.6338v-.866l-1.5511-.3836z" fill="#412618" transform="translate(76.1288 15.6309)"/><path d="m13.3294 2.6034c0-1.699063-.8989-2.60340029-2.6034-2.60340029h-3.6338v.88789529l1.55107.383655v4.26957c-.80917-.49889-1.74048-.76444-2.69109-.76731-3.72696 0-5.95218167 2.66368-5.95218167 7.12509 0 4.3189 2.19233167 7.1251 5.56853167 7.1251.73574.0063 1.46124-.1726 2.10968-.5203.64843-.3477 1.19896-.853 1.60084-1.4693.30267.5185.74305.943 1.27215 1.2264.5292.2835 1.1266.4148 1.7259.3795h2.6034v-.9043l-1.5511-.3837zm-6.73047 14.9407c-1.06329 0-1.64425-2.0059-1.64425-5.6507 0-5.13005 1.09616-5.78775 2.04434-5.78775.63323.08517 1.21579.39199 1.64425.86597v8.73648c-.12057.2905-.8276 1.836-2.04434 1.836z" fill="#412618" transform="translate(93.2836 10.8574)"/><path d="m17.7195.887895v-.88789529h-7.91429v.88789529l1.54559.389135v7.49778h-4.98755v-7.49778l1.55107-.389135v-.88789529h-7.91431665v.88789529l1.55106665.389135v16.07527l-1.55106665.3837v.8879h7.91431665v-.8879l-1.55107-.3837v-7.3717h4.98755v7.3717l-1.54559.3837v.8879h7.91429v-.8879l-1.551-.3837v-16.07527z" fill="#412618" transform="translate(109.534 10.8574)"/><path d="m8.9502 5.19583c.35957.08401.72698.12994 1.0962.13702.2938.01356.5872-.03479.8612-.14192.274-.10712.5223-.27063.7291-.47992.2067-.2093.3671-.4597.4708-.73497s.1484-.56927.1312-.86293c0-1.50174-1.4195-3.11310967-4.53813-3.11310967-3.35427 0-5.69458 2.07723967-5.69458 5.05332967v4.03937h-2.00598465v1.2058h2.00598465v7.4375l-1.551083.3836v.8879h7.788263v-.8879l-1.55107-.3836v-7.4375h2.12656v-1.2058h-2.11012v-4.03937c0-3.50773.7728-3.97909 1.52916-3.97909.166.00384.33122.02404.49327.06029v4.00649z" fill="#412618" transform="translate(143.467 10.4736)"/><path d="m2.72398-.00000029h-2.137534c-.104136 0-.5480788.58644929-.58644466 1.74839029.02765356.91081.39752066 1.77774 1.03587866 2.42801h.89885c-.33351-.64257-.47614-1.36717-.41106-2.0882.04547-.41197.17555-.8101.3821-1.16944.20654-.359336.4851-.672127.81821-.91876029z" fill="#412618" transform="translate(133.562 10.8574)"/><path d="m1.15646 3.95452c.42293-.79843 1.02415-1.48866 1.757-2.01715.73284-.52848 1.5776-.881 2.46872-1.030198 0 0-2.59791 1.562038-3.0583 3.047348h11.40012c-.1889-.57695-.5033-1.10482-.9208-1.5456-.6816-.73444-1.5186-1.30743-2.4499-1.677135-.71697-.32604-1.4809-.536904-2.26359-.624814-1.22489-.2017531-2.47984-.1173395-3.66667.246637l-.30694.115098-.27952.098655c-.7805.289925-1.51801.684499-2.19233 1.172899-.75433.56456-1.326104 1.33836-1.64425033 2.22522z" fill="#412618" transform="translate(127.917 15.6117)"/><path d="m12.5347 2.01147c-.0008-.67974-.093-1.356288-.2741-2.01146916h-4.03387c0 .37269716.0274 1.56203916.0274 1.97857916 0 3.65023-.71798 5.82064-1.97309 6.02892v.03288-.03288c-1.26059-.20279-1.97311-2.3732-1.97311-6.02892 0-.41654 0-1.605882 0-1.97857916h-4.03389c-.1810593.65518116-.27323176 1.33172916-.27404201 2.01146916 0 3.43648 2.23618201 6.30295 5.20131201 6.93325.39891.11744.76239.33214 1.0578.62482 0 0 0-.00001 0-.03289 0-.03289 0 0 0 .03289.2954-.29268.65889-.50738 1.0578-.62482 2.97609-.6303 5.21779-3.49677 5.21779-6.93325z" fill="#412618" transform="translate(128.712 20.7721)"/><g fill="#fff"><path d="m13.6528 13.4774c-.5554.4962-1.0008 1.1032-1.3076 1.7819s-.4681 1.414-.4737 2.1588h-5.48085v-7.4375h2.4609c.21844.8825.60555 1.7145 1.14001 2.4499l.08224.1042h1.1893v-6.34136h-1.1893l-.08224.10962c-.54933.73831-.94618 1.57859-1.16742 2.47185h-2.46089v-7.56903h4.99305c.0056.74477.1669 1.48014.4737 2.15882.3068.67867.7522 1.28565 1.3076 1.7819l.0767.06029h1.1345v-5.20679017h-14.34880017v.88789517l1.54559017.383655v16.09175l-1.54559017.3836v.877h14.89690017v-5.2068h-1.151z" transform="translate(19.632 9.49268)"/><path d="m21.9727 4.53813c0-2.58695-2.1924-4.53812962-5.0534-4.53812962-.7231.02433452-1.4272.23811662-2.0418.61996462-.6147.381845-1.1182.918375-1.4604 1.555925-.4974-.69263-1.1575-1.252348-1.9221-1.62987s-1.61026-.5612679-2.46258-.5350588c-.69703.0116227-1.37966.2003248-1.98369.5483618-.60403.348036-1.10962.843977-1.46924 1.441177-.30249-.51698-.74217-.94015-1.27036-1.22262-.52818-.282472-1.12425-.413227-1.72218-.377779h-2.5869505v.882419l1.5455905.38913v10.91785l-1.5455905.3836v.877h7.7827805v-.8879l-1.55107-.3727v-9.29004c.22471-.54808.91529-1.83608 1.78675-1.83608.69606 0 1.39761.95367 1.39761 3.07475v9.31737h6.23173v-.8933l-1.5456-.3727v-9.29004c.2192-.54808.9153-1.83608 1.7867-1.83608.6961 0 1.3976.95367 1.3976 3.07475v6.70857c0 1.7045.8989 2.6034 2.598 2.6034h3.6338v-.8879l-1.5456-.3727z" transform="translate(36.0146 14.2664)"/><path d="m12.8416 5.84257c0-3.53514-2.6418-5.84257-6.72499-5.84257-3.73245 0-5.05881 1.68262-5.05881 3.11859-.01325.29143.03439.58241.13988.8544.10548.27198.2665.51899.47278.72527s.4533.3673.72528.47279c.27199.10549.56297.15313.85439.13988.36927-.00596.7368-.0519 1.09617-.13702l.21376-.05481v-3.85851c.32419-.11243.66535-.16805 1.00847-.16442 1.57848 0 2.55954.78924 2.55954 4.7464v.50972c-1.34827.07203-2.69139.22025-4.02293.44394-2.07723.33982-4.10514201 1.30444-4.10514201 3.69407 0 1.8197 1.33184201 3.7599 5.05333201 3.7599.73629.0094 1.46293-.1683 2.11188-.5162.64895-.348 1.199-.8549 1.59864-1.4734.30267.5185.74301.9429 1.27215 1.2264.5292.2835 1.1266.4148 1.7259.3795h2.6034v-.8879l-1.5511-.3836zm-6.72499 6.94973c-.61385 0-1.27155-.6742-1.27155-2.5596-.03255-.52257.10244-1.04192.38533-1.48252s.69894-.77949 1.18767-.9674c.14798-.06029 1.73742-.36721 1.73742-.23567v3.41459c-.12058.274-.82213 1.8306-2.03887 1.8306z" transform="translate(60.7498 14.2501)"/><path d="m14.6174 4.53829c0-2.19233-2.0279-4.5381273-5.31094-4.5381273-.73574-.00633031-1.46125.1725873-2.10969.5202723-.64844.347684-1.19895.852955-1.60084 1.469265-.30291-.51785-.74347-.94158-1.27272-1.224101-.52925-.282524-1.12647-.412781-1.7253-.376298h-2.59791335v.882419l1.54560335.38913v10.92875l-1.54560335.3837v.8769h7.78279335v-.8879l-1.5456-.3836v-9.27908c.1151-.285.81664-1.83607 2.03887-1.83607.82212 0 1.64425 1.0578 1.64425 3.07474v6.70851c0 1.7046.89889 2.6034 2.60339 2.6034h3.6338v-.8879l-1.5511-.3836z" transform="translate(76.1288 14.2662)"/><path d="m13.3294 2.6034c0-1.699063-.8989-2.60340017-2.6034-2.60340017h-3.6338v.88789517l1.55107.383655v4.26957c-.80917-.49889-1.74048-.76444-2.69109-.76731-3.72696 0-5.95218167 2.66368-5.95218167 7.12509 0 4.3189 2.19233167 7.1251 5.56853167 7.1251.73574.0063 1.46124-.1726 2.10968-.5203.64843-.3477 1.19896-.853 1.60084-1.4693.30267.5185.74305.943 1.27215 1.2264.5292.2835 1.1266.4148 1.7259.3795h2.6034v-.9043l-1.5511-.3837zm-6.73047 14.9462c-1.06329 0-1.64425-2.0114-1.64425-5.6562 0-5.13005 1.09616-5.78775 2.04434-5.78775.63612.0756 1.22468.37474 1.6607.84405v8.7693c-.13703.2741-.84405 1.8306-2.06079 1.8306z" transform="translate(93.2836 9.49268)"/><path d="m17.7195.887895v-.88789517h-7.91429v.88789517l1.54559.383655v7.50326h-4.98755v-7.50326l1.55107-.383655v-.88789517h-7.91431665v.88789517l1.55106665.383655v16.08075l-1.55106665.3837v.8879h7.91431665v-.8879l-1.55107-.3837v-7.3717h4.98755v7.3717l-1.54559.3837v.8879h7.91429v-.8879l-1.551-.3837v-16.08075z" transform="translate(109.534 9.49268)"/><path d="m8.9502 5.19583c.35957.08401.72698.12994 1.0962.13702.2938.01356.5872-.03479.8612-.14192.274-.10712.5223-.27063.7291-.47992.2067-.2093.3671-.4597.4708-.73497s.1484-.56927.1312-.86293c0-1.50175-1.4195-3.11310954-4.53813-3.11310954-3.35427 0-5.69458 2.07723954-5.69458 5.05332954v4.03937h-2.00598465v1.2058h2.00598465v7.4484l-1.551083.3837v.8769h7.788263v-.8879l-1.53463-.3727v-7.4484h2.12656v-1.2058h-2.12656v-4.03937c0-3.50773.7728-3.97909 1.52916-3.97909.166.00384.33122.02404.49327.06029v4.00649z" transform="translate(143.467 9.10889)"/><path d="m2.72398-.00000017h-2.137534c-.104136 0-.5480788.58644917-.58644466 1.74839017.02765356.91081.39752066 1.77774 1.03587866 2.42801h.89885c-.33351-.64257-.47614-1.36717-.41106-2.0882.04611-.4118.17647-.8097.38296-1.168944.2065-.359248.48472-.672156.81735-.91925617z" transform="translate(133.562 9.49268)"/><path d="m1.15646 3.95451c.42293-.79842 1.02415-1.48865 1.757-2.01714.73284-.52848 1.5776-.881 2.46872-1.030198 0 0-2.59791 1.562038-3.0583 3.047338h11.40012c-.1889-.57694-.5033-1.10481-.9208-1.54559-.6816-.73444-1.5186-1.30743-2.4499-1.677134-.71697-.326041-1.4809-.536905-2.26359-.624815-1.22489-.201753-2.47984-.1173394-3.66667.246637l-.30694.115098-.27952.098655c-.7805.289925-1.51801.684499-2.19233 1.172899-.75433.56456-1.326104 1.33836-1.64425033 2.22522z" transform="translate(127.917 14.2469)"/><path d="m12.5347 2.01147c-.0008-.67974-.093-1.356289-.2741-2.01147008h-4.03387c0 .37269708.0274 1.56204008.0274 1.97858008 0 3.65024-.71798 5.82065-1.97309 6.02892v.03836-.03836c-1.26059-.20279-1.97311-2.3732-1.97311-6.02892 0-.41654 0-1.605883 0-1.97858008h-4.03389c-.1810593.65518108-.27323176 1.33173008-.27404201 2.01147008 0 3.43648 2.23618201 6.30295 5.20131201 6.93325.39891.11744.76239.33214 1.0578.62481 0 0 0 0 0-.03836 0-.03837 0 .03288 0 .03836.2954-.29267.65889-.50737 1.0578-.62481 2.97609-.6303 5.21779-3.49677 5.21779-6.93325z" transform="translate(128.712 19.4073)"/></g></svg>