<svg width="250" height="202" viewBox="0 0 250 202" fill="none" xmlns="http://www.w3.org/2000/svg">
<path d="M32.1 115.2C31.3 115.8 30.6 116.6 30 117.6C29.5 118.4 29 119.5 28.6 120.7C28.2 121.9 28 123.4 28 125H14.3L14.2 84L18 83V82.1L0 82.3V83.3L3.8 84.2L3.9 124.8L0.1 125.8V126.8H34.1V115.4L32.1 115.2Z" fill="#001D3F"/>
<path d="M53.7 92.9H52.3L39.3 124.5L35.5 125.9V126.6H44.3V125.9L40.7 124.5L43.8 116.9H55.2L57.6 122.6C58 123.7 58.8 124.6 59.8 125.4C60.8 126.2 62.2 126.6 64 126.6H69.7V125.9L67.3 125.2L53.7 92.9ZM44.3 115.7L49.5 103.2L54.8 115.7H44.3Z" fill="#001D3F"/>
<path d="M67 93.3V101.9H68.4C69 101.4 69.5 100.8 69.9 100.1C70.3 99.5 70.6 98.7 71 97.8C71.3 96.9 71.5 95.8 71.5 94.5H77L77.1 125.2L74.2 125.9V126.6H87.8V125.9L84.9 125.2L84.8 94.5H90.3C90.3 95.8 90.5 96.9 90.8 97.8C91.1 98.7 91.5 99.5 91.8 100.1C92.2 100.8 92.8 101.4 93.4 101.9H94.8V93.3H67Z" fill="#001D3F"/>
<path d="M98.2 93.3V101.9H99.6C100.2 101.4 100.7 100.8 101.1 100.1C101.5 99.5 101.8 98.7 102.2 97.8C102.5 96.9 102.7 95.8 102.7 94.5H108.2L108.3 125.2L105.4 125.9V126.6H119V125.9L116.1 125.2V94.5H121.6C121.6 95.8 121.8 96.9 122.1 97.7C122.4 98.6 122.8 99.4 123.2 100C123.6 100.7 124.2 101.3 124.8 101.8H126.2V93.2L98.2 93.3Z" fill="#001D3F"/>
<path d="M154.6 117.9C154 118.4 153.5 119 153 119.7C152.6 120.3 152.3 121.1 152 122C151.7 122.9 151.5 124 151.5 125.2H140.3V110.5H145.8C145.9 111.2 146.1 111.8 146.3 112.4C146.5 113 146.8 113.5 147 113.9C147.3 114.4 147.6 114.9 147.9 115.3H149.3V104.6H147.9C147.6 105 147.3 105.5 147 106C146.7 106.4 146.5 107 146.3 107.5C146.1 108.1 145.9 108.7 145.8 109.3H140.3V94.3H150.5C150.5 95.6 150.7 96.7 151 97.6C151.3 98.5 151.7 99.3 152 99.9C152.5 100.6 153 101.2 153.6 101.7H155V93.1H129.5V93.8L132.4 94.5V124.9L129.6 125.6V126.3H156V117.7L154.6 117.9Z" fill="#001D3F"/>
<path d="M180.7 110.1C179.5 109.1 178.1 108.2 176.6 107.5C175.1 106.7 173.8 105.9 172.5 105.1C171.3 104.3 170.2 103.4 169.4 102.4C168.6 101.4 168.1 100.3 168.1 98.9C168.1 98.1 168.2 97.4 168.5 96.8C168.8 96.1 169.1 95.6 169.5 95.1C169.9 94.6 170.4 94.3 170.9 94C171.4 93.8 172 93.6 172.6 93.6C174.2 93.6 175.5 94 176.6 94.9C177.7 95.8 178.6 96.7 179.3 97.8C180.1 99 180.7 100.4 181.2 101.9H183.1V92.9H181.9C181.6 93.1 181.3 93.3 181 93.6C180.7 93.8 180.5 94.1 180.2 94.4C179.9 94.7 179.6 95.1 179.4 95.5C178.8 94.9 178.1 94.4 177.3 94C176.6 93.6 175.8 93.3 174.9 92.9C174 92.6 172.9 92.4 171.8 92.4C169.8 92.4 168.1 92.6 166.7 93.1C165.2 93.5 164 94.2 163.1 94.9C162.1 95.7 161.4 96.5 160.9 97.5C160.4 98.5 160.2 99.6 160.2 100.7C160.2 102.6 160.6 104.2 161.5 105.6C162.3 106.9 163.4 108.1 164.6 109.1C165.8 110.1 167.2 111 168.7 111.8C170.2 112.6 171.5 113.4 172.8 114.2C174 115 175.1 115.8 175.9 116.7C176.7 117.6 177.2 118.7 177.2 119.9C177.2 121.7 176.7 123.2 175.6 124.2C174.5 125.3 173.1 125.8 171.3 125.8C170.4 125.8 169.5 125.7 168.8 125.4C168 125.2 167.3 124.9 166.7 124.5C166.1 124.1 165.5 123.7 165.1 123.2C164.6 122.7 164.2 122.2 163.8 121.7C162.9 120.5 162.3 119.1 161.8 117.5H159.9V126.5H161.1C161.4 126.3 161.7 126.1 162.1 125.8C162.3 125.6 162.6 125.3 162.9 125C163.2 124.7 163.5 124.3 163.7 123.9C164.3 124.5 165.1 125 165.9 125.5C166.6 125.9 167.5 126.2 168.6 126.5C169.6 126.8 170.9 127 172.3 127C174.5 127 176.4 126.7 178.1 126.2C179.8 125.7 181.1 125 182.2 124.2C183.3 123.3 184.1 122.3 184.6 121.2C185.1 120.1 185.4 118.9 185.4 117.7C185.4 116 185 114.5 184.1 113.2C182.9 112.2 181.9 111.1 180.7 110.1Z" fill="#001D3F"/>
<path d="M213.6 120.3C213.1 121.4 212.5 122.3 211.6 123.2C210.8 124 209.8 124.7 208.8 125.2C207.8 125.7 206.7 125.9 205.5 125.9C204.3 125.9 203.1 125.6 202 125.1C200.9 124.6 200 123.7 199.2 122.4C198.4 121.1 197.8 119.5 197.3 117.4C196.8 115.3 196.6 112.8 196.6 109.6C196.6 106.5 196.8 103.9 197.2 101.9C197.6 99.8 198.2 98.2 198.9 96.9C199.6 95.7 200.4 94.8 201.3 94.2C202.2 93.7 203.2 93.4 204.1 93.4C205.7 93.4 207 93.8 208.1 94.7C209.2 95.6 210.1 96.5 210.8 97.6C211.6 98.8 212.2 100.2 212.7 101.7H214.6V92.7H213.4C213.1 92.9 212.8 93.1 212.5 93.4C212.2 93.6 212 93.9 211.7 94.2C211.4 94.5 211.1 94.9 210.9 95.3C210.3 94.7 209.6 94.2 208.8 93.8C208.1 93.4 207.3 93.1 206.4 92.7C205.5 92.4 204.4 92.2 203.3 92.2C201.1 92.2 199.1 92.6 197.2 93.4C195.4 94.2 193.8 95.3 192.4 96.8C191.1 98.3 190 100.1 189.3 102.3C188.6 104.5 188.2 106.9 188.2 109.7C188.2 112.5 188.6 115 189.3 117.1C190.1 119.3 191.1 121.1 192.5 122.5C193.9 124 195.6 125.1 197.6 125.8C199.6 126.6 201.9 126.9 204.4 126.9C206 126.9 207.4 126.6 208.7 126.1C210 125.5 211.2 124.8 212.2 123.9C213.2 123 214 121.9 214.5 120.6C215.1 119.4 215.3 118.1 215.3 116.7H214.1C214.3 118.1 214.1 119.2 213.6 120.3Z" fill="#001D3F"/>
<path d="M248.1 102.3C247.4 100.1 246.3 98.3 244.9 96.9C243.5 95.4 241.9 94.3 240 93.6C238.1 92.8 236 92.5 233.7 92.5C231.4 92.5 229.3 92.9 227.4 93.7C225.5 94.5 223.9 95.6 222.5 97.1C221.2 98.6 220.1 100.4 219.4 102.5C218.7 104.7 218.3 107.1 218.3 109.9C218.3 112.7 218.7 115.2 219.4 117.3C220.2 119.5 221.2 121.3 222.6 122.7C224 124.2 225.6 125.3 227.5 126C229.4 126.8 231.5 127.1 233.8 127.1C236.1 127.1 238.2 126.7 240.1 126C242 125.2 243.6 124.1 245 122.6C246.3 121.1 247.4 119.3 248.1 117.2C248.8 115 249.2 112.6 249.2 109.8C249.2 106.9 248.9 104.4 248.1 102.3ZM240.3 117.6C239.9 119.7 239.3 121.4 238.6 122.7C237.9 124 237.2 124.9 236.3 125.4C235.4 125.9 234.6 126.2 233.8 126.2C233 126.2 232.1 125.9 231.3 125.4C230.4 124.9 229.7 124 229 122.7C228.3 121.4 227.8 119.7 227.3 117.6C226.9 115.5 226.6 112.9 226.6 109.7C226.6 106.6 226.8 103.9 227.2 101.8C227.6 99.7 228.2 98 228.9 96.7C229.6 95.4 230.4 94.5 231.2 94C232.1 93.5 232.9 93.2 233.7 93.2C234.5 93.2 235.4 93.5 236.2 94C237.1 94.5 237.8 95.4 238.5 96.7C239.2 98 239.7 99.7 240.2 101.8C240.6 103.9 240.9 106.5 240.9 109.7C240.9 112.8 240.7 115.5 240.3 117.6Z" fill="#001D3F"/>
<path d="M57.4 169.6C56.3 168.8 54.5 168.4 52.8 168.9C51.6 169.3 50.5 170.1 49.6 171.3C48.8 172.5 48.4 173.8 48.5 175.1C48.6 177.2 49.8 178.6 50.7 179.2C51.6 179.8 53.3 180.5 55.3 179.8C56.5 179.4 57.6 178.7 58.5 177.4C59.3 176.2 59.7 174.8 59.6 173.6C59.6 171.9 58.6 170.4 57.4 169.6ZM58.2 173.5C57.9 174.4 57.4 175.3 56.7 176.2C56 177.2 55.4 178 54.7 178.5C53.3 179.6 51.8 179.5 50.9 178.9C50.1 178.3 49.4 177 49.9 175.2C50.2 174.3 50.7 173.4 51.4 172.5C52.1 171.5 52.7 170.7 53.4 170.2C54.8 169.1 56.3 169.3 57.2 169.9C58.1 170.5 58.7 171.8 58.2 173.5Z" fill="#001D3F"/>
<path d="M71.7001 178.5L72.9001 179.1L73.1001 178.8L62.8001 173.5L62.6001 173.8L63.8001 174.4L58.9001 183.8L57.7001 183.2L57.6001 183.5L61.5001 185.5L61.7001 185.2L60.6001 184.7L65.5001 175.3L70.0001 177.6L65.1001 187L64.0001 186.5L63.9001 186.8L67.8001 188.8L68.0001 188.5L66.8001 187.9L71.7001 178.5Z" fill="#001D3F"/>
<path d="M83.5001 182.8L83.4001 183.2L84.6001 183.6L81.0001 193.6L79.7001 193.1L79.6001 193.4L83.8001 195L83.9001 194.6L82.8001 194.2L86.4001 184.3L87.6001 184.7L87.7001 184.4L83.5001 182.8Z" fill="#001D3F"/>
<path d="M79.6 187.6C78.9 186.5 77.6 186 76.7 185.7L75.3 185.2L76.9 180.8L78.1 181.3L78.2 181L73.9 179.4L73.8 179.7L75 180.2L71.3 190.1L70.1 189.6L70 189.9L74.6 191.6C75.7 192 77.1 192.5 78.4 191.9C79 191.6 79.5 191 79.8 190.2C80.1 189.4 80.2 188.5 79.6 187.6ZM78 189.1L77.5 190.3C77.3 190.7 77.1 191.1 76.8 191.3C76.5 191.5 76 191.7 75.2 191.4L73.3 190.7L75.2 185.5L76.6 186C77.4 186.3 78.1 186.7 78.3 187.5C78.3 188 78.1 188.6 78 189.1Z" fill="#001D3F"/>
<path d="M87.6001 187.9L88.1001 188C88.3001 187.5 88.7001 186.6 89.3001 186.1C89.7001 185.7 90.3001 185.5 91.2001 185.5C91.5001 185.5 92.1001 185.7 92.5001 185.7L89.9001 196L88.6001 195.7L88.5001 196L92.9001 197.1L93.0001 196.8L91.7001 196.5L94.3001 186.2C95.2001 186.4 95.5001 186.5 95.7001 186.6C96.3001 186.9 96.7001 187.4 96.9001 187.9C97.2001 188.7 97.1001 189.8 97.0001 190.1L97.5001 190.2L98.3001 186.7L88.6001 184.3L87.6001 187.9Z" fill="#001D3F"/>
<path d="M110.5 189.1C110.3 189.1 110 188.9 109.5 188.7C109.1 188.5 108.7 188.4 108.2 188.3C107.1 188.1 105.3 188.3 103.8 190.1C102.9 191.1 102.5 192.3 102.4 193.5C102.2 195 102.4 196.2 102.8 197.2C103.5 198.8 105 199.7 106.2 199.8C107 199.9 107.6 199.8 108.3 199.6C108.7 199.5 109 199.3 109.3 199.3C109.8 199.4 109.8 199.9 109.8 200.1L110.2 200.2L110.8 196.5H110.4C110.2 197.2 109.9 197.9 109.4 198.5C108.7 199.3 107.5 199.8 106.5 199.7C105.9 199.6 105.2 199.2 104.9 198.7C104.1 197.7 104.2 196.4 104.3 195.5L104.7 192.7C104.8 192 105.1 190.4 106 189.5C106.4 189.1 107.1 188.6 108.3 188.8C109.2 188.9 109.9 189.5 110.3 190.1C110.6 190.7 110.7 192 110.7 192.5H111L111.5 188.9L111.1 188.8C111 189 110.8 189.2 110.5 189.1Z" fill="#001D3F"/>
<path d="M117.2 194.4L115.7 194.3L115.9 189.6L117.2 189.7V189.4L112.6 189.2V189.5L113.9 189.6L113.4 200.2L112.1 200.1V200.4L117 200.6C118.2 200.7 119.7 200.7 120.7 199.8C121.2 199.4 121.5 198.6 121.5 197.7C121.5 196.9 121.3 196 120.4 195.3C119.6 194.5 118.2 194.4 117.2 194.4ZM119.4 198.5C119.4 199 119.2 199.4 119 199.7C118.8 200 118.3 200.3 117.5 200.3L115.4 200.2L115.6 194.6L117.1 194.7C118 194.7 118.7 194.9 119.1 195.6C119.4 196 119.4 196.6 119.3 197.2L119.4 198.5Z" fill="#001D3F"/>
<path d="M122.9 189.9L124.2 190L123.7 200.6L122.4 200.5V200.9L126.9 201.1V200.7H125.7L126.1 190.1H127.3L127.4 189.8L122.9 189.6V189.9Z" fill="#001D3F"/>
<path d="M133.4 189.5L128.4 189.7V190L129.7 189.9L130.2 200.5L128.9 200.6V200.9L133.5 200.7V200.4L132.2 200.5L132 196.4L133.7 196.3C135.1 196.2 136.4 195.9 137.2 195.1C137.5 194.8 138.1 194 138 192.7C138 192.2 137.8 191.2 136.9 190.4C135.9 189.5 134.6 189.4 133.4 189.5ZM134.9 195.5C134.4 195.9 133.4 196 133.1 196H132L131.7 189.9L132.9 189.8C133.5 189.8 134.3 189.8 134.9 190.3C135.7 190.9 135.7 191.8 135.7 192.2L135.8 193.5C135.8 194.1 135.6 195 134.9 195.5Z" fill="#001D3F"/>
<path d="M148.5 190C147.2 188.7 145.5 188.3 144.1 188.4C142.7 188.6 141.1 189.4 140.2 191C139.6 192.1 139.2 193.4 139.4 194.9C139.6 196.4 140.2 197.6 141.1 198.5C142.6 200 144.4 200.2 145.5 200.1C146.6 200 148.3 199.3 149.4 197.5C150 196.4 150.4 195.1 150.2 193.6C150.1 192.1 149.4 190.8 148.5 190ZM148.1 196.9C147.7 198.7 146.5 199.6 145.5 199.7C144.5 199.8 143.1 199.2 142.3 197.6C141.9 196.8 141.7 195.8 141.6 194.6C141.5 193.4 141.4 192.4 141.6 191.5C142 189.8 143.2 188.9 144.2 188.7C145.2 188.6 146.6 189.2 147.4 190.8C147.8 191.6 148 192.6 148.1 193.8C148.2 194.9 148.3 196 148.1 196.9Z" fill="#001D3F"/>
<path d="M160.8 196.8L158.7 186.4L160 186.1L159.9 185.8L151 187.6L151.1 187.9C151.6 187.8 152.1 187.7 152.5 188C152.8 188.2 152.9 188.6 153 188.9C153.2 190 153.4 191.9 153.5 192.8C153.8 196.2 153.7 197 153.6 197.5C153.4 198.2 153 198.4 152.5 198.5L151.8 198.6L152.3 202L152.8 201.9C152.8 201.4 152.9 200.7 153.1 200.1C153.5 199.1 154.3 198.4 155.2 198.3L158.7 197.6C159.5 197.4 160.1 197.4 160.9 197.8C161.8 198.3 162.4 199.1 162.7 199.9L163.2 199.8L162.4 196.5L160.8 196.8ZM153.6 198.3C153.9 197.8 154 197.4 154 196.9C154.1 195.8 153.9 193.9 153.8 192.8C153.7 192.3 153.5 190.2 153.4 189.6C153.4 189.2 153.2 188.3 153.6 187.8C153.9 187.4 154.6 187.2 155.4 187.1L156.9 186.8L159 197.2L153.6 198.3Z" fill="#001D3F"/>
<path d="M171.5 190.5C171.6 191.6 171.6 192.2 171.4 192.7C171 193.9 169.8 194.3 169.6 194.4L167.2 195.1L165.6 189.8L166.3 189.6C166.8 189.5 167.5 189.4 168 190.1C168.2 190.4 168.5 191 168.6 191.2L168.9 191.1L167.6 186.8L167.3 186.9C167.4 187.2 167.4 187.7 167.4 188.1C167.3 189.1 166.5 189.3 166.1 189.4L165.5 189.6L164.2 185.1L166.3 184.5C167.3 184.2 168 184.3 168.7 184.9C169.1 185.2 169.6 185.9 169.9 186.5L170.3 186.4L169.2 183.3L161.1 185.7L161.2 186L162.5 185.6L165.5 195.8L164.2 196.2L164.3 196.5L172.7 194L172.1 190.5H171.5Z" fill="#001D3F"/>
<path d="M183.2 189.5L179.3 179.6L180.5 179.1L180.4 178.8L171.7 182.2L171.8 182.5L172.2 182.3C172.4 182.2 173 182 173.5 182.3C173.9 182.5 174.1 183 174.2 183.3C174.6 184.2 174.3 183.5 175.5 186.7L176.5 189.3C176.8 190.1 177 190.6 177 191.1C177 191.7 176.7 192 176.4 192.1C176 192.2 175.9 192.1 175.8 191.9C175.8 191.8 175.8 191.6 175.9 191.4C176 191.1 175.9 190.8 175.8 190.6C175.6 190.1 175.1 189.9 174.5 190.1C173.8 190.4 173.6 191.1 173.8 191.7C174 192.3 174.5 192.5 174.9 192.6C175.3 192.7 175.8 192.6 176.3 192.4C176.6 192.3 177.3 191.9 177.3 191C177.3 190.4 177.1 189.8 176.8 189L175.8 186.4C175 184.3 174.7 183.4 174.5 182.7C174.4 182.4 174.3 181.9 174.5 181.5C174.7 181 175.3 180.8 175.6 180.7L177.4 180L181.3 189.9L180.1 190.4L180.2 190.7L184.5 189L184.4 188.7L183.2 189.5Z" fill="#001D3F"/>
<path d="M194.4 182.1C194.6 180.9 194.4 179.5 193.8 178.2C193.1 176.9 192.1 176 190.9 175.5C189.3 174.8 187.5 175 186.2 175.6C185 176.3 183.8 177.6 183.5 179.4C183.3 180.6 183.5 182 184.1 183.3C184.8 184.6 185.8 185.5 187 186C188.9 186.9 190.7 186.4 191.7 185.9C192.6 185.4 194 184.2 194.4 182.1ZM191.5 185.6C190.6 186.1 189.1 186 187.8 184.8C187.1 184.2 186.6 183.3 186 182.3C185.5 181.3 185 180.3 184.9 179.4C184.6 177.6 185.4 176.4 186.3 175.9C187.2 175.4 188.7 175.5 190 176.7C190.7 177.3 191.2 178.2 191.8 179.2C192.3 180.2 192.8 181.2 192.9 182.1C193.2 183.9 192.4 185.1 191.5 185.6Z" fill="#001D3F"/>
<path d="M205.2 176.1C205.4 175.5 205.3 174.7 204.8 173.9C204.5 173.5 203.8 172.7 202.2 172.9C201.4 173 200.5 173.4 199.8 173.7V173.6C200.4 173.1 201 172.4 201.3 171.7C201.6 171 201.7 170.3 201.2 169.6C200.7 168.9 200 168.6 199.3 168.6C198.8 168.6 197.8 168.8 196.4 169.8L192.1 172.8L192.3 173.1L193.4 172.3L199.4 181L198.3 181.8L198.5 182.1L203 179C203.9 178.1 204.9 177.2 205.2 176.1ZM194.9 171.1L196.1 170.3C196.6 170 197.3 169.5 198 169.7C198.6 169.8 199.1 170.5 199.3 170.8C199.5 171.1 200 171.8 199.8 172.6C199.7 173.2 199.1 173.9 198.5 174.3L197.5 175L194.9 171.1ZM203.6 177.4C203.4 177.9 202.9 178.4 202.5 178.7L200.9 179.8L197.7 175.2L198.8 174.4C199.4 174 200.2 173.7 200.9 173.7C201.8 173.8 202.3 174.2 202.8 175C203.8 176.2 203.7 177 203.6 177.4Z" fill="#001D3F"/>
<path d="M27.8 164.5C29.9 166.4 30.9 167.3 33 169.2C36.7 169 38.4001 168.6 41.4001 167.4C39.3001 165.5 38.3001 164.6 36.2001 162.7C33.3001 163.9 31.5 164.3 27.8 164.5Z" fill="#001D3F"/>
<path d="M43.0999 158.1C40.9999 156.2 39.9999 155.3 37.8999 153.4C38.0999 157.1 37.7999 158.9 36.8999 161.9C38.9999 163.8 39.9999 164.7 42.0999 166.6C43.0999 163.6 43.2999 161.8 43.0999 158.1Z" fill="#001D3F"/>
<path d="M33.9001 161.2C32.3001 158.9 31.4001 157.8 29.8001 155.5C27.5001 156.1 25.3001 156.1 21.6001 155.5C23.2001 157.8 24.1001 158.9 25.7001 161.2C29.4001 161.8 31.6001 161.8 33.9001 161.2Z" fill="#001D3F"/>
<path d="M36.8 152.4C35.1 150.1 34.3001 149 32.7001 146.7C32.1001 150.4 31 152 30.3 154.8C32 157.1 32.8001 158.2 34.4001 160.5C35.2001 157.7 36.2 156.1 36.8 152.4Z" fill="#001D3F"/>
<path d="M26.9001 142.9C25.8001 140.9 23.3001 140.2 21.3001 141.4C19.3001 142.5 18.6001 145.1 19.8001 147C20.9001 149 27.2001 151.6 27.2001 151.6C27.2001 151.6 28.0001 144.9 26.9001 142.9Z" fill="#001D3F"/>
<path d="M208.3 167.2C211.2 168.4 213 168.8 216.7 169C218.8 167.1 219.8 166.2 221.9 164.3C218.2 164.1 216.5 163.7 213.5 162.5C211.4 164.3 210.3 165.3 208.3 167.2Z" fill="#001D3F"/>
<path d="M211.7 153.1C209.6 155 208.6 155.9 206.5 157.8C206.3 161.5 206.6 163.3 207.5 166.3C209.6 164.4 210.6 163.5 212.7 161.6C211.8 158.6 211.6 156.8 211.7 153.1Z" fill="#001D3F"/>
<path d="M220.6 155.2C219 157.5 218.1 158.6 216.5 160.9C219.6 161.5 221.4 161.5 225.1 160.9C226.7 158.6 227.6 157.5 229.2 155.2C225.5 155.8 223.7 155.7 220.6 155.2Z" fill="#001D3F"/>
<path d="M219.7 154.5C218.2 151.7 217.6 150 217 146.4C215.4 148.7 214.5 149.8 212.9 152.1C213.5 155.8 214.1 157.4 215.6 160.2C217.2 158 218 156.8 219.7 154.5Z" fill="#001D3F"/>
<path d="M228.4 141C226.4 139.9 223.9 140.6 222.8 142.5C221.7 144.5 222.6 151.2 222.6 151.2C222.6 151.2 228.9 148.5 230 146.5C231 144.7 230.4 142.2 228.4 141Z" fill="#001D3F"/>
<path d="M61.3999 80.5C62.3999 80.5 63.4999 80.5 64.5999 80.5C64.5999 80.5 64.6999 80.5 64.6999 80.4C63.3999 80.4 62.1999 80.4 60.8999 80.4C61.0999 80.4 61.2999 80.5 61.3999 80.5Z" fill="#001D3F"/>
<path d="M179.2 63C175.5 64.4 171.5 65 168 67.2C167.3 67.2 166.6 67.3 166 67.4C166.2 67.8 166.5 68.2 166.7 68.6C173 66.5 179.1 63.9 185.5 62C190.7 60.5 195.9 58.8 200.8 56.6C202.1 56 203.5 55.5 204.9 55.1C206.7 54.5 208.6 53.9 210.4 53.3C210.2 52.9 210 52.5 209.8 52.2C206.4 53.4 203 54.5 199.7 55.8C192.9 58.4 186 60.5 179.2 63Z" fill="#001D3F"/>
<path d="M184.6 58.2C182.7 58.8 180.8 59.7 178.9 60.5C178.7 60.6 178.6 60.8 178.5 60.9C178.7 61 178.9 61.2 179.2 61.2C179.6 61.2 179.9 61.2 180.3 61.1C185.5 59.2 190.7 57.3 195.8 55.2C199.8 53.6 203.7 51.6 207.7 50C207.9 49.9 208.1 49.9 208.2 49.8C208 49.5 207.8 49.2 207.6 48.9C203.9 50.3 200 51.2 196.8 53.7C192.5 54.4 188.8 56.9 184.6 58.2Z" fill="#001D3F"/>
<path d="M194.5 46.9C189.4 49.6 184.8 53.3 178.9 54.4C178.3 54.5 177.8 54.9 177.3 55.3C177.1 55.5 177.1 55.9 177.1 56.3C177.1 56.4 177.5 56.6 177.7 56.6C178.1 56.6 178.5 56.7 178.8 56.5C182.7 54.6 186.9 53.2 190.5 50.8C194.7 48 199.3 45.9 203.8 43.7C203.5 43.4 203.2 43.1 202.9 42.7C201.8 43.2 200.7 43.8 199.5 44.2C197.7 44.9 196.1 46 194.5 46.9Z" fill="#001D3F"/>
<path d="M171.6 55.1C171.2 55.4 170.8 55.6 170.4 55.9C170.3 56 170.4 56.3 170.4 56.4C170.4 56.5 170.6 56.5 170.9 56.5C171.1 56.4 171.4 56.2 171.7 56C176.1 53.4 180.5 50.8 184.8 48.1C189 45.4 193.1 42.6 197.3 39.9C197.9 39.5 198.5 39.1 199.2 38.7C198.9 38.4 198.5 38.1 198.2 37.8C193.9 40.6 189.7 43.3 185.4 46.1C180.8 49.2 176.2 52.2 171.6 55.1Z" fill="#001D3F"/>
<path d="M56.9001 46.1C57.3001 46.2 57.8001 46 58.3001 45.9C58.0001 45.7 57.7001 45.4 57.3001 45.2C54.7001 43.9 52.1001 42.5 49.4001 41.2C49.1001 41.5 48.8001 41.8 48.6001 42.1C49.8001 42.6 50.9001 43.2 52.1001 43.9C53.5001 44.7 55.2001 45.4 56.9001 46.1Z" fill="#001D3F"/>
<path d="M188.6 47.5C188.4 47.6 188.4 47.9 188.3 48.1C188.6 48.1 189.1 48.3 189.3 48.2C193.3 45.8 197.2 43.3 201.2 41C201 40.8 200.7 40.5 200.5 40.3C200.2 40.4 200 40.6 199.8 40.7C197.3 42.1 194.6 43.4 192.1 44.8C190.9 45.6 189.8 46.6 188.6 47.5Z" fill="#001D3F"/>
<path d="M174.8 47C174.6 47.1 174.4 47.3 174.3 47.5C174.2 47.7 174.3 48 174.3 48.3C174.5 48.3 174.9 48.3 175 48.2C177.3 45.9 181 45.2 182.4 41.8C182.5 41.7 182.9 41.7 183.1 41.5C186.4 38.9 190.2 36.7 193.3 33.8C193 33.6 192.8 33.4 192.5 33.2C190.1 35 187.7 36.7 185.3 38.5C181.6 41.2 178.6 44.5 174.8 47Z" fill="#001D3F"/>
<path d="M95.4 47.4C95.3 47 95.4 46.5 95.1 46.2C92.2 43.4 89.3 40.6 86.4 37.8C86.4 37.5 86.4 37.3 86.4 37C86.2 35.9 86.4 34.6 85.8 33.9C84.2 31.7 82.3 29.8 80.5 27.8C79.3 26.4 78.2 24.9 77 23.6C76.9 23.5 76.8 23.4 76.8 23.4C76.4 23.6 76 23.8 75.5 23.9C76.9 25.5 78.3 27 79.8 28.6C80.5 29.3 81.4 29.9 81.2 31.1C80.8 30.8 80.4 30.6 80 30.3C78.1 28.4 76.1 26.5 74.2 24.5C73.9 24.6 73.5 24.8 73.2 24.9C75.9 27.6 78.6 30.3 81.3 33C81.6 33.3 82.2 33.2 82.7 33.3C83 33.8 83.2 34.3 83.5 34.8C83.5 35.1 83.5 35.3 83.5 35.6C84 35.9 84.5 36.1 85 36.4C85.2 36.6 85.5 36.9 85.8 37.2C86.1 37.5 86.3 37.7 86.6 37.9C86.6 38.4 86.6 38.9 86.6 39.4C86.9 39.7 87.1 39.9 87.4 40.2C87.2 40.2 86.9 40.2 86.6 40.2C86.6 40 86.6 39.7 86.6 39.4C86.4 39.4 86.1 39.4 85.9 39.4C85.7 39.2 85.4 38.9 85.2 38.6C84.7 38.1 84.2 37.6 83.7 37.1C82.5 36.3 80.9 35.7 80.2 34.6C79.5 33.3 78.1 33.4 77.6 32.2C75.1 31.9 73.9 29.9 72.3 28.4C71.6 27.8 71 27.1 70.4 26.5C70.1 26.7 69.8 26.8 69.5 27C73.8 31.1 78.2 35.2 82.4 39.4C83.7 40.7 85 41.3 86.7 41C86.8 42 87.6 41.7 88.2 41.8C88.5 42 88.7 42.3 89 42.5C89 42.4 89 42.2 89 42.1C89 42 89 41.9 89 41.8C88.8 41.8 88.5 41.8 88.2 41.8C88.2 41.5 88.2 41.3 88.2 41C88.4 41.2 88.7 41.5 89 41.8C89.2 42 89.5 42.3 89.8 42.6C89.5 42.6 89.3 42.6 89 42.6C88.9 43.5 89.1 44 89.8 44.1C90 44.1 90.3 44.1 90.5 44.1C90.5 43.9 90.5 43.6 90.5 43.3C90.7 43.6 91 43.8 91.3 44.1C92.8 45.4 94.3 46.6 95.8 47.9C95.4 47.5 95.4 47.5 95.4 47.4Z" fill="#001D3F"/>
<path d="M47.9001 45.3C53.5001 47.1 58.7001 50 64.1001 52.2C65.6001 52.9 67.1001 53.6 68.7001 54.3C68.9001 54.4 69.3001 54.1 69.6001 54C69.4001 53.8 69.3001 53.5 69.1001 53.4C67.4001 52.6 65.6001 51.9 63.9001 51.1C60.1001 49.3 56.4001 47.4 52.5001 45.8C50.7001 45.1 49.0001 43.8 46.9001 43.8C46.8001 43.9 46.7001 44 46.6001 44.1C47.1001 44.6 47.4001 45.1 47.9001 45.3Z" fill="#001D3F"/>
<path d="M102.6 42.4C103.7 43.8 104.5 45.2 106 46.1C106 45.6 106 45.1 106 44.6C105.3 44 104.4 43.4 103.8 42.6C102 40.2 100.3 37.6 98.5001 35.2C95.4001 31.2 92.2001 27.3 89.0001 23.4C88.1001 22.2 87.1001 21.1 86.1001 19.9C85.8001 20 85.4001 20.1 85.1001 20.2C86.7001 22.4 88.4001 24.6 90.1001 26.8C94.3001 32 98.5001 37.1 102.6 42.4Z" fill="#001D3F"/>
<path d="M75.5999 43.8C75.6999 43.9 76.1 43.8 76.3 43.7C76.4 43.7 76.4 43.3 76.3 43.2C76 42.8 75.6 42.4 75.2 42.1C70.5 38.9 65.7999 35.7 61.0999 32.4C60.8999 32.3 60.7 32.1 60.5 32C60.2 32.2 60 32.4 59.7 32.5C61.5 33.7 63.2 34.9 64.8 36.3C68.1 39.3 72.2999 40.9 75.5999 43.8Z" fill="#001D3F"/>
<path d="M179.2 35.2C179.7 35.3 180.1 35.4 180.6 35.5C179.4 36.8 178.3 38.1 177.2 39.4C177 39.6 177 40.1 176.9 40.4C177.2 40.4 177.5 40.4 177.7 40.3C181.4 37.1 185 33.9 188.6 30.7C188.3 30.5 187.9 30.3 187.6 30.1C186.2 31.3 184.9 32.5 183.5 33.7C182.8 34.3 182.3 35 181.3 34.8C181.7 34.1 182 33.2 182.5 32.6C183.6 31.5 184.9 30.6 186.1 29.5C186.2 29.4 186.2 29.4 186.3 29.3C185.9 29.1 185.6 28.9 185.2 28.6C183.3 30.4 181.5 32.2 179.6 34C179.5 34.3 179.4 34.8 179.2 35.2Z" fill="#001D3F"/>
<path d="M98.8 34C99.7 35.3 100.7 36.5 101.8 37.7C102 38 102.5 38 102.9 38.1C102.8 37.8 102.8 37.4 102.7 37.1C98.7 31.3 94.7 25.5 90.6 19.7C90.3 19.3 89.9 19.1 89.7 18.9C89.5 19 89.3 19 89.1 19.1C89 19.3 89 19.4 89 19.6C89.2 20.1 89.3 20.5 89.6 20.9C92.6 25.3 95.7 29.7 98.8 34Z" fill="#001D3F"/>
<path d="M188.1 33.3C185.5 35.3 182.8 37.3 180.2 39.3C179.8 39.6 179.6 40.3 179.3 40.9C179.2 41.1 179.3 41.4 179.4 41.4C179.6 41.5 180 41.5 180.1 41.4C180.6 41 181.1 40.5 181.5 40C183.7 37.5 187.1 36.3 188.8 33.3C189 33.3 189.4 33.4 189.5 33.3C189.9 33 190.4 32.6 190.8 32.3C190.6 32.2 190.4 32 190.2 31.9C189.7 32.4 189.2 32.8 188.7 33.3C188.6 33.3 188.3 33.2 188.1 33.3Z" fill="#001D3F"/>
<path d="M177.6 33.1C177.5 33.2 177.7 33.5 177.8 33.8C178 33.7 178.3 33.7 178.4 33.6C179.9 31.8 181.7 30.5 183.3 28.8C183.6 28.5 183.8 28.3 184.1 28C183.8 27.8 183.4 27.6 183.1 27.4C181.6 28.9 180.1 30.4 178.6 31.9C178.2 32.3 177.9 32.7 177.6 33.1Z" fill="#001D3F"/>
<path d="M92.3999 33.6C92.4999 33.7 92.7999 33.8 92.9999 33.8C92.9999 33.8 93.0999 33.6 93.1999 33.5C93.1999 33.3 93.1999 33 93.0999 32.8C89.9999 28.8 86.8999 24.7 83.7999 20.7C83.2999 20.9 82.7999 21 82.3999 21.2C85.0999 24.6 87.6999 28 90.3999 31.4C90.8999 32.2 91.6999 32.9 92.3999 33.6Z" fill="#001D3F"/>
<path d="M53.5 40.7C57.6 43 61.7 45.3 65.8 47.6C66 47.7 66.3 47.7 66.5 47.6C66.7 47.6 67 47.5 67.2 47.4C67.1 47.2 67 46.9 66.8 46.8C64.1 45.3 61.3 43.7 58.5 42.3C56.8 41.4 55 40.8 53.2 40C52.8 39.4 52.6 38.8 52.5 38.1C52 38.6 51.5 39 51 39.5C51.7 39.9 52.5 40 53.3 40C53.3 40.3 53.4 40.6 53.5 40.7Z" fill="#001D3F"/>
<path d="M59.5 55.9C60 56.1 60.7 55.8 61.3 55.7C60.9 55.4 60.5 55 60 54.8C57.5 53.9 55 52.9 52.5 52.1C49.3 51.1 46.2 49.9 43.1 48.8C42.9 49.1 42.7 49.4 42.5 49.8C46.4 51.2 50.2 52.7 54 54.1C55.8 54.7 57.6 55.3 59.5 55.9Z" fill="#001D3F"/>
<path d="M204.2 66.7C200.8 68.4 196.8 67.8 193.4 69.4C187.9 69.7 182.7 71.6 177.4 72.4C176.8 72.5 176.3 72.9 175.8 73.2C175.7 73.3 175.6 73.5 175.6 73.5C175.8 73.6 175.9 73.7 176.1 73.9C176.3 73.8 176.5 73.7 176.8 73.7C178.4 73.3 180 72.8 181.7 72.5C183.7 72.1 185.9 72.2 187.8 71.6C192.3 70.2 197.1 70.1 201.6 68.8C204.7 67.9 207.9 67.2 211.1 66.7C212.5 66.5 213.7 66 215 65.6C214.9 65.2 214.8 64.8 214.7 64.4C212.8 64.8 210.9 65.1 209.2 65.9C207.5 66.6 205.7 65.9 204.2 66.7Z" fill="#001D3F"/>
<path d="M215.8 77.1C215.3 77.1 214.8 77 214.1 77C214.8 76.4 215.5 75.8 216.1 75.2C216.1 74.2 216 73.1 216 72.1C215.1 72.9 214 73.4 213 74C212.4 72.5 210.8 73.1 210.1 73.4C208.3 74.2 206.5 73.9 204.6 74C202.3 74.1 199.9 74.5 197.7 74.9C194.6 75.5 191.4 75.4 188.3 76.2C186.3 76.7 184.2 76.8 182.1 76.9C178.4 76.9 174.4 77 170.3 77C172.4 76.7 174.6 76.3 176.7 76C180.6 75.5 184.6 75.3 188.5 74C190.7 73.3 193.1 73.4 195.4 73.1C196.2 73 197 72.8 197.9 72.6C201.1 72 204.3 71.4 207.5 70.9C210.2 70.5 212.8 70.2 215.5 69.7C215.4 69.2 215.3 68.6 215.2 68.1C214.5 68.2 213.8 68.3 213.1 68.6C208.1 70.2 202.8 70 197.8 71.6C195.7 72.3 193.4 72.1 191.3 72.5C189 72.9 186.8 73.4 184.6 73.8C182.9 74.2 181.3 74 179.5 74.6C177.2 75.3 174.6 75 172.3 75.6C170.9 75.9 169.4 76.1 168 76.3C168.1 76.2 168.2 76.2 168.4 76.1C168.5 76.1 168.5 76 168.6 75.9C168.7 75.8 168.8 75.8 168.9 75.7L169 75.5C169 75.4 169.1 75.3 169.1 75.2C169.2 75 169.2 74.9 169.2 74.8L168.5 74.7C168.6 74.3 168.5 73.9 168.3 73.5C168.3 73.4 168.2 73.2 168.1 73.1C172.4 72.1 176.6 70.8 181 70C184.8 69.3 188.4 67.9 192.1 67C197 65.7 201.9 64.5 206.8 63.3C207 63.2 207.4 63.4 207.5 63.3C209.4 62 211.5 61.8 213.6 61.4C213.5 61 213.3 60.5 213.2 60.1C211.8 60.5 210.4 60.8 208.9 61.2C205.5 62.1 202.2 63.3 198.9 64.1C191.4 66.1 184 67.9 176.5 69.8C173.6 70.6 170.7 71.3 167.8 72.1C167.8 72.1 167.7 72.1 167.6 72.1C167.6 72.1 167.6 72.1 167.5 72.1C167.2 71.4 166.9 70.6 166.5 69.8C166.5 69.7 166.4 69.5 166.4 69.5C166.4 69.5 166.4 69.5 166.3 69.5C166.2 69.3 166.1 69 166 68.7C165.8 68.3 165.6 67.9 165.5 67.4C165.3 67 165.2 66.7 165 66.3C164.8 65.9 164.6 65.5 164.5 65.1C166.9 64 169.3 62.8 171.8 61.7C174.5 60.4 177.3 59.3 180.1 58.1C184.8 56.1 189.6 54.5 194 51.9C197.3 50 201 49.1 204.1 46.9C204.6 46.7 205.2 46.5 205.7 46.4C205.5 46.1 205.2 45.8 204.9 45.5C203 46.3 201.2 47.1 199.3 47.9C197.3 48.8 195.6 50.3 193.6 51.1C189.4 52.7 185.4 54.8 181.3 56.5C175.5 58.9 169.7 61.3 164 64.1C163.6 63.2 163.2 62.4 162.9 61.6C162.7 61.2 162.5 60.7 162.3 60.3C161.9 59.4 161.5 58.7 161.2 58.2C161 57.9 160.8 57.5 160.6 57.1C162.2 55.7 164.3 53.7 166.7 51.2C167.4 50.4 168.2 49.7 169 48.8C170 47.7 170.9 46.7 171.7 45.6C175.5 40.6 177 35.6 176.8 31C178.2 29.5 179.6 27.9 181 26.4C180.7 26.2 180.4 26.1 180.1 25.9C179 27.1 177.8 28.4 176.7 29.6C176.5 28.1 176.1 26.6 175.5 25.3C175.3 24.9 175.2 24.6 175 24.3C174.8 24 174.6 23.6 174.3 23.3C171.5 19.6 166.1 17.8 161.4 18.9C159.3 19.4 157.4 20.5 155.9 22.3C154.9 23.5 154.2 24.8 153.8 26C153.7 26.5 153.6 27 153.4 27.5C153.3 28 153.3 28.4 153.3 28.9C153.3 31.9 155 34.2 156.8 34.6H156.9C157.2 34.7 157.6 34.7 157.9 34.6C158 34.6 158.2 34.5 158.3 34.5C158.7 34.3 158.9 34 159 33.2C159.1 32.6 159.2 31.7 159.1 30.4C159.1 29.7 159.1 28.8 159 27.8C158.8 24.7 160.3 23.4 162.3 23C162.7 22.9 163 22.9 163.4 22.9C164.8 22.9 166.4 23.2 167.9 23.7C168.3 23.8 168.6 24 168.9 24.2C169.3 24.4 169.6 24.6 170 24.9C170.5 25.3 171 25.8 171.4 26.3C171.7 26.7 171.9 27.1 172.2 27.6C173.2 29.7 173.4 32.7 172.5 36.8C172.2 38 171.7 39.2 171.2 40.3C168.3 43.2 165.4 46.1 162.5 49C162.3 49.2 162.1 49.6 162 49.9V50C161.1 50.6 160.3 51.2 159.6 51.7C159.4 51.9 159.1 52 158.9 52.2C158.5 52.5 158.1 52.8 157.8 53.1C157.2 52.2 156.6 51.3 156 50.6C155.7 50.2 155.3 49.9 155 49.6C154.9 49.5 154.8 49.4 154.7 49.3L154.2 48.5C154.1 48.6 154 48.6 153.9 48.8C153.6 48.6 153.3 48.5 153.1 48.4C152.3 48.2 152.1 48.5 152.1 48.5C152.3 48.4 152.6 48.5 153 48.7C153.2 48.8 153.4 49 153.7 49.2C153.6 49.3 153.6 49.4 153.5 49.5C153.4 49.7 153.3 49.9 153.3 50C153.3 50.1 153.2 50.3 153 50.4C152.8 50.5 152.7 50.7 152.8 50.8C152.8 50.9 152.9 51 153.1 51.1C153.2 51.1 153.3 51.2 153.5 51.2C153.6 51.2 153.7 51.2 153.8 51.2C153.9 51.2 154 51.1 154.1 51.1C154.2 51.1 154.2 51 154.3 51L154.4 50.9C154.5 50.8 154.6 50.8 154.6 50.7L154.7 50.6C154.8 50.5 154.8 50.5 154.9 50.5C155.1 50.8 155.4 51.1 155.6 51.4C155.5 51.4 155.6 51.5 155.6 51.5H155.5C155.5 51.5 155.4 51.5 155.4 51.6C155.3 51.7 155.2 51.8 155.1 51.8L155 51.9C154.8 52 154.6 52.2 154.5 52.4C154.3 52.6 154.2 52.7 154.1 52.8C154.1 52.9 153.9 53.1 153.8 53.2C153.6 53.3 153.5 53.4 153.5 53.5C153.5 53.6 153.6 53.7 153.8 53.8C153.8 53.8 154 53.8 154.1 53.9C154.2 53.9 154.2 53.9 154.2 53.9H154.3C154.4 53.9 154.5 53.9 154.7 53.9C154.8 53.9 155 53.8 155.1 53.8C155.3 53.8 155.4 53.7 155.5 53.6C155.6 53.5 155.7 53.4 155.8 53.4C156 53.3 156.1 53.2 156.2 53.2C156.3 53.2 156.4 53.1 156.5 53C156.7 53.3 156.8 53.7 157.1 54.1C157 54.1 156.8 54.1 156.8 54.1C156.7 54.1 156.8 54.2 156.8 54.2H156.7L156.6 54.3C156.5 54.4 156.3 54.5 156.2 54.6L156.1 54.7C155.8 54.9 155.5 55 155.3 55.2C155 55.4 154.8 55.5 154.6 55.6C154.5 55.7 154.4 55.8 154.2 55.9C154 56 153.9 56.1 153.9 56.2C153.9 56.3 154 56.4 154.1 56.5C154.2 56.6 154.3 56.6 154.6 56.6H154.7C154.8 56.6 155 56.6 155.1 56.6C155.3 56.6 155.5 56.5 155.7 56.5C155.9 56.5 156 56.4 156.1 56.4C156.2 56.4 156.2 56.4 156.3 56.3C156.5 56.2 156.6 56.1 156.8 56.1C156.8 56.1 156.8 56.1 156.9 56.1C157.1 56 157.3 55.9 157.4 55.8C157.5 55.7 157.6 55.7 157.7 55.6C157.7 55.6 157.8 55.6 157.8 55.5C157.8 55.5 157.9 55.5 157.9 55.4C158.1 55.8 158.3 56.2 158.6 56.6C158.5 56.6 158.4 56.6 158.4 56.6C158.4 56.6 158.5 56.7 158.4 56.7H158.3C158.3 56.7 158.2 56.8 158.1 56.8C157.9 56.9 157.8 57 157.6 57.1C157.5 57.1 157.5 57.2 157.4 57.2C157 57.4 156.7 57.6 156.3 57.7C156.2 57.8 156.1 57.8 156 57.8C156 57.8 155.9 57.8 155.9 57.9C155.7 58 155.5 58.1 155.3 58.1C155.2 58.2 155.1 58.3 154.9 58.4C154.7 58.5 154.6 58.6 154.6 58.7C154.6 58.8 154.6 58.9 154.8 58.9C154.8 58.9 154.9 59 155.1 59C155.2 59 155.3 59 155.4 59.1C155.5 59.1 155.5 59.1 155.6 59.1C155.7 59.1 155.9 59.1 156 59.1H156.1C156.3 59.1 156.5 59 156.8 59C157.1 59 157.3 58.9 157.5 58.8C157.7 58.7 157.9 58.7 158.1 58.6H158.2C158.5 58.5 158.7 58.4 158.9 58.3C159 58.2 159.2 58.2 159.3 58.1C159.3 58.1 159.4 58.1 159.4 58C159.5 58.1 159.5 58.2 159.6 58.3C159.6 58.3 159.6 58.3 159.6 58.4C159.7 58.7 159.9 58.9 160 59.2C159.9 59.2 159.9 59.2 159.8 59.2L159.9 59.3C159.8 59.3 159.8 59.3 159.7 59.2C159.7 59.2 159.6 59.3 159.5 59.3C159.5 59.3 159.5 59.3 159.4 59.3C159.2 59.4 159 59.5 158.8 59.6C158.7 59.6 158.7 59.7 158.6 59.7C158.2 59.9 157.7 60.1 157.3 60.3C156.8 60.5 156.3 60.7 156 60.7C155.9 60.8 155.7 60.9 155.5 61C155.3 61.1 155.2 61.2 155.2 61.3C155.2 61.4 155.2 61.5 155.3 61.5C155.3 61.6 155.6 61.7 156 61.7C156.1 61.7 156.1 61.7 156.2 61.7C156.4 61.7 156.6 61.7 156.8 61.7C157.1 61.7 157.3 61.6 157.6 61.6C157.9 61.6 158.2 61.5 158.5 61.4C158.7 61.3 158.9 61.3 159.1 61.2H159.3C159.6 61.1 159.9 61 160.1 60.9C160.3 60.8 160.4 60.8 160.6 60.7C160.6 60.7 160.6 60.7 160.7 60.7C160.9 61.1 161.1 61.5 161.4 61.9C161.3 61.9 161.3 61.9 161.2 61.9L161.3 62C161.3 62 161.2 62 161.2 61.9C161.2 61.9 161.1 62 161 62C160.8 62.1 160.5 62.2 160.2 62.4C160.1 62.4 160 62.5 159.9 62.5C159.6 62.6 159.3 62.7 159 62.8C158.8 62.9 158.5 63 158.3 63C157.7 63.2 157.1 63.4 156.7 63.5C156.6 63.6 156.4 63.7 156.2 63.8C156 63.9 155.9 64 155.8 64C155.8 64.1 155.8 64.1 155.9 64.2C155.9 64.3 156.2 64.4 156.7 64.4C156.8 64.4 156.8 64.4 156.9 64.4C157.1 64.4 157.3 64.4 157.6 64.4C157.9 64.4 158.2 64.3 158.5 64.3H158.6C158.9 64.3 159.2 64.2 159.5 64.1C159.8 64 160.1 64 160.4 63.9H160.5C160.9 63.8 161.2 63.7 161.5 63.6C161.7 63.5 161.8 63.5 162 63.3C162 63.3 162 63.3 162.1 63.2C162.3 63.6 162.5 64 162.8 64.4C162.7 64.4 162.6 64.4 162.6 64.4C162.7 64.4 162.7 64.5 162.7 64.5C162.7 64.5 162.6 64.5 162.6 64.4C162.5 64.4 162.5 64.4 162.5 64.4C162.5 64.4 162.4 64.5 162.3 64.6C162.1 64.7 161.7 64.8 161.4 65C161.3 65 161.2 65.1 161.1 65.1C160.5 65.3 159.8 65.5 159.2 65.7C158.9 65.8 158.6 65.9 158.3 65.9C157.9 66 157.6 66.1 157.3 66.1C157.1 66.2 156.9 66.3 156.7 66.3C156.5 66.4 156.4 66.4 156.3 66.5C156.2 66.6 156.3 66.6 156.3 66.7C156.3 66.8 156.6 66.9 157.2 67C157.3 67 157.3 67 157.4 67C157.6 67 157.8 67 157.9 67C158 67 158.1 67 158.1 67C158.3 67 158.4 67 158.6 67C158.8 67 159 67 159.1 67C159.5 67 159.9 66.9 160.3 66.8C160.7 66.7 161 66.7 161.3 66.6C161.4 66.6 161.4 66.6 161.4 66.6C161.8 66.5 162.2 66.4 162.5 66.2C162.7 66.1 162.9 66 163.1 65.9L163.2 65.8C163.2 65.9 163.2 65.9 163.3 65.9C163.5 66.4 163.7 66.8 163.9 67.1C163.8 67.1 163.7 67.1 163.7 67.1L163.8 67.2C163.8 67.2 163.8 67.2 163.7 67.1C163.6 67.1 163.5 67.1 163.5 67.1C163.5 67.1 163.5 67.1 163.5 67C163.5 67 163.3 67.1 163.2 67.2C162.9 67.3 162.6 67.5 162.2 67.6C162.1 67.6 162 67.7 161.9 67.7C161.2 67.9 160.5 68.2 159.7 68.3C158.9 68.5 158.1 68.7 157.5 68.8C157.4 68.8 157.3 68.9 157.1 68.9C157 68.9 156.9 69 156.9 69C156.7 69.1 156.6 69.1 156.5 69.2C156.4 69.3 156.4 69.3 156.5 69.4C156.5 69.5 156.7 69.5 156.9 69.6C157 69.6 157.2 69.7 157.4 69.7C157.5 69.7 157.6 69.7 157.6 69.7C157.9 69.7 158.2 69.7 158.5 69.7C158.9 69.7 159.2 69.7 159.6 69.6C160.1 69.6 160.5 69.5 161 69.4C161.4 69.3 161.8 69.2 162.2 69.2C162.3 69.2 162.3 69.2 162.4 69.2C162.9 69.1 163.3 69 163.7 68.8C163.9 68.7 164.1 68.6 164.4 68.5C164.4 68.5 164.4 68.5 164.5 68.5C164.6 68.8 164.8 69.1 164.9 69.4C164.9 69.5 165 69.7 165.1 69.8C165 69.8 165 69.7 164.9 69.6C164.8 69.6 164.8 69.5 164.9 69.6C164.9 69.6 164.7 69.7 164.6 69.8C164.3 69.9 163.9 70.1 163.5 70.2C163.4 70.2 163.2 70.3 163.1 70.3C162.3 70.5 161.5 70.8 160.7 71C160 71.2 159.4 71.3 158.8 71.4C158.6 71.4 158.4 71.5 158.2 71.5C158 71.6 157.8 71.6 157.6 71.7C157.4 71.8 157.3 71.8 157.2 71.8C157.1 71.8 157.1 71.9 157.1 71.9C157.1 72 157.5 72.2 158.1 72.2C158.2 72.2 158.3 72.2 158.4 72.2C158.7 72.2 159 72.2 159.4 72.2C159.8 72.2 160.3 72.2 160.7 72.1C161.2 72.1 161.7 72 162.2 71.9C162.6 71.8 163.1 71.7 163.5 71.7C163.6 71.7 163.6 71.7 163.7 71.6C164.2 71.5 164.7 71.4 165.1 71.2C165.3 71.1 165.5 71 165.8 70.9C166 71.3 166.1 71.6 166.2 72C166.1 72 166 72.1 165.9 72.2C165.6 72.4 165.1 72.5 164.7 72.7C164.6 72.7 164.4 72.8 164.3 72.8C163.4 73.1 162.5 73.3 161.6 73.5C160.5 73.7 159.5 73.9 158.8 74.1C158.5 74.2 158.3 74.2 158.1 74.3C157.9 74.3 157.8 74.4 157.7 74.4C157.6 74.4 157.6 74.5 157.6 74.5C157.6 74.6 157.7 74.7 158 74.7C158.2 74.8 158.4 74.8 158.7 74.8C158.8 74.8 158.9 74.8 159 74.8C159.3 74.8 159.7 74.8 160 74.8C160.5 74.8 160.9 74.8 161.5 74.7C161.7 74.7 161.8 74.7 162 74.6C162.4 74.6 162.8 74.5 163.2 74.5C163.7 74.4 164.2 74.4 164.6 74.3C164.7 74.3 164.7 74.3 164.8 74.3C165.4 74.2 165.9 74 166.4 73.9C166.6 73.8 166.8 73.7 167 73.6C167.1 73.8 167.2 74 167.2 74.2C167.2 74.3 167.3 74.5 167.3 74.5C167.2 74.6 167.1 74.6 167 74.7C166.8 74.8 166.6 74.9 166.3 75C166.1 75.1 165.9 75.1 165.6 75.2C164.6 75.5 163.3 75.8 162.1 76.1C160.9 76.4 159.8 76.6 159 76.7C158.2 76.8 157.7 76.9 157.7 77C157.7 77.1 157.8 77.1 157.9 77.2C158.1 77.3 158.4 77.4 158.9 77.4C159.2 77.4 159.5 77.4 159.9 77.4C159.6 77.5 159.2 77.7 158.9 77.8C158.5 78 158.1 78.1 157.8 78.3C155.3 78.9 152.8 79.3 151 79.2C150.7 79.2 150.5 79.1 150.2 79.1C149.7 79 149.3 79 148.9 78.9C148.3 78.7 147.8 78.5 147.4 78.1C147.1 77.8 147 77.5 146.9 77.2C146.9 77.1 146.9 77.1 146.8 77C146.7 76.4 146.9 75.7 147.2 75C147.3 74.9 147.3 74.8 147.4 74.7C147.5 74.5 147.6 74.2 147.8 73.8C147.9 73.6 147.9 73.3 148 73C148.3 71.8 148.5 70.2 148.7 68.6C148.9 67.3 149 65.9 149 64.9C149 64.3 149.1 63.7 149.1 63.3C149.1 63.2 149.1 63.1 149.1 63C149.1 62.1 149.2 60.5 149.4 59C149.5 58.4 149.5 57.8 149.6 57.3C149.7 56.3 149.9 55.5 149.9 55.3C150 54.9 150.7 52.7 151.2 51.1C151.5 50.2 151.7 49.6 151.7 49.6C151.7 49.6 151.9 48.8 151.8 48.5C151.7 48.3 151.4 48.3 150.7 48.9C150.1 49.5 148.6 52.4 146.9 56C145 60.2 142.8 65.3 141.4 68.9C141.3 69.1 141.3 69.3 141.2 69.4C140.7 70.9 140.3 72 140.1 72.7C140 73.3 139.9 73.8 140 74.2C138.2 74.6 136.1 74.9 133.9 74.8C133.8 74.8 133.6 74.8 133.5 74.7H133.4C132.9 74.6 132.2 74.6 131.5 74.5C131.4 74.5 131.3 74.5 131.2 74.5C131.2 74.5 131.2 74.5 131.2 74.4C131.6 74.4 132 74.4 132.3 74.4C133.6 74.3 134.4 74.2 134.4 74.1C134.4 74 133.7 73.8 132.6 73.7C132.5 73.7 132.5 73.7 132.5 73.7C132.3 73.7 132 73.6 131.7 73.6C131.8 73.4 131.9 73.2 132 73C132.7 72.9 133.2 72.9 133.2 72.8C133.2 72.7 132.8 72.6 132.2 72.5C133.8 68.2 134 62.7 133.1 58.2C132.7 56.4 132.2 54.8 131.5 53.4C131 52.5 130.5 51.7 129.9 51C128.9 50 127.5 49.1 125.8 48.4C125.4 48.2 125.1 48.1 124.7 48C124.2 47.8 123.7 47.7 123.1 47.5C122.7 47.4 122.2 47.3 121.7 47.2C119.8 46.8 117.7 46.5 115.5 46.3C115.1 46.3 114.7 46.3 114.4 46.2C113.3 46.1 112.2 46.1 111 46.1C110.4 46.1 109.8 46.1 109.2 46.1C109 46.1 108.7 46.1 108.5 46.1C107.8 45.8 107.2 45.5 106.7 45.3V45.5C106.7 44.9 106.7 44.3 106.7 43.7C106.7 43.6 106.7 43.6 106.7 43.5C106.7 43.5 106.8 43.5 106.9 43.5C107 43.5 107.1 43.6 107.2 43.6C107.3 43.6 107.4 43.7 107.5 43.7C107.9 43.8 108.2 44 108.6 44.1C109.1 44.3 109.7 44.4 110.2 44.6C111.1 44.9 112.1 45.1 113.1 45.3C113.5 45.4 113.8 45.4 114.1 45.4C114.5 45.4 114.9 45.5 115.2 45.5H115.3C115.9 45.5 116.4 45.6 116.9 45.6C117.9 45.6 118.6 45.5 118.6 45.4C118.6 45.3 118.1 45.1 117.3 45H117.2C116.8 44.9 116.3 44.8 115.8 44.7C115.5 44.6 115.1 44.5 114.8 44.4C114.5 44.3 114.2 44.2 113.9 44.2C113.8 44.2 113.7 44.1 113.5 44.1C112 43.7 110.4 43.1 108.9 42.5C108.1 42.2 107.4 41.9 106.8 41.6C106.8 41.2 106.9 40.7 106.9 40.3C107.1 40.4 107.4 40.5 107.7 40.6C108 40.7 108.2 40.8 108.4 40.9C109.6 41.3 110.9 41.7 112.3 42C112.5 42 112.6 42.1 112.8 42.1C113.1 42.1 113.3 42.2 113.5 42.2C114 42.3 114.4 42.4 114.9 42.4C115.4 42.5 115.9 42.5 116.3 42.5C116.4 42.5 116.4 42.5 116.5 42.5C116.7 42.5 116.9 42.5 117.1 42.5C117.7 42.5 118.1 42.4 118.1 42.3C118.1 42.2 117.6 42.1 116.9 41.9H116.7C116.5 41.9 116.2 41.8 116 41.7C115.8 41.7 115.6 41.6 115.4 41.5C114.8 41.4 114.2 41.2 113.5 41C113.3 40.9 113 40.8 112.8 40.8C112.3 40.7 111.9 40.5 111.4 40.3C109.9 39.7 108.3 39.1 107.1 38.6C107.2 38.3 107.2 38 107.3 37.7C107.7 37.8 108.1 38 108.5 38.1C109.2 38.3 109.9 38.6 110.7 38.8C111.1 38.9 111.5 39 112 39.1C112.3 39.2 112.6 39.3 112.9 39.3C113.6 39.4 114.3 39.5 114.9 39.6C115.1 39.6 115.2 39.6 115.4 39.6C115.8 39.6 116.1 39.7 116.4 39.7H116.5C117.5 39.7 118.1 39.6 118.1 39.5C118.1 39.4 117.6 39.2 116.9 39.1H116.8C116.7 39.1 116.5 39 116.3 39C116.1 38.9 115.8 38.9 115.5 38.8C115.4 38.8 115.2 38.7 115.1 38.7C114.6 38.6 114.2 38.4 113.7 38.3C112.9 38.1 112 37.8 111.2 37.4C110.7 37.2 110.3 37 109.9 36.9C109.2 36.6 108.5 36.3 107.9 36.1C108 35.9 108 35.7 108.1 35.5C108.4 35.6 108.7 35.7 109.1 35.9C109.2 35.9 109.3 36 109.4 36C109.8 36.1 110.2 36.3 110.6 36.4C111.5 36.7 112.4 36.9 113.3 37.1C113.8 37.2 114.2 37.3 114.7 37.3C114.9 37.3 115.1 37.4 115.3 37.4C115.5 37.4 115.7 37.4 115.9 37.5C116.2 37.5 116.6 37.6 116.9 37.6C117.8 37.6 118.4 37.5 118.4 37.4C118.4 37.3 117.9 37.1 117.2 37H117.1C116.7 36.9 116.3 36.8 115.9 36.7C115.8 36.7 115.7 36.6 115.6 36.6C115.2 36.5 114.8 36.3 114.3 36.2H114.2C112.7 35.7 111.1 35.1 109.6 34.4C109.4 34.3 109.1 34.2 108.9 34.1C109 34 109 33.9 109.1 33.7C109.2 33.7 109.3 33.8 109.3 33.8C109.5 33.9 109.7 33.9 109.9 34C111.1 34.5 112.6 34.9 114 35.2C114.4 35.3 114.8 35.3 115.3 35.4C115.5 35.4 115.7 35.5 115.9 35.5C116.3 35.5 116.6 35.6 117 35.6C117.1 35.6 117.3 35.6 117.5 35.6C118.4 35.6 119 35.5 119 35.4C119 35.3 118.6 35.1 117.9 35H117.7C117.4 34.9 117.1 34.8 116.7 34.7H116.6C116.1 34.5 115.5 34.4 114.9 34.2C114.9 34.2 114.9 34.2 114.8 34.2C114.4 34.1 113.9 33.9 113.5 33.7H113.4C112.2 33.3 111 32.7 109.9 32.3C109.8 32.3 109.7 32.2 109.6 32.2C109.6 32.1 109.7 32 109.7 32C109.8 32 109.9 32.1 110 32.1C110.2 32.2 110.5 32.3 110.8 32.4C111.5 32.7 112.3 32.9 113.1 33.1H113.2C113.6 33.2 114.1 33.3 114.5 33.5C114.6 33.5 114.7 33.6 114.8 33.6C115.3 33.7 115.7 33.8 116.2 33.9C116.3 33.9 116.5 34 116.6 34C116.8 34 117 34 117.1 34.1C117.4 34.1 117.8 34.2 118 34.2C118.3 34.2 118.5 34.2 118.7 34.2C119.2 34.2 119.4 34.1 119.4 34C119.4 33.9 119.1 33.8 118.5 33.6C118.4 33.6 118.3 33.6 118.3 33.5H118.2C117.9 33.4 117.5 33.3 117.1 33.2C117 33.2 116.9 33.1 116.8 33.1C116.4 33 116 32.9 115.6 32.7C115.5 32.7 115.5 32.7 115.4 32.6C114.9 32.4 114.3 32.2 113.8 32C113.3 31.8 112.9 31.6 112.4 31.4C112.4 31.4 112.3 31.4 112.2 31.3C111.7 31.1 111.2 30.9 110.7 30.7C110.6 30.7 110.5 30.6 110.4 30.6C110.4 30.5 110.5 30.5 110.5 30.4C110.6 30.4 110.7 30.5 110.8 30.5C111.1 30.6 111.4 30.7 111.8 30.9C111.9 30.9 111.9 30.9 112 31C112.1 31 112.1 31 112.2 31.1C112.6 31.3 113.1 31.4 113.6 31.6C114.2 31.8 114.8 31.9 115.4 32.1C115.5 32.1 115.7 32.2 115.8 32.2C116.1 32.3 116.3 32.3 116.6 32.4C116.9 32.5 117.3 32.6 117.6 32.6C117.9 32.6 118.1 32.7 118.4 32.7C118.6 32.7 118.9 32.8 119.1 32.8C119.3 32.8 119.4 32.8 119.5 32.8C119.5 32.8 119.5 32.8 119.6 32.8C120.2 32.8 120.6 32.7 120.6 32.6C120.6 32.5 120.2 32.3 119.6 32.2C119.6 32.2 119.6 32.2 119.5 32.2C119.5 32.2 119.5 32.2 119.4 32.2C119.1 32.1 118.7 32 118.3 31.9H118.2C117.7 31.7 117.2 31.6 116.7 31.4C116.6 31.4 116.5 31.3 116.4 31.3C115.9 31.1 115.5 31 115 30.8C114.4 30.5 113.7 30.3 113.1 30C112.7 29.8 112.3 29.7 112 29.5C112 29.4 112.1 29.3 112.1 29.3C112.1 29.3 112.1 29.3 112.2 29.3C112.4 29.4 112.7 29.5 112.9 29.6C113.1 29.7 113.3 29.8 113.5 29.8C113.9 29.9 114.3 30.1 114.8 30.2C115.3 30.4 115.7 30.5 116.2 30.6C116.6 30.7 117 30.8 117.4 30.9C117.6 30.9 117.8 31 118 31C118.4 31.1 118.8 31.2 119.1 31.2H119.3C119.7 31.3 120.1 31.3 120.5 31.4C121.4 31.4 121.9 31.4 121.9 31.2C121.9 31.1 121.5 30.9 120.9 30.8H120.8C120.5 30.7 120.1 30.6 119.7 30.4C119.5 30.3 119.3 30.2 119.1 30.2C119 30.2 119 30.2 118.9 30.1C118.6 30 118.4 29.9 118.1 29.8C117.9 29.7 117.7 29.6 117.5 29.6C116.9 29.4 116.3 29.1 115.7 28.8C115.7 28.8 115.7 28.8 115.6 28.8C115.1 28.6 114.6 28.3 114.1 28.1C113.8 28 113.6 27.9 113.3 27.7C113.4 27.6 113.5 27.5 113.7 27.4C113.8 27.4 113.9 27.5 114 27.5C114.4 27.7 114.9 27.9 115.5 28.1C115.5 28.1 115.5 28.1 115.6 28.1C116.2 28.3 116.7 28.5 117.4 28.7C117.9 28.9 118.3 29 118.8 29.1C118.9 29.1 118.9 29.1 119 29.2C119.1 29.2 119.1 29.2 119.2 29.3C119.8 29.4 120.3 29.6 120.8 29.7C121.3 29.8 121.8 29.9 122.2 29.9C122.3 29.9 122.5 29.9 122.6 29.9C123.1 30 123.6 30.1 124 30.2C124.5 30.3 124.9 30.4 125.4 30.5C125.8 30.6 126.2 30.6 126.5 30.7C128.4 31 130.5 31.2 132.8 31.2C133.1 31.2 133.5 31.2 133.8 31.2C134 31.2 134.2 31.2 134.4 31.2C135.2 31.2 135.9 31.2 136.6 31.1C137.2 31.1 137.7 31 138.3 31C139.2 30.9 140.1 30.8 141 30.6C141.4 30.5 141.7 30.5 142.1 30.4C143 30.2 143.9 30 144.7 29.8C145.2 29.7 145.6 29.5 146 29.4C147 29.1 147.9 28.7 148.7 28.3C149.4 28 149.9 27.7 150.4 27.4C151.3 26.9 151.7 26.4 151.7 26.2C151.7 26 151.3 26.2 150.6 26.6C150.2 26.8 149.6 27.1 148.8 27.4C148.1 27.7 147.2 28.1 146.1 28.4C145.7 28.5 145.2 28.7 144.8 28.8C144 29 143.1 29.2 142.2 29.4C141.8 29.5 141.5 29.5 141.1 29.6C140.2 29.7 139.3 29.9 138.4 30C137.9 30 137.4 30.1 136.8 30.1C136.1 30.1 135.3 30.2 134.6 30.2C134.5 30.2 134.5 30.2 134.4 30.2C133.9 30.2 133.4 30.2 132.9 30.2C130.5 30.1 128.4 29.8 126.6 29.4C126.2 29.3 125.8 29.2 125.4 29.1C124.9 29 124.4 28.8 123.9 28.7C123.3 28.5 122.8 28.3 122.3 28.1C120.3 27.3 119 26.5 118.3 25.9C118.2 25.8 118 25.7 117.9 25.6C117.7 25.4 117.6 25.3 117.6 25.3L117.8 25.2L118.1 25.1L118.2 25C118.2 25 119.6 25.4 122 25.7C122.4 25.8 122.9 25.8 123.4 25.9C123.9 26 124.5 26 125 26.1C125.4 26.1 125.9 26.2 126.3 26.2C128.2 26.4 130.4 26.5 132.8 26.5C133 26.5 133.3 26.5 133.5 26.5C133.8 26.5 134.1 26.5 134.4 26.5C135.4 26.5 136.4 26.4 137.3 26.3C137.8 26.2 138.2 26.2 138.7 26.1C139.6 25.9 140.5 25.8 141.4 25.6C141.9 25.5 142.5 25.3 143 25.2C143.9 24.9 144.8 24.7 145.6 24.4C146.1 24.2 146.6 24 147 23.9C148.6 23.3 149.7 22.7 150.1 22.4C150.2 22.3 150.3 22.3 150.3 22.3C150.3 22.3 150.7 23.3 151.2 24.3C151.4 24.8 151.7 25.3 152 25.7C152.4 26.3 152.9 26.8 153.3 26.8H153.4C153.8 26.7 153.8 26.3 153.8 25.7C153.7 24.5 153.2 22.5 153.9 21.1C154.4 20.1 155.2 19 155.8 17.7C156.5 16 156.8 14.2 155.3 12.5C152.6 9.49999 148.5 6.89999 137.8 6.09999C127.1 5.39999 127.5 -1.10001 116.5 0.49999C105.5 2.09999 105.1 7.29999 105.1 7.29999C107.9 7.29999 109.1 10.1 110 13.4C110.2 14.1 110.5 14.8 110.9 15.4C110.8 15.4 110.7 15.4 110.6 15.4C110.8 16 111.3 17.9 111.7 19.5C112 20.5 112.2 21.3 112.3 21.6C112.6 22.6 112.9 23.5 113.2 24.5C112.7 25 112.3 25.5 111.9 25.9C111.7 25.3 111.5 24.8 111.3 24.2C110.8 22.8 109.1 17.4 108.4 15.7C108 15.7 107.5 15.8 107.1 15.9C107.1 16 107.1 16.1 107.1 16.2C107.5 17.2 107.9 18.4 108.4 19.6C109.2 21.9 110.2 24.4 111.1 26.9C111 27 111 27 110.9 27.1C109.9 28.5 109.1 30 108.4 31.7C107.7 30.3 107 28.8 106.5 27.3C106.3 26.9 105.9 26.5 105.6 26.1C105.4 26.3 105.1 26.4 105.1 26.5C105.2 27.1 105.2 27.7 105.5 28.3C106.3 29.8 107.2 31.3 108 32.8V32.9L107.8 33.3C107.8 33.3 107.8 33.3 107.9 33.3C107.4 34.9 107.1 36.6 106.9 38.6C106.5 38 106.2 37.4 105.8 36.8C103.1 32.5 100.4 28.2 97.6001 23.9C96.6001 22.4 95.5001 20.9 94.4001 19.5C94.3001 19.3 93.7001 19.4 93.4001 19.4C93.4001 19.6 93.3001 19.8 93.4001 20C96.2001 24.3 98.9 28.6 101.7 32.9C103.1 35 104.8 37.1 105.7 39.4C106 40.2 106.4 41 106.8 41.8C106.8 42.7 106.8 43.6 106.9 44.5C106.9 45.2 107 46 107.1 46.8H107C106.1 46.9 105.2 46.9 104.4 47C101.7 47.3 99.2 47.7 96.8 48.2C96.6 48.1 96.4 48 96.3 47.9C96.3 48 96.4 48.1 96.5 48.2C92.7 49.2 89.3001 50.6 86.6001 52.6C86.0001 53.1 85.4 53.6 84.8 54.2C84 52.7 82.2 52.6 81 51.8C75.5 48.3 69.8 45 64.2 41.7C63.2 41.1 62.0001 40.8 60.9001 40.3C61.2001 40.7 61.4001 41.2 61.7001 41.5C68.2001 45.2 74.7 48.9 81 53.1C82 53.8 83.3 54.1 84.5 54.5C83.7 55.3 83.0001 56.2 82.4001 57.2C79.0001 55.5 75.6 53.8 72.2 52.1C71.1 51.6 70.1001 50.2 68.6001 51.2C69.6001 51.9 70.5 52.5 71.5 53.2C71.7 53.3 71.9001 53.4 72.1001 53.5C75.4001 55 78.6001 56.6 81.9001 58.1C81.6001 58.7 81.4001 59.2 81.1001 59.9C80.6001 61.2 80.4 62.7 80.3 64.1C79.1 63.7 77.7 63.6 76.7 62.9C75.7 62.2 74.4001 62.7 73.6001 61.4C72.8001 59.9 71.1 61.1 69.8 60.7C68.9 60.4 68.0001 60 67.1001 59.7C65.4001 59.2 63.6 58.8 61.8 58.4C61.6 58.4 61.4 58.5 61.1 58.6C61.3 58.8 61.4001 59.1 61.7001 59.1C66.6001 60.6 71.6 62.1 76.5 63.7C77.7 64.1 78.9 64.5 80.3 64.4C80.3 65.1 80.3 65.8 80.3 66.5C75.3 65.1 70.2 63.8 65.2 62.4C61.4 61.3 57.6001 60.2 53.7001 59.2C49.1001 58 44.6 56.9 40.1 55.6C39.9 55.9 39.8 56.3 39.6 56.6C42.4 57.5 45.1 58.6 48 59C52.7 59.8 57.1 61.5 61.6 62.6C65.8 63.6 70.0001 64.6 74.1001 66C76.2001 66.7 78.5001 66.8 80.4001 68.2C79.2001 68.1 77.9 68.1 76.7 67.9C74 67.3 71.4001 66.5 68.6001 66C64.3001 65.2 60.1001 64.3 55.9001 63.2C53.7001 62.6 51.5 62 49.3 61.5C46.3 60.8 43.2 60.2 40.1 59.5C39.5 59.4 38.9001 59.2 38.4001 59.1C38.2001 59.5 38.1001 59.9 37.9001 60.3C41.7001 61.3 45.5001 61.8 49.2001 63C52.0001 64 55.1 64.1 58.1 64.8C63 65.9 67.9 67.3 72.8 68.4C75.4 69 78.0001 69.5 80.6001 70.1C80.7001 70.5 80.8001 71 80.9001 71.4C79.7001 71.2 78.4 71 77.2 70.6C71.9 69.1 66.5001 68.6 61.2001 67.6C58.4001 67 55.6001 66.3 52.7001 65.9C50.0001 65.5 47.4 64.4 44.6 64C42.1 63.6 39.6001 63.1 37.2001 62.6C37.1001 62.9 37.0001 63.2 36.9001 63.5C38.9001 63.9 41 64.3 43 64.7C44.8 65.1 46.4001 65.8 48.2001 66.2C52.5001 67.1 56.8 67.5 61 68.7C64.8 69.7 68.7001 69.9 72.4001 70.7C74.5001 71.2 76.7 71.5 78.8 71.9C79.6 72 80.4 72.2 81.2 72.3C81.3 72.6 81.5001 73 81.6001 73.3C81.3001 73.2 81 73.2 80.7 73.1C79.1 72.7 77.4 72.4 75.7 72.2C72 71.7 68.2 71.5 64.5 70.6C59 69 54.3001 68 49.4001 67.9C49.0001 67.9 48.7 67.9 48.3 67.8C45.5 67 42.6001 66.6 39.7001 66.5C38.7001 66.5 37.7001 66.5 36.7001 66.5C36.5001 66.5 36.3 66.7 36.1 66.8C36.3 66.9 36.5001 67.1 36.7001 67.2C38.4001 67.5 40 67.2 41.8 67.8C44.8 68.8 48 69 51.1 69.4C53.6 69.8 56.3 69.6 58.8 70.3C60.9 70.9 63 70.5 65 71.1C67.6 71.8 70.2001 72.4 72.9001 72.5C74.8001 72.6 76.9001 72.7 78.6001 73.4C79.6001 73.8 80.7 74 81.7 74.1C82.1 74.9 82.6 75.7 83.2 76.4C81.5 76.2 79.7 76.7 78.2 76.1C75.8 75.2 73.5 75.7 71.2 75.5C67.6 75.2 64.1 75 60.5 74.7C60.4 74.7 60.2 74.7 60.1 74.7C58.3 73.4 56.1 74.5 54.3 73.9C52.2 73.2 50.2 73.3 48.1 73.2C47.6 73.2 47 73.4 46.6 73.2C45.1 72.3 43.5001 72.6 41.9001 72.5C40.3001 72.4 38.8001 71.9 37.2001 71.8C36.3001 71.7 35.5 71.7 34.6 71.6C34.6 72 34.5 72.3 34.5 72.7C36.4 72.8 38.4001 72.9 40.2001 73.4C43.8001 74.3 47.6 73.1 51.1 74.7C51.5 74.9 52.1 74.7 52.6 74.7C56.4 74.9 60.3 74.9 64 75.6C66.5 76.1 68.9 76.2 71.3 76.3C71.5 76.3 71.7001 76.5 71.9001 76.7C71.7001 76.8 71.6001 76.9 71.4001 77L71.3 77.1C70.3 77.1 69.3 77.1 68.3 77.1C68.1 77.1 68 77 67.8 77C63.5 75.8 59.0001 77.1 54.7001 75.7C54.0001 75.5 53.2 75.7 52.5 75.7C51.1 75.7 49.7001 75.8 48.4001 75.7C47.2001 75.6 46 75.3 44.8 75.3C43.5 75.3 42.2001 75.9 40.9001 75.7C38.7001 75.3 36.5 75.2 34.3 75.1C34.3 75.5 34.3 75.9 34.3 76.2C34.3 82.7 42.5 80.8 57 81.5C73.7001 83.3 169.1 81.5 192.7 81.5C216.3 81.5 218 78.2 218 77.8C218 77.4 217.2 77.2 215.8 77.1ZM165.3 69.4C165.3 69.3 165.3 69.3 165.3 69.3C165.4 69.3 165.4 69.4 165.5 69.4C165.4 69.4 165.3 69.4 165.3 69.4ZM166.5 72.1C166.5 72 166.5 72 166.5 72.1V72C166.5 72 166.5 72 166.6 72.1V72.2C166.6 72.1 166.5 72.1 166.5 72.1ZM113.8 23.1C113.2 21.2 112.6 19.4 112 17.8C112.9 19 113.7 19.8 113.7 19.8L114 22.9C113.9 23 113.9 23.1 113.8 23.1ZM150.7 16.1C150.7 16.2 150.6 16.4 150.5 16.5C149.8 17.3 147.6 18.4 142.7 19.1C142.3 19.1 142 19.2 141.6 19.2C140.7 19.3 139.7 19.4 138.6 19.5C138.1 19.5 137.7 19.6 137.2 19.6C136.6 19.6 136 19.7 135.3 19.7C134.8 19.7 134.2 19.7 133.7 19.7C133.2 19.7 132.8 19.7 132.3 19.7C129.5 19.7 127 19.5 124.9 19.2C124.8 19.2 124.7 19.2 124.6 19.2C120 18.4 117.5 17 117.5 15.3C117.5 15.1 117.6 14.9 117.6 14.7C118.4 13 122.6 11.8 132.4 11.9C143.6 12 151 14.9 150.7 16.1ZM108.3 6.19999C111.3 2.09999 118.7 1.79999 124.6 5.19999C128.3 7.29999 133.1 7.39999 137.4 7.79999C140 7.99999 142.4 8.29999 144.4 9.09999C144.5 9.09999 144.5 9.09999 144.6 9.19999C149.7 11.3 146.4 11.9 141 10.5C135.5 8.99999 120.6 8.39999 117 12C117 12 116.3 9.59999 113 7.69999C109.7 5.59999 108.3 6.19999 108.3 6.19999ZM167.6 74.7L167.7 74.6C167.7 74.7 167.7 74.7 167.8 74.8L167.6 74.7ZM99.1001 77.2C99.4001 77.1 99.6 77 99.8 76.9C100 76.9 100.1 76.9 100.3 77C100.6 77 101 76.8 101.3 76.7C101.2 76.7 101.1 76.6 101 76.6C102.5 76.1 103.7 75.6 104.1 75.4C104.3 75.3 104.4 75.2 104.6 75.2C104.9 75.1 105.1 75 105.2 74.9C105.2 74.9 105.5 71.3 105.8 67.1C105.9 66.3 105.9 65.4 106 64.6C106.3 59.9 106.5 55 106.1 53.8C105.4 51.2 105.4 51.2 105.4 51.2C105.4 51.2 98.5001 52.8 95.1001 54.5L94.9001 54C94.7001 54.1 94.4 54.2 94 54.1C93.6 54 93.0001 53.8 92.6001 53.4C91.6001 52.7 91 51.7 90.8 51.8C90.6 51.9 90.8001 53 91.6001 54C92.0001 54.5 92.6 55 93.3 55.4C93.3 55.4 93.3 55.4 93.2 55.5C93.2 55.6 93.1001 55.7 93.1001 55.8C92.8001 56.3 92.6 57.2 92.3 58.5C92.2 58.8 92.2001 59.1 92.1001 59.4C91.6001 61.6 91.1 64.3 90.7 67.1C90.6 67.5 90.6 67.9 90.5 68.3C90.4 69.3 90.2001 70.2 90.1001 71.1C90.1001 71.3 90 71.6 90 71.8C89.9 72.7 89.8 73.5 89.7 74.3C89.7 74.7 89.6001 75.1 89.6001 75.4C89.5001 76 89.5 76.5 89.5 76.9C89.5 77 89.5 77 89.5 77C89.5 77.5 89.5 77.8 89.5 78C89.5 78 88.7001 78 87.6001 77.6C87.5001 77.4 87.5 77.2 87.5 76.9C87.5 76.9 87.5 76.9 87.5 76.8C87.4 76.2 87.3 75.5 87.2 74.8C87.2 74.5 87.1001 74.1 87.1001 73.7C87.1001 73.3 87 72.9 87 72.5C87 72 87 71.5 87 70.9C87 70.7 87 70.5 87 70.3C87 69.9 87 69.6 87 69.2C87 68.8 87.0001 68.4 87.1001 68C87.1001 67.6 87.2 67.2 87.2 66.9C87.2 66.5 87.2 66.1 87.3 65.8C87.3 65.7 87.3 65.6 87.3 65.5C87.6 63.2 88.1 61.1 88.7 59.6C89 58.8 89.4001 58.2 89.6001 57.8C89.8001 57.5 89.9 57.3 89.8 57.3C89.8 57.3 89.6 57.4 89.3 57.7C89 58 88.6 58.5 88.2 59.2C87.4 60.5 86.7 62.5 86.2 64.7C86.1 65 86.1001 65.3 86.1001 65.6C86.0001 65.9 86.0001 66.3 85.9001 66.6C85.8001 67 85.8 67.4 85.7 67.8C85.6 68.8 85.5 69.7 85.5 70.6C85.5 70.9 85.4001 71.3 85.4001 71.6C85.4001 71.6 85.4001 71.6 85.4001 71.7C85.4001 71.8 85.4001 72 85.4001 72.1C85.4001 72.6 85.4001 73 85.4001 73.4C85.4001 73.7 85.4001 74.1 85.4001 74.4C85.5001 75.2 85.5001 76 85.6001 76.7C84.7001 76.1 83.8 75.3 83 74.1C82.8 73.8 82.6001 73.4 82.4001 73C82.2001 72.7 82.1001 72.4 81.9001 72V71.9C81.8001 71.6 81.7001 71.3 81.6001 71C81.5001 70.8 81.5001 70.7 81.4001 70.5L82.3 70.3C82.3 70.2 82.3 70.1 82.2 70C82 69.3 81.9 68.2 82 66.9C82 66.6 82 66.4 82 66.1C82 65.9 82.1001 65.7 82.1001 65.5C82.1001 65.3 82.2 65 82.2 64.7C82.4 63.3 82.7 61.8 83.2 60.4C83.4 59.8 83.6 59.2 83.8 58.7C83.9 58.5 84.0001 58.3 84.1001 58.1C84.5001 57.2 84.9 56.4 85.3 55.7C85.4 55.5 85.5001 55.4 85.6001 55.2C85.6001 55.1 85.7 55 85.7 55C86.1 54.3 86.5001 53.9 86.4001 53.8C86.4001 53.8 86.2001 53.9 85.9001 54.1C85.8001 54.2 85.6001 54.4 85.4001 54.5C85.3001 54.6 85.2001 54.7 85.1001 54.8C85.0001 54.9 84.9 55 84.8 55.1C84.3 55.7 83.7001 56.6 83.1001 57.6C83.0001 57.9 82.8 58.1 82.7 58.4C82.6 58.7 82.4 59 82.3 59.3C81.6 60.8 81.1 62.5 80.8 64.2C80.8 64.4 80.7 64.6 80.7 64.8C80.7 64.9 80.7001 65 80.6001 65C80.6001 65.2 80.6 65.3 80.5 65.5C80.5 65.3 80.5 65 80.5 64.8C80.5 64.6 80.5 64.4 80.5 64.2C80.6 62.2 81 60 81.8 58.1C81.9 57.8 82.1 57.5 82.2 57.2C82.7 56.2 83.3001 55.2 84.1001 54.4C84.7001 53.8 85.3 53.2 86 52.6C86.5 52.2 87.1001 51.8 87.6001 51.5C88.5001 51 89.5 50.5 90.5 50.1C93.8 48.9 99.8 48 106 47.6C106.1 47.6 106.1 47.6 106.2 47.6C106.3 47.6 106.4 47.6 106.6 47.6C106.7 47.6 106.8 47.6 106.9 47.6C107.1 47.6 107.2 47.6 107.4 47.6C108.3 47.6 109.2 47.5 110.1 47.5C110.6 47.5 111.2 47.5 111.7 47.5C111.8 47.5 111.8 47.5 111.9 47.5C112.9 47.5 113.9 47.5 114.9 47.6C115.3 47.6 115.7 47.6 116 47.7C118 47.8 119.7 48.1 121.3 48.4C121.5 48.4 121.7 48.5 121.8 48.5C122.3 48.6 122.8 48.8 123.2 48.9C123.6 49 123.9 49.2 124.3 49.3C124.5 49.4 124.6 49.4 124.8 49.5C124.9 49.5 124.9 49.5 125 49.6C125.7 50 125.7 51 125.2 52C125 52.4 124.7 52.8 124.4 53.2C124.1 53.5 123.8 53.8 123.4 54.1C122.6 54.8 121.7 55.4 120.4 55.9C120.1 56 119.8 56.1 119.4 56.2C119.3 56.2 119.2 56.3 119.1 56.3C118.6 56.5 118.2 56.6 117.7 56.7C117.4 56.8 117.1 56.8 116.8 56.8C116.2 56.9 115.7 57 115.1 57.1C115 57.1 114.9 57.1 114.8 57.1C114.8 57.1 114.9 57.1 115.1 57.1C115.5 57.1 116.1 57.1 117 57.1C117.3 57.1 117.6 57.1 117.9 57C118.5 57 119.1 56.9 119.8 56.8C120.1 56.7 120.5 56.7 120.8 56.6C121.8 56.4 122.9 56.1 123.8 55.6C124.1 55.4 124.5 55.3 124.8 55.1C126.1 54.3 127.1 53.2 127.5 51.6C127.5 51.6 130.2 50.2 131.1 59.1C131.1 59.5 131.2 59.8 131.2 60.1C131.3 61.4 131.4 62.6 131.4 63.7C131.4 64.6 131.4 65.4 131.3 66.1C131.3 65 131.2 63.8 131 62.7C130.7 60.1 130.1 57.8 129.6 56.1C129.1 54.4 128.6 53.4 128.5 53.4C128.4 53.4 128.6 54.4 128.9 55.9C129.2 57.4 129.5 59.6 129.7 62C129.9 64.4 130 67 129.7 69.4C129.7 69.7 129.6 70.1 129.5 70.4C129.5 70.6 129.4 70.8 129.4 71C129.3 71.3 129.3 71.5 129.2 71.8C129.1 72.1 129 72.4 128.9 72.7C128.9 72.8 128.9 72.8 128.8 72.9V73C128.6 73.2 128.4 73.5 128.2 73.7C128.2 73.6 128.3 73.4 128.3 73.3C128.3 73.1 128.4 73 128.4 72.8C128.4 72.7 128.4 72.7 128.4 72.6C128.5 72.3 128.5 72 128.6 71.6C128.6 71.5 128.6 71.5 128.6 71.4C128.6 71.2 128.6 71.1 128.6 70.9C128.6 70.7 128.6 70.4 128.7 70.1C128.7 69.7 128.8 69.3 128.8 68.8C128.8 68.7 128.8 68.6 128.8 68.5C128.8 66.9 128.7 65.2 128.5 63.6C128.3 61.8 128 60.1 127.6 58.7C127.4 58 127.3 57.4 127.1 56.9C126.7 55.5 126.3 54.8 126.2 54.9C126.1 55 126.3 55.9 126.6 57.4V57.5C126.8 58.5 126.9 59.6 127.1 60.9C127.2 61.6 127.3 62.4 127.3 63.2C127.4 64.3 127.3 65.4 127.3 66.5C127.3 67.1 127.3 67.6 127.3 68.2C127.3 68.4 127.3 68.7 127.3 68.9C127.3 69.2 127.3 69.6 127.2 69.9C127.2 70 127.2 70.1 127.2 70.2C127.2 70.4 127.1 70.6 127.1 70.8C127.1 70.9 127.1 71.1 127 71.2C126.7 72.9 126.2 74.4 125.5 75.4C125.6 75 125.8 74.6 125.9 74.1C126 73.5 126.1 72.9 126.2 72.3C126.2 71.9 126.3 71.5 126.3 71.1C126.3 71 126.3 70.9 126.3 70.7C126.3 70.4 126.3 70 126.3 69.7C126.3 69.4 126.3 69.2 126.3 68.9C126.3 68.6 126.3 68.4 126.3 68.1C126.3 67.6 126.3 67.2 126.2 66.7C126.2 66.5 126.2 66.4 126.2 66.2C126.2 65.7 126.1 65.1 126.1 64.6C125.9 63.1 125.7 61.8 125.5 60.6C125.4 60.3 125.4 59.9 125.3 59.6C125.1 58.8 124.9 58.1 124.8 57.8C124.4 56.7 124.1 56.2 124 56.5C124 56.6 124 56.8 124 57.1C124.1 57.5 124.2 58.1 124.3 58.8V58.9C124.4 59.8 124.6 61 124.7 62.2C124.7 62.7 124.8 63.3 124.8 63.8C124.8 63.9 124.8 64 124.8 64.2C124.8 64.2 124.8 64.2 124.8 64.3V64.4C124.8 64.9 124.8 65.4 124.8 66C124.8 66.3 124.8 66.5 124.8 66.8C124.8 67.2 124.8 67.6 124.8 67.9C124.8 68.2 124.8 68.6 124.7 68.9C124.7 69.1 124.7 69.3 124.7 69.5C124.7 69.9 124.7 70.3 124.6 70.7V70.8C124.6 71 124.6 71.1 124.6 71.3C124.4 73.4 123.8 75.3 123 76.4C123.1 76 123.2 75.6 123.3 75.2C123.4 74.6 123.5 74 123.6 73.4C123.7 72.5 123.7 71.6 123.8 70.6C123.8 70.2 123.8 69.7 123.8 69.3C123.8 69.1 123.8 69 123.8 68.8C123.8 68.4 123.8 68.1 123.8 67.7C123.8 67.4 123.7 67.1 123.7 66.7C123.7 66.4 123.7 66.1 123.6 65.8V65.7C123.6 65.4 123.5 65.1 123.5 64.8C123.5 64.6 123.5 64.5 123.4 64.3C123.4 64.1 123.3 63.8 123.3 63.6C123.2 62.9 123.1 62.2 123 61.6C123 61.5 123 61.4 122.9 61.3C122.9 61.3 122.9 61.3 122.9 61.2C122.9 61 122.8 60.8 122.8 60.6C122.6 59.7 122.4 59 122.3 58.7C122 57.8 121.7 57.6 121.7 58.1C121.7 58.1 121.7 58.1 121.7 58.2C121.7 58.3 121.7 58.4 121.7 58.6C121.7 58.7 121.7 58.7 121.7 58.8C121.7 58.9 121.7 58.9 121.7 59C121.7 59.4 121.8 59.9 121.9 60.5V60.6C121.9 60.8 121.9 61 122 61.2C122 61.4 122 61.6 122.1 61.8C122.1 61.9 122.1 62 122.1 62C122.2 62.5 122.2 63 122.3 63.6C122.3 63.7 122.3 63.7 122.3 63.8C122.3 64 122.3 64.2 122.3 64.5C122.3 64.8 122.3 65 122.4 65.3C122.4 65.4 122.4 65.6 122.4 65.7V65.8C122.4 66.1 122.4 66.4 122.4 66.7C122.4 67 122.4 67.2 122.4 67.5C122.4 67.9 122.4 68.4 122.4 68.8C122.4 68.9 122.4 69 122.4 69.1C122.4 70.2 122.3 71.4 122.2 72.4C122 74 121.6 75.5 121.1 76.6C121 76.9 120.8 77.1 120.7 77.4H120.8L121.1 77.7C120.9 77.8 120.7 77.8 120.6 77.9C120.6 77.8 120.7 77.6 120.7 77.5C120.8 77.3 120.8 77 120.9 76.8C120.9 76.7 120.9 76.7 120.9 76.6C121 76 121.1 75.4 121.2 74.8C121.4 73 121.4 71 121.3 69V68.9C121.3 68.4 121.2 68 121.2 67.5C121.2 67.4 121.2 67.3 121.2 67.3C121.2 67.2 121.2 67.2 121.2 67.1C121.2 67 121.2 67 121.2 66.9C121.2 66.5 121.1 66.1 121.1 65.7C121.1 65.3 121 65 121 64.6C120.9 64.2 120.9 63.9 120.8 63.5C120.7 63 120.6 62.4 120.5 62C120.5 62 120.5 62 120.5 61.9C120.5 61.7 120.4 61.4 120.3 61.2C120.3 61.1 120.3 61.1 120.3 61C120.1 60.4 120 60 119.9 59.8C119.6 59.1 119.4 59.1 119.4 59.8C119.4 59.8 119.4 59.8 119.4 59.9C119.4 60.1 119.4 60.4 119.5 60.8C119.5 61.1 119.6 61.4 119.6 61.8C119.6 61.9 119.6 62 119.6 62.1V62.2C119.6 62.5 119.7 62.8 119.7 63.2C119.7 63.6 119.8 64 119.8 64.4C119.8 64.7 119.9 65 119.9 65.3C119.9 65.5 119.9 65.7 119.9 65.8C119.9 66 119.9 66.3 119.9 66.6C119.9 66.7 119.9 66.9 119.9 67C119.9 67.1 119.9 67.2 119.9 67.2C120 69.3 120 71.5 119.7 73.5C119.6 74.6 119.4 75.5 119.1 76.4C119.1 76.5 119.1 76.5 119 76.6C118.8 77.2 118.6 77.7 118.4 78.2L118.6 78.3C118.5 78.3 118.4 78.4 118.2 78.4C118.3 78.1 118.3 77.9 118.4 77.6C118.5 77.3 118.5 77 118.5 76.7C118.5 76.5 118.6 76.3 118.6 76.1C118.6 76 118.6 75.9 118.7 75.8C118.7 75.7 118.7 75.6 118.7 75.5C118.9 73.2 118.9 70.6 118.7 68.1C118.7 67.6 118.6 67.1 118.6 66.7C118.6 66.6 118.6 66.5 118.6 66.4C118.5 65.9 118.5 65.4 118.4 64.9C118.4 64.7 118.3 64.5 118.3 64.2C118.3 64 118.2 63.9 118.2 63.7C118.1 63.4 118.1 63.1 118 62.8C117.9 62.4 117.8 62 117.7 61.7C117.6 61.2 117.5 60.8 117.4 60.7C117.2 60.3 117.1 60.5 117.1 61.4V61.6C117.1 61.8 117.1 62 117.1 62.3C117.1 62.4 117.1 62.5 117.1 62.5C117.1 62.8 117.2 63.2 117.2 63.6V63.7C117.2 63.8 117.2 63.9 117.2 63.9C117.2 64.1 117.2 64.2 117.2 64.4C117.2 64.9 117.3 65.4 117.3 66C117.3 66 117.3 66 117.3 66.1C117.3 66.3 117.3 66.5 117.3 66.7C117.3 67.3 117.4 67.9 117.4 68.5C117.4 70 117.4 71.5 117.3 73C117.3 73.5 117.2 74 117.2 74.5C117.2 74.6 117.2 74.7 117.2 74.8C117.1 75.4 117 76 116.9 76.6C116.7 77.4 116.5 78.1 116.3 78.7C116.2 78.7 116.1 78.7 116 78.7V78.6C116.1 78 116.2 77.4 116.3 76.7V76.6C116.4 75.8 116.4 74.9 116.5 74C116.5 73.3 116.5 72.6 116.5 71.8C116.5 70.9 116.4 69.9 116.4 69C116.3 67 116 65.2 115.7 63.8V63.7C115.7 63.6 115.7 63.6 115.7 63.5C115.5 62.7 115.4 62.1 115.3 61.8C115.2 61.7 115.2 61.6 115.2 61.5C115.1 61.4 115.1 61.5 115 61.7C115 61.9 115 62.3 115 62.9V63C115 63.1 115 63.2 115 63.3C115 63.4 115 63.4 115 63.5C115 63.9 115.1 64.5 115.1 65.1V65.2C115.1 66.1 115.2 67 115.2 68C115.2 68.6 115.2 69.1 115.2 69.7C115.2 69.8 115.2 69.9 115.2 70C115.2 70.8 115.2 71.6 115.2 72.3C115.2 73.4 115.1 74.4 115 75.4C115 75.7 114.9 76.1 114.9 76.4C114.8 77.3 114.6 78.1 114.4 78.7C114.2 78.7 114.1 78.7 113.9 78.7C114 78 114.1 77.2 114.1 76.3C114.2 74.6 114.2 72.7 114.1 70.8C114.1 70.5 114.1 70.1 114.1 69.8C114.1 69.2 114 68.6 113.9 68C113.8 66.6 113.6 65.4 113.4 64.4C113.1 63 112.9 62.2 112.8 62.2C112.7 62.2 112.7 63 112.8 64.3C112.8 64.9 112.9 65.7 112.9 66.5C112.9 67.3 112.9 68.1 113 69C113 69.1 113 69.1 113 69.2C113 71.5 112.9 74 112.7 76.2C112.6 77.1 112.5 77.9 112.3 78.7C111.7 78.7 111.3 78.7 111.3 78.7C111.3 78.7 111.4 77.7 111.5 76.3C111.7 74.1 111.9 70.7 111.8 67.1C111.8 66.3 111.8 65.5 111.8 64.7C111.7 63 111.6 61.4 111.4 60C111.4 59.9 111.4 59.9 111.4 59.8C111.3 59.1 111.2 58.5 111 57.9C110.9 57.7 110.9 57.5 110.8 57.3C110.6 56.8 110.5 56.3 110.2 55.9C110.1 55.7 110 55.6 109.9 55.4C109.6 54.9 109.4 54.5 109.1 54.1C108.3 52.9 107.6 52.1 107 51.5C106.9 51.4 106.8 51.3 106.6 51.2C106.4 51 106.2 50.9 106 50.7L105.9 50.6C105.2 50.1 104.7 49.9 104.7 49.9C105.3 50.6 105.7 51.1 106.1 51.6L106.2 51.7C107.1 52.8 107.5 53.3 107.8 53.6C108.1 53.9 108.1 53.9 108.1 53.9C108.1 53.9 108.4 54.2 108.8 54.9C109 55.4 109.3 56 109.6 56.8C109.7 57 109.7 57.1 109.8 57.3C110 57.9 110.1 58.6 110.2 59.4C110.2 59.5 110.2 59.7 110.3 59.9C110.4 60.7 110.5 61.6 110.6 62.7C110.6 63 110.6 63.2 110.7 63.6C110.7 64 110.7 64.4 110.7 64.9C110.7 65.7 110.7 66.5 110.7 67.3C110.7 67.4 110.7 67.5 110.7 67.6C110.6 71.6 110.2 74.9 110 76.4C109.9 77 109.9 77.3 109.9 77.3L108.7 76.4L105.3 73.8V74.7L105.5 75L106.5 76.4C104.6 77.2 101.8 77.2 99.1001 77.2ZM123.7 77.7C123.7 77.6 123.8 77.6 123.8 77.5C123.8 77.4 123.9 77.3 123.9 77.3L124.2 77.5C124 77.6 123.8 77.6 123.7 77.7ZM177.7 82.1C177.8 81.8 177.9 81.6 178.3 81.6C177.9 81.6 177.7 81.8 177.7 82.1ZM210.5 76.9C206.1 76.8 200 76.8 192.5 76.9C194.7 76.5 196.9 76.3 199.2 76.3C199.6 76.3 200 76.4 200.3 76.3C204.2 75.3 208.2 74.8 212.2 74.8C211.8 75.7 211.2 76.4 210.5 76.9Z" fill="#001D3F"/>
<path d="M162.9 64.1L162.8 64C162.9 64.1 162.9 64.1 162.9 64.1Z" fill="#001D3F"/>
<path d="M164.3 66.7L164.2 66.6C164.2 66.7 164.2 66.7 164.3 66.7Z" fill="#001D3F"/>
<path d="M161.6 61.5C161.5 61.5 161.5 61.4 161.6 61.5Z" fill="#001D3F"/>
<path d="M87.9 55.9C87.8 56 87.6 56.2 87.4 56.4C87.3 56.5 87.3 56.6 87.2 56.7C87 56.9 86.9 57.1 86.7 57.4C85.9 58.5 85.1 60.3 84.5 62.3C84.2 63.2 84 64.2 83.8 65.2C83.7 65.5 83.7 65.8 83.7 66.1C83.6 66.6 83.6 67 83.5 67.5C83.4 67.9 83.4 68.3 83.3 68.8C83.3 69.4 83.2 69.9 83.2 70.5C83.2 70.9 83.2 71.2 83.2 71.6C83.2 71.9 83.2 72.2 83.2 72.4C83.2 72.8 83.3 73.1 83.3 73.5C83.4 73.9 83.4 74.2 83.5 74.6V74.7L85.2 76.6C85.2 76.6 85.1 75.5 85 74.8C85 74.5 85 74.2 84.9 74.2C84.9 74.1 84.8 73.9 84.8 73.7C84.7 73.4 84.7 73 84.6 72.6C84.6 72.3 84.5 72.1 84.5 71.8C84.5 71.5 84.5 71.1 84.4 70.8C84.4 70.4 84.4 70 84.4 69.6C84.4 69 84.5 68.4 84.5 67.9C84.5 67.5 84.5 67 84.6 66.6C84.6 66.3 84.7 66 84.7 65.7C84.8 64.9 84.9 64.1 85.1 63.4C85.5 61.3 86.2 59.4 86.8 58.1C87 57.7 87.2 57.4 87.3 57.1C87.6 56.7 87.8 56.3 87.9 56.1C88 56 88 55.9 88 55.9C88 55.9 87.9 55.9 87.8 56C87.9 55.9 87.9 55.9 87.9 55.9Z" fill="#001D3F"/>
<path d="M158.7 56.3C158.6 56.3 158.6 56.3 158.7 56.3Z" fill="#001D3F"/>
<path d="M160.2 49.7C160.9 49.2 161.7 48.8 162.5 48.5C162.5 48.5 162.9 45.6 162.7 42.1C162.7 41.5 162.6 40.9 162.6 40.3C162.6 40 162.5 39.6 162.5 39.3C162.5 38.9 162.4 38.6 162.3 38.3C162.2 37.8 162.1 37.3 162 37C161.8 36.2 161.6 35.7 161.4 35.4C161.1 34.8 160.8 34.8 160.8 34.8C160.5 35.2 160.1 35.5 159.7 35.7C159 36 158.3 36.2 157.8 36.2C157.3 36.3 157 36.2 157 36.2C157.1 36.4 157.2 36.7 157.3 37.1C157.5 37.7 157.6 38.3 157.7 39.1C157.8 39.7 157.9 40.4 158 41.2C158.1 41.7 158.1 42.2 158.1 42.8C158.1 43.1 158.1 43.3 158.2 43.6C158.2 44.4 158.3 45.2 158.3 46C158.3 46.8 158.3 47.5 158.3 48.2C158.3 49.9 158.2 51.1 158 51.5C158.1 51.4 159 50.5 160.2 49.7Z" fill="#001D3F"/>
<path d="M140.3 180.1C140.5 180.3 140.9 180.6 141 180.6C141.1 180.6 141.3 180.5 141.4 180.4C141.1 180.2 140.8 180 140.5 179.8C140.4 179.9 140.4 179.9 140.3 180.1Z" fill="#001D3F"/>
<path d="M122.3 151.9C123.3 152.9 123.1 152 123.3 151.4C123.3 151.4 123.3 151.4 123.3 151.3C122.6 151 121.8 150.6 121 150.3C120.9 150.5 120.9 150.7 120.9 151C120.9 151.2 121.9 151.5 122.3 151.9Z" fill="#001D3F"/>
<path d="M125.3 152.3C125.2 152.2 125.2 152 125.1 151.8C124.5 151.5 124.1 151.3 123.6 151.1C123.5 151.2 123.4 151.3 123.4 151.5C124 151.7 124.6 152 125.3 152.3Z" fill="#001D3F"/>
<path d="M144.6 143.7C145.4 144.6 146.3 145.4 147.2 146.2C147.7 146.3 148.2 146.4 148.8 146.5C149.8 145.7 150.4 146.3 151.1 146.9C152.9 147.2 155 147.7 157.7 148.2L157.6 148.1C155.4 147.3 152.5 146.3 148.8 145C148.8 145 148.7 145.1 148.6 145.1C148.6 145 148.5 144.9 148.5 144.9C147.2 144.6 145.9 144.1 144.6 143.7Z" fill="#001D3F"/>
<path d="M114.9 160.9C115 160.9 115.1 161 115.2 161H115.3C115.1 161 115 160.9 114.9 160.9Z" fill="#001D3F"/>
<path d="M125.4 152.4C125.5 152.4 125.6 152.4 125.7 152.4C125.6 152.3 125.4 152.3 125.3 152.2C125.3 152.4 125.4 152.4 125.4 152.4Z" fill="#001D3F"/>
<path d="M115.2 161C115.6 161.1 116.1 161.2 116.5 161.4L116.4 161.3C116 160.8 115.7 160.8 115.2 161Z" fill="#001D3F"/>
<path d="M161.5 149.7C161.5 149.6 161.5 149.5 161.5 149.4C161.3 149.2 161 149 160.7 148.9C160.6 148.9 160.5 148.9 160.4 148.8C160.3 148.9 160.1 149 160 149.1C160.5 149.3 161 149.5 161.5 149.7Z" fill="#001D3F"/>
<path d="M140.5 179.7L140.6 179.6C140.3 179.5 140.1 179.4 139.8 179.2C140 179.4 140.3 179.6 140.5 179.7Z" fill="#001D3F"/>
<path d="M170.3 168.7C171.1 169.1 172.1 169.5 173.5 170.1C172.8 169.7 171.9 169.2 170.9 168.6C170.7 168.6 170.6 168.7 170.3 168.7Z" fill="#001D3F"/>
<path d="M141.5 182.1C141.9 182.1 142.3 182 142.6 182C142.5 181.9 142.4 181.8 142.3 181.7C142 181.8 141.7 182 141.5 182.1Z" fill="#001D3F"/>
<path d="M45.2 146.3C45.2 146.4 45.2999 146.5 45.2999 146.5C45.1999 146.4 45.2 146.4 45.2 146.3Z" fill="#001D3F"/>
<path d="M143.7 160.4C141.1 159.3 137.3 157.7 131.8 155.2C135.5 157.1 140.4 159.6 147.1 163C146.9 162.5 146.8 162 146.5 161.6C145.8 161.3 144.9 160.9 143.7 160.4Z" fill="#001D3F"/>
<path d="M143.3 181.8C143.6 181.5 143.8 181.2 144.1 181.4C144.1 181.3 144.1 181.2 144.1 181.1C143.6 180.9 142.8 180.6 141.7 180.1C141.6 180.2 141.5 180.2 141.4 180.3C142.3 181 142.9 181.5 143.3 181.8Z" fill="#001D3F"/>
<path d="M160 149.1C159.4 148.9 158.8 148.6 158 148.4C157.9 148.4 157.7 148.3 157.6 148.3C158.1 149 158.9 149.7 160 149.1Z" fill="#001D3F"/>
<path d="M139.8 179.2C138.9 178.5 138.3 178 137.9 177.5C137.4 177.7 137.7 178.4 139.8 179.2Z" fill="#001D3F"/>
<path d="M162.7 137.9C163.6 137.8 164.3 137.9 165 137.7C165.4 137.6 165.9 136.7 165.9 137.7C165.9 139.5 167.9 138.5 168.4 139.8C168.8 140.9 169.4 139.4 170.2 139.4C171.7 139.5 171.2 139.8 170.9 140.8C170.5 142.4 171.5 141.6 172 141.1C174 143.7 177.8 142.8 180 145.1C181.6 145.1 181.9 146.5 182.5 147.5C183 147 183.5 146.5 184.1 145.9C184.6 146.4 185.3 146.9 185.6 147.5C186.2 148.7 187.1 147.4 187.6 147.9C188.1 148.4 188.3 149.3 188.8 149.8C189.3 150.3 190.2 150.5 190.7 151C191.4 151.8 191.7 151.1 192.2 150.9C192.4 150.8 193.2 151.1 193.3 151.5C194.1 153.3 194.1 153.5 196.3 154.1C197.6 154.5 198.4 155.1 198.7 155.8C199.2 155.7 199.6 155.8 200 155.9C200.9 154.9 201.7 153.9 202.5 152.9C202 152.6 201.4 152.3 200.9 151.9C200 153.3 199.3 151.3 198.3 151.7C198 151.8 197.2 151.2 196.8 150.7C196.7 150.6 197.1 150 197.2 149.6C196.7 149.5 196.1 149.3 195.7 149.4C194.2 149.8 194.3 148.5 193.7 147.8C192.8 149.2 192 147.9 191.1 147.8C190.1 147.6 190.1 147.1 190.2 146.4C190.2 145.3 189.6 144.9 188.8 145.6C188 146.2 187.5 146.3 186.8 145.6C185.6 144.3 184.3 143 182.3 142.9C182 142.9 181.4 142.6 181.4 142.4C181.2 140.8 180.7 141.2 179.6 141.8C178.1 142.6 177.7 142.3 177.4 140.7C177.2 139.7 177.1 139.6 176.3 140.3C176.1 140.5 175.2 140.1 174.7 139.9C174.1 139.7 173.6 139.1 173.1 139C172.2 138.8 171.2 139.2 170.3 138.9C169.6 138.7 169.2 137.5 168.6 137.4H168.5C166.8 137.4 165.1 137.4 163.3 137.4C163 137.4 162.8 137.6 162.7 137.9Z" fill="#001D3F"/>
<path d="M181.7 139.6C182.9 139.2 183.7 140 184.4 140.8C184.9 141.3 185.3 142.7 186.4 141.3C186.9 142 187.3 142.8 187.8 143.5C187.9 143.7 188.3 143.7 188.5 143.7C191.2 144.2 194.1 145.5 196.3 147.2C196.6 147.4 196.9 147.6 197.3 147.7C198.2 148 199.2 148.3 200.2 148.5C201.3 148.7 201.8 149.4 202.2 150.5C202.3 150.9 202.9 151 203.5 151.2C204.2 150.2 204.8 149.1 205.3 148.1C204.4 148.2 203.3 148.8 203 147.7C202.9 147.3 202.1 147 202.2 146.8C202.4 144.5 201.2 146.2 200.5 146.1C199.9 146 199.2 145.9 198.8 145.5C198.1 144.8 197.4 144.5 196.4 144.5C195.3 144.4 194.3 143.9 193.6 143.6C193.7 143 193.8 142.3 193.8 142.2C193.2 142 192.5 142.1 191.9 141.9C188.3 140.5 184.8 139.1 181.2 137.7C181.1 137.7 181 137.6 180.9 137.6C180.6 137.6 180.2 137.6 179.8 137.6C180.5 138.1 180.2 140 181.7 139.6Z" fill="#001D3F"/>
<path d="M149.9 139.6C151.7 139.6 152.7 139.3 153.5 139.7C154.2 140 154.7 140.5 155.3 139.7C155.3 139.7 156.2 140 156.4 140.4C156.7 140.9 156.6 141.7 157 142.2C157.2 142.6 158.1 143 158.2 142.9C160.4 140.6 161.1 144.3 162.8 144C163 145.3 163.4 146 164.8 144.8C165.3 144.3 165.9 144.4 166.2 145.3C166.7 146.5 167.3 147.9 169 146.3C169.2 146.2 170.8 147.1 170.9 147.6C171 149.2 172.7 148.4 173.1 149.3C174.7 147.7 175.4 149 175.8 150.3C176.1 151.3 176.8 151 177.4 151C178.6 151 179.6 151 179.6 152.6C179.8 152.1 179.9 151.7 180.1 151.2C180.6 151.4 181.1 151.6 181.7 151.8C182.6 152.1 182.3 153.6 183.7 153.7C184.1 153.7 186 153.9 185.6 155.5C185.9 155.4 186.2 155.5 186.4 155.3C187.3 154.7 187.9 154.9 187.9 156.1C187.8 157.7 188.3 157.1 189.3 156.8C191.1 156.2 191.6 157 191.4 159.3C191.4 159.5 192.2 159.9 192.2 159.9C193.4 158.4 194.4 159.2 195 160.3C195.1 160.4 195.2 160.5 195.3 160.7C196.5 159.7 197.6 158.7 198.6 157.8C198.5 157.4 198.6 156.9 198.9 156C197.3 157.2 196.2 158.6 195.7 156.2C195.5 155.5 194.6 154.5 193.5 155.6C193.4 155.7 192.9 155.7 192.7 155.5C190.5 153.5 190 153.2 186.2 152C186.1 152 186 151.9 185.8 151.9C184.4 151.8 185.4 149.4 183.6 149.6C182.5 149.7 181.5 149.6 180.8 148.6C180.5 148.2 179.7 148 179.1 148C177.6 147.9 176.1 148.1 175.9 146.1C174.5 145.7 173.1 145.1 171.7 144.9C170.8 144.7 170.5 144.6 170.2 143.6C170 142.9 169.1 141.5 167.8 142.9C167.8 142.9 167.2 142.7 167.2 142.5C167 141.3 166.4 141.2 165.6 141.9C164.5 143 164 142 163.4 141.4L160.2 139.1C158.8 139.4 157.7 138.6 156.5 138.4C155.4 138.2 153.9 139.4 153.4 137.5C152.6 137.5 151.9 137.5 151.1 137.5C151.7 137.9 152.2 138.3 152.9 138.7C151.8 138.7 151.3 138.9 149.9 139.6Z" fill="#001D3F"/>
<path d="M190.5 138.8C191.3 138.6 191.7 138.9 191.8 139.8C191.8 140 192.9 140.4 192.9 140.3C193.9 138.9 194.8 140.4 195.4 140.6C196.4 141 197.1 141.9 198.4 142.1C200 142.3 201.5 143.6 203.1 144.2C204.1 144.6 204.7 144.8 204.5 146C204.4 146.6 204.6 147 205.3 146.4C205.6 146.2 205.9 146.1 206.2 146C206.4 145.4 206.6 144.8 206.8 144.1C206.1 143.4 205.4 142.8 204.1 143.6C202 141.5 198.7 141.2 196.8 138.8C196.6 138.5 196.1 138.3 195.7 138.2C194 138.1 192.9 138.1 192.1 137.7C190.9 137.6 189.6 137.6 188.2 137.6C188.8 138.4 189.2 139.2 190.5 138.8Z" fill="#001D3F"/>
<path d="M166.8 168.9C167.4 168.6 168.3 168.1 168.9 167.9C167.3 167.2 166.8 167 166.3 167.7C166.2 167.8 165.4 167.4 165 167.1C164.5 166.7 164.3 166 163.2 166.7C162.3 167.4 160.8 167.2 161.1 165.2C161.1 165 160.1 164.7 159.8 164.3C159.5 163.9 160.7 163.2 159.7 162.6C159.2 162.3 158.9 161.6 158 161.4C158.1 161.8 158.1 162.3 158.2 162.7C158.3 163 158.4 163.3 158.5 163.5C158.3 163.5 157.9 163.7 157.8 163.6C157.1 163 156.5 162.3 155.7 161.8C155 161.4 154 161.3 153.3 160.9C152.6 160.5 153.9 159 152.3 158.8C152.3 159.1 152.3 159.5 152.3 160C152.3 159.9 152.2 159.7 152.1 159.4C151.8 160.2 151.4 160.4 151.3 160.4C150.1 159.3 148.9 158.6 147.1 158.7C146.7 158.7 146 157.4 145.9 156.6C145.7 155.2 144.7 155.4 144.2 155.7C142.9 156.4 142.2 156.2 141.9 154.8C141.7 153.8 141.2 154 140.5 154.2C139.9 154.4 140.8 155.7 139.7 155.4C139 155.2 138.1 154.7 138 154.2C137.6 152.8 136.6 152.7 135.5 152.3C134.3 151.8 133.4 150.5 132.4 149.4C132.3 149.3 132.5 148.6 132.8 148.4C133 148.3 133.7 148.4 133.8 148.6C134.4 150.2 135.3 151 137 149.9C137.1 149.8 137.3 149.8 137.4 149.9C138.3 150.7 139 151.7 140.1 152.2C141.1 152.7 142.3 152.1 143.4 153C145 154.3 146.8 155.5 149.2 155.5C149.7 155.5 151.8 158 152.4 159.3C152.5 159.1 152.5 158.9 152.6 158.7C152.6 158.1 152.6 157.8 152.6 157.5C153.2 157.6 153.9 157.7 154.5 157.9C155.4 158.3 154.5 158.6 154.4 158.9C154.1 159.8 154.1 159.6 155.2 159.7C156.9 159.8 158.6 160.1 160.3 160.4C160.4 160.4 160.5 160.6 160.6 160.7C161.1 162.5 162.1 163.7 164.2 163.5C165.1 165.2 167 165.2 168.5 165.8C169.6 166.3 169.4 166.8 169.5 167.5C169.6 167.5 169.6 167.6 169.7 167.6H169.8C170.8 168.4 171.7 168.2 172.7 168.3C173.1 168.4 173.8 168.8 173.9 169.1C173.9 169.4 174 169.6 174.1 169.7C174.9 170 175.9 170.4 176.9 170.7C175.8 170.6 174.5 170.8 174.1 169.7C173.5 169.4 172.9 169.2 172.3 169C175.9 171.1 176 171.5 175.9 171.8C177.7 171 179.4 170.2 181.1 169.4C180.7 168.6 180.8 167.4 181 165.2C181.1 165.8 182.8 165.5 181.9 166.8C181.4 167.6 182.5 168.2 183.3 168.2C184.9 167.4 186.4 166.5 187.8 165.6C187.5 165.3 187.1 165.1 186.8 164.8C185.5 164.1 184.3 163.5 183.2 162.9C182.8 162.8 182.4 162.7 182 162.7C181.1 162.6 180.8 162.4 180.6 161.6C180 161.3 179.4 161 178.9 160.7C178.8 160.8 178.7 160.9 178.6 161C178.5 161.1 177.7 160.7 177.3 160.4C176.8 160 176.5 159.5 176 159.2C175.6 159 175.2 158.8 174.8 158.6C174.6 158.6 174.3 158.6 174 158.6C173.9 158.6 173.6 158.2 173.5 157.9C171.8 157.1 171.5 156.9 171.4 156.9C172.7 155.6 173.4 155.6 173.4 157.7C173.4 157.8 173.4 157.8 173.4 157.9C173.8 158.1 174.2 158.3 174.7 158.5C175.2 158.6 175.5 158.8 175.9 159.1C176.7 159.5 177.7 160 178.8 160.6C179.6 159.9 180.3 160.8 180.4 161.3C180.4 161.4 180.4 161.4 180.4 161.4C181.2 161.8 182.1 162.3 183 162.8C183.7 163 184.4 163.2 185 163.5C185.6 163.8 186.1 164.2 186.6 164.7C187 164.9 187.4 165.1 187.8 165.3L187.9 165.2C171.6 155.1 172.7 153.7 174.1 155.6C174.8 156.6 177.2 155.9 177.4 158.1C177.4 158.2 178.3 158.4 178.8 158.4C179.7 158.4 180.5 158.4 180.8 159.3C181.3 160.8 182.5 158.7 183.2 159.9C183.7 160.7 184.3 161.6 185.6 161.7C186.5 161.8 187.3 162.7 188.1 163.3C188.7 163.8 189.2 164.4 190.1 163.6C190.3 163.4 190.5 163.3 190.7 163.2C191.6 162.6 192.4 162 193.2 161.3C193.1 160.9 192.9 160.5 192.1 160.7C191.4 160.9 190.4 160.3 189.7 159.9C188.9 159.4 189.8 159.2 189.9 158.8C190 158.5 189.9 158.1 189.9 157.4C189.4 157.8 189.2 157.9 189 158.1C187.4 159.4 187.4 159.4 186.8 157.4C186.6 156.6 186.3 156.7 185.9 157.2C185.8 157.3 185.5 157.3 185.4 157.2C184.6 156.5 183.3 156.5 182.8 155.1C182.2 153.4 180.5 154.6 179.5 154.2C178.5 153.8 177.5 153.2 176.5 152.6C173.7 150.7 170.4 149.8 167.6 147.8C166.7 147.1 165.4 147.2 164.4 146.9C162 146.3 159.7 145.2 157.7 143.8C156.3 142.9 154.4 143.1 153.5 141.4C152.9 142.6 152.3 141.6 151.7 141.4C150.9 141.1 150 140.6 149.2 140.7C148.5 140.8 148.3 139.3 147.3 140.3C147 140.6 145.8 140 145 139.9C144.2 139.8 143.5 139.7 142.7 139.3C143.8 139.2 144.8 139.1 146.1 138.9C145.1 138.2 144.7 136.7 143.4 138C143.3 138.1 142.8 138 142.6 137.8C142.1 137.5 141.6 137.1 141.1 136.8C140.5 136.8 139.8 136.8 139.2 136.8C140.3 137.4 141.3 137.9 141.9 138.9C139.8 139.4 138.1 139.3 136.6 137.5C136.3 137.1 135.4 137.1 134.8 136.8C133.9 136.8 133 136.8 132.1 136.8C132.2 136.9 132.3 137.1 132.4 137.1C133.5 137.6 134.7 137.9 135.9 138.3C136.1 138.4 136.2 138.9 136.3 139.3C136.3 139.5 136 139.8 135.8 139.8C135 139.8 134 140.1 133.5 139.7C131.7 138.3 129.5 137.7 127.5 136.8C126.7 136.8 126 136.8 125.2 136.8C126.4 137.4 127.6 137.9 128.9 138.4C129.3 138.5 129.7 139.1 129.9 139.5C130 139.7 129.7 140.2 129.6 140.5C128.8 139.1 127.7 141.4 126.8 140.3C126.2 139.6 125.1 139.2 124.3 138.6C123.9 138.3 123.5 137.5 123.2 137.5C122.1 137.6 121.3 137.3 120.5 136.9C119.1 136.9 117.6 137 116.2 137C116.8 137.2 117.4 137.4 118 137.5C118.7 137.6 119.2 138.4 119.8 139C120.4 139.6 120.7 140 121.6 139.2C121.9 138.9 123.2 139.6 124 140C124.2 140.1 124.4 140.7 124.3 141C124.2 141.2 123.6 141.6 123.4 141.5C122.6 141 122 141.1 121.2 141.5C120.8 141.7 120 141.4 119.4 141.1C116.9 139.7 114.4 138.3 111.6 137.6C111.4 137.5 111.1 137.4 110.9 137.3C109.2 137.3 107.4 137.4 105.7 137.4C105.8 137.9 105.9 138.6 106.8 138.4C107.5 138.3 108.4 138.5 109 138.9C109.7 139.3 110.1 139.2 110.7 138.7C110.9 138.5 111.7 138.4 111.7 138.4C112.4 141 115.6 139.8 116.7 141.7C116.8 141.8 116.8 141.9 117 142.2C115.1 142.5 113.5 142.8 111.9 141.2C111.4 140.7 110 139 108.7 140.7C107.2 140.2 105.7 139.7 104.3 139C103.3 138.5 102.3 138.1 101.3 137.6C99.7001 137.6 98.2001 137.7 96.7001 137.7C98.4001 138.6 100.1 139.4 102 140.3C100.6 141.1 99.7001 141.1 98.3001 140.4C96.7001 139.6 95.1001 138.7 93.6001 137.8C92.1001 137.8 90.6001 137.9 89.2001 138C89.6001 138.4 90.0001 138.7 90.5001 138.8C91.7001 139.1 93.2001 139.3 93.9001 140.1C94.9001 141.3 95.7001 141.9 97.3001 141.7C97.7001 141.6 98.5001 142 98.5001 142.2C98.5001 143.1 98.9001 143.2 99.7001 143.3C102 143.6 101.9 143.6 103.5 146.4C102.3 146.4 100.9 146.8 100.4 146.3C98.2001 144.1 94.8001 143.9 92.6001 141.8C91.1001 140.4 88.7001 140.4 87.6001 138.4C86.6001 138.8 85.7001 138.8 84.9001 138.1C83.5001 138.2 82.2001 138.2 80.9001 138.3C81.4001 138.9 81.9001 139.7 82.7001 139.8C84.4001 140 85.7001 140.8 87.2001 141.5C88.2001 142 89.3001 142 89.7001 143.4C89.9001 143.9 90.8001 144.4 91.4001 144.6C92.2001 144.8 93.0001 143.4 93.9001 144.7C94.4001 145.4 95.4001 145.6 96.0001 146.2C96.4001 146.6 96.8001 147.6 96.6001 147.8C96.2001 148.3 95.4001 148.6 94.7001 148.8C94.6001 148.8 94.3001 148.3 94.1001 148.3C92.3001 148.3 92.4001 146 91.2001 145.8C89.7001 145.5 88.9001 145.1 88.5001 143.6C88.3001 142.8 87.5001 142.6 86.5001 143.1C86.1001 143.3 85.2001 142 84.4001 141.8C83.6001 141.5 82.5001 141.8 81.7001 141.5C81.2001 141.3 81.4001 140.4 80.4001 140C79.5001 139.7 78.7001 139 77.7001 138.6C76.0001 138.7 74.4001 138.8 72.7001 138.9C72.8001 139 73.0001 139.2 73.1001 139.4C73.2001 139.5 73.8001 139.5 73.9001 139.4C74.9001 138.1 75.4001 139.2 75.9001 139.8C76.8001 140.9 78.4001 142.4 79.5001 142.6C81.3001 142.8 82.5001 144.6 84.4001 144.3C84.7001 144.3 85.4001 145 85.5001 145.4C85.8001 147 86.3001 147.2 87.9001 146.8C88.8001 146.6 90.0001 147.9 91.1001 148.6C91.2001 148.7 91.2001 149.1 91.2001 149.3C91.1001 149.5 90.9001 149.8 90.7001 149.8C89.8001 149.9 88.8001 149.8 87.9001 149.8C87.1001 149.8 86.6001 149.8 86.3001 148.7C86.0001 147.7 84.8001 146.9 83.9001 146.1C83.6001 145.9 82.9001 145.9 82.6001 146.1C82.1001 146.4 81.9001 146.7 81.6001 145.9C81.4001 145.3 80.6001 144.2 80.3001 144.3C79.5001 144.4 79.3001 142.9 78.3001 143.8C78.1001 143.9 76.9001 143.1 76.4001 142.5C75.8001 141.8 75.0001 141.9 74.3001 141.7C73.6001 141.5 73.2001 140.6 72.5001 140.3C72.0001 140.1 70.7001 140.7 70.7001 140.7C70.4001 139.9 69.9001 139.4 69.2001 139.1C67.9001 139.2 66.6001 139.3 65.4001 139.4C65.4001 139.4 65.5001 139.4 65.5001 139.5C66.6001 140.3 67.5001 141.8 68.9001 141.8C70.9001 141.8 71.2001 143.8 72.7001 144.3C73.5001 144.6 74.3001 145 75.2001 145.1C76.2001 145.2 76.9001 145.1 77.1001 146.4C77.1001 146.8 78.1001 147.5 78.6001 147.4C80.6001 147 81.5001 148.4 82.6001 149.5C83.1001 150 84.9001 149.7 84.1001 151.1C83.8001 151.6 82.4001 151.5 81.5001 151.5C80.9001 151.5 80.3001 151.1 79.9001 150.7C79.8001 150.6 80.3001 149.8 80.1001 149.7C79.8001 149.4 79.3001 149.1 78.9001 149.2C77.6001 149.4 77.1001 148.9 76.7001 147.7C76.4001 146.6 75.3001 147.5 74.8001 147.2C73.4001 146.4 72.1001 144.5 70.8001 144.5C68.9001 144.4 68.2001 142 66.3001 142.7C66.0001 141.2 64.6001 141.3 63.6001 140.8C63.0001 140.5 62.5001 140.1 62.0001 139.8C60.5001 139.9 59.0001 140 57.6001 140.2C57.8001 140.3 58.0001 140.3 58.2001 140.4C60.1001 140.7 62.0001 140.8 62.6001 143.2C62.7001 143.6 63.6001 143.8 64.2001 144.1C66.8001 145.2 66.8001 145.2 68.2001 146.9C69.8001 147.1 71.8001 146.2 72.3001 148.8C72.4001 149 73.2001 149.4 73.5001 149.3C76.2001 148.2 76.6001 151.4 78.4001 151.9C78.3001 152.2 78.3001 152.6 78.1001 152.7C76.9001 153.6 75.0001 153.8 74.7001 152.8C74.1001 151 71.9001 151.1 71.5001 149.4C71.2001 148.2 70.7001 148.4 69.9001 148.8C68.4001 149.5 68.4001 149.4 68.3001 147.7C68.3001 147.4 68.3001 147.2 68.3001 146.9C67.1001 147.4 65.2001 147.1 63.8001 146C61.7001 144.4 59.8001 142.6 57.2001 141.9C56.3001 141.7 55.5001 141.1 54.7001 140.7C52.1001 141 49.9001 141.3 48.2001 141.6C48.2001 142 48.1001 142.4 48.1001 142.8C47.6001 142.7 47.1001 142.7 46.7001 142.5C46.4001 142.3 46.2001 142.2 45.9001 142C44.4001 142.4 43.6001 142.8 43.6001 143.2C43.6001 143.3 43.6001 143.4 43.6001 143.4C43.6001 143.4 43.6001 143.4 43.6001 143.5C44.7001 145.5 47.5001 144.9 48.7001 146.9C48.8001 147 49.3001 147 49.5001 146.9C50.1001 146.4 50.7001 145.5 50.7001 147.2C50.7001 147.9 51.1001 148.5 51.4001 149.4C50.0001 148.9 48.2001 148.8 47.6001 147.9C46.9001 146.8 45.2001 147.3 44.5001 146.5C46.1001 149.9 49.7001 154.3 55.2001 158.9C57.2001 158.9 59.2001 159.2 61.1001 160.1C60.3001 160.8 59.4001 161.2 58.4001 161.4C67.2001 167.9 79.7001 174.4 95.0001 178.3V178.2C95.2001 178.2 95.3001 178.1 95.5001 178.1C95.6001 178.2 95.6001 178.4 95.7001 178.5C99.9001 179.6 104.4 180.4 109.1 181C109.1 180.9 109.2 180.8 109.2 180.8C108.5 180 108.6 179.8 109.6 179.7C110.9 179.5 111.1 180.2 111.1 181.2C111.6 181.3 112.1 181.3 112.6 181.4C113.2 180 114 180.6 115 181.6C116.1 181.7 117.3 181.8 118.4 181.8C117.6 180.2 116.9 178.8 116.1 177.4C115.3 179 114.3 179.3 113.3 178.4C113.2 178.3 113.1 178.2 113 178.1C112.4 177.1 111.7 176.1 110.6 174.3C112 175.2 112.5 175.6 113.2 175.9C113.9 176.2 114.6 176.4 115.3 176.5C115.8 176.5 116 175.2 116.7 176.3C117.1 176.9 117.6 177.4 117.8 178C118.1 178.7 119.9 181.3 120.7 182C121.1 182 121.4 182 121.8 182C122.5 181.2 123.2 181.1 123.9 182C124.2 182 124.5 182 124.8 182C125.2 181.7 125.6 181.2 126.1 181.8C126.2 181.9 126.3 181.9 126.4 182C126.9 182 127.4 182 128 182C128.2 181.9 128.5 181.8 128.7 181.7C126 180.7 124.9 178.7 123.7 176.7C125.3 176.4 126.2 176.8 126.8 178.1C127.1 178.8 127.6 179.6 128.2 179.8C129.3 180.2 130 180.7 130.1 181.9C130.1 182 130.2 182 130.3 182C130.6 182 130.9 182 131.2 182C131.3 181.7 131.5 181.3 131.5 181C131.5 180.6 130.4 180.4 131.3 179.9C131.5 179.8 132 180.1 132.4 180.2C133.2 180.4 133 181.4 133.4 181.9C135.7 181.8 138 181.6 140.2 181.3C139.4 181.5 138.7 181 138.1 180.2C137.4 179.3 136.6 178.8 135.4 179C135 177.5 134 177.2 132.5 177.4C131.4 177.5 131.6 176.6 131.7 176C131.9 175.2 130.3 174.8 131.6 173.8C132.7 172.9 133.2 174 133.9 174.2C135.5 174.6 135 175.2 136.6 176.8C136.8 176.7 137.3 176.9 137.7 177.3C138.3 177.9 140.6 177.1 139.3 178.8C139.7 179 140.1 179.2 140.4 179.3C140.6 179.2 140.8 179.1 141 179C141.6 178.8 142.6 179.7 142.8 180.3C143.5 180.6 143.8 180.7 144.1 180.8C145.6 180.6 147.1 180.4 148.6 180.1C148.6 180 148.5 179.8 148.5 179.6C148.5 179 148.8 178.2 147.7 178.4C147.4 178.7 146.9 179 146.7 178.9C146.1 178.5 145.5 177.9 144.9 177.4C143.6 176.1 142.4 174.9 140.4 174.9C140.1 174.9 139.9 174.2 139.6 173.9C140 173.7 140.7 173.3 140.8 173.5C141.6 174.2 141.9 174.4 142.1 173.1C142.2 172.4 143 172.5 143.6 173C145.2 174.5 145.5 177.1 147.6 178.2V178.3C147.7 177.2 148.3 177.3 148.9 177.5C149.3 177.7 149.7 178.6 149.9 177.6C150.4 175.4 151.3 176.6 151.9 177.4C152.3 177.9 152.8 178.6 153 179.2C155.1 178.8 157.1 178.3 159.1 177.8C158.9 177.4 158.7 177.1 158.4 176.7C158.1 177.2 157.9 177.7 157.5 178.2C157.4 178.3 156.8 178.3 156.8 178.3C156.6 177.9 156.3 177.2 156.5 177C157.9 175.7 156.8 175.1 155.9 174.3C155 176.2 154.6 176.4 153.7 175.1C153 174.2 152.8 172.9 151.3 173.4C148.7 172 146.1 170.6 143.3 169.1C144.1 168.7 144.6 168.5 146 167.8C144.3 167.8 143.6 167.6 142.8 167.8C140.5 168.4 139 166.7 137.2 165.8C136.2 165.3 136.1 164.3 136.3 163.4C136.4 163 136.6 162.5 136.9 162.2C137 162.1 137.6 162.3 137.9 162.6C138.3 163 139.1 163.2 138.2 164C137.7 164.4 137.7 165.3 138.7 165.3C139.1 165.3 139.4 164.6 140 163.9C140.7 164.3 141.6 164.9 142.4 165.4C142.7 165.6 143 166 143.3 166.1C144.4 166.2 145.6 166.6 146.6 166.8C148.4 167 146 168.6 147.5 168.6C148.6 168.6 149.4 170.7 151 169.4C151.1 169.3 151.9 170.2 152.4 170.6C151.6 171.3 151.3 171.8 152.8 171.8C153.3 171.8 153.7 172.2 154.2 172.3C155.2 172.5 156.3 172.5 157.1 172.9C157.8 173.3 158.1 174.3 158.6 175C159 175.7 159.5 175.7 160 175C160.1 174.8 161 175 161 175C161 175.8 161.4 176.4 161.8 177C163.8 176.4 165.7 175.8 167.6 175.2C166.9 174.7 166.4 175 165.8 175.6C164.8 174.4 162.9 174.5 162 173.5C161 172.4 160.5 171.6 158.7 171.6C157.7 171.6 156.5 170.5 155.6 169.7C154.5 168.8 153.4 167.9 152 167.8C151.2 167.7 151 167.5 150.7 166.8C150.3 165.8 149.5 164.6 148.1 166C148.1 166.1 147.3 165.4 147 165.2C147.5 164.6 148 164.1 148.4 163.7C147.9 163.4 147.4 163.2 146.7 162.8C146.4 162.6 146.1 162.5 145.7 162.3C145.7 162.4 145.7 162.4 145.8 162.5C146 163 147.5 162.8 146.5 163.7C146.3 163.9 145.3 163.5 144.9 163.1C144.3 162.5 143.8 162.1 143.1 163C143 163.1 142.1 162.9 142.1 162.7C141.9 161.9 141.8 161.3 140.7 161.4C139 161.5 138.7 159.2 137.3 159.1C136 159 134.8 158.5 133.7 158.2C133.4 158.1 133.3 157.3 133.2 156.9C133.1 155.8 132.6 155.5 131.7 156.2C131.1 156.7 130.7 157 130 156.4C127.7 154 124.5 153.5 121.5 152.8C120.2 152.5 119.1 152.5 118.6 150.9C118.3 150 117.4 149.3 116.8 148.5C117.8 148.9 118.7 149.4 119.6 149.8C119.8 149.4 120.2 149.5 122.1 150.4C122.4 150.1 122.9 150.2 123.3 150.6C123.4 150.7 123.5 150.9 123.6 151.1C124.1 151.3 124.6 151.6 125.2 151.9C125.9 151.9 126.5 151.9 127.2 152C127.2 152.7 127.5 153 127.9 153.3C126.9 152.8 126 152.3 125.3 151.9C125 151.9 124.7 151.9 124.4 151.8C126.6 152.8 128.7 153.7 130.5 154.6C130 154.3 129.5 154.1 129 153.8C129.2 153.9 129.4 154 129.6 154.1C130.4 154.6 131.5 154.7 132.5 154.7C134.5 154.8 136 155.8 137.7 156.7C139.2 157.5 141.2 157.7 142.1 159.5C142.2 159.6 142.3 159.8 142.4 159.8C144 159.4 144.8 160 145.3 160.9C147.8 161.8 148 161.6 148.2 161.4C149.4 162.7 150.2 164.5 152.3 164.7C152.4 164.7 152.5 165.1 152.6 165.3C153.2 166 153.2 166 153.8 164.3C154.3 165.2 154.6 166 155.1 166.6C155.6 167.3 156.2 168.2 157.1 167C157.1 167 158 167.4 158.1 167.7C158.8 168.9 159.2 170.2 160.9 168.7C161.1 168.5 162 169.7 162.3 170.8C162.4 171 162.8 171.1 162.8 171.4C162.9 172 162.9 172.9 163.8 172.6C164.2 172.5 164.5 171.7 165 171C165.2 171.8 165.3 172.5 165.4 173.4C165.8 173.4 166.3 173.6 166.7 173.5C168 173.4 169.2 173.4 169.9 174.6C171.3 174.1 172.6 173.6 173.8 173.1C172.4 171.9 170.9 170.8 169.5 169.7C168.4 170.9 167.7 169.7 166.8 168.9ZM70.1001 155.4C69.1001 154.7 67.9001 153.9 66.8001 153.2C65.7001 152.5 65.7001 151.5 65.7001 150.1C65.7001 150 65.6001 149.9 65.6001 149.8C63.8001 151.3 62.2001 150.3 60.7001 149.4C59.6001 148.8 58.7001 147.8 57.6001 147.2C57.1001 146.9 56.3001 147.3 55.5001 147.3C55.4001 146.9 55.3001 146.2 55.1001 145.2C54.1001 145.2 53.1001 145.2 51.8001 145.2C54.2001 143.2 54.0001 143.4 56.2001 144.8C57.7001 145.8 59.3001 147.1 61.3001 146.9C61.3001 147.3 61.3001 147.7 61.3001 148.5C62.3001 149.2 64.8001 147.7 65.6001 149.8C65.7001 149.8 65.7001 149.7 65.8001 149.7C65.8001 149.9 65.8001 150 65.8001 150.2C68.6001 151.5 70.8001 153 73.3001 154.6C71.9001 154.8 70.9001 155.1 70.1001 155.4ZM174.1 163.4C174 163 173.8 162.5 173.7 162.1C173.6 161.9 173.5 161.7 173.4 161.5C173.6 161.4 174 161.2 174.1 161.2C176.1 163 179.1 163.8 179.7 166.9C179.8 167.3 179.7 167.7 179.7 168.5C177.8 166.7 175.2 166.6 173.7 164.5C173.6 164.4 172.8 164.7 172.4 164.8C172.2 164.8 172 164.9 171.8 164.9C171.5 162.1 167.6 163.7 167.1 161.1C166 160.8 164.9 160.6 163.8 160.3C161.7 159.6 160.8 158.3 161.1 156.3C161.1 156 161.5 155.7 161.7 155.5C161.9 155.4 162.3 155.5 162.4 155.7C163.1 157.7 165.3 157.9 166.7 158.6C170.2 160.2 171.1 160.7 174.1 163.4ZM142.9 141.7C143.7 142.3 145 142.3 146 142.8C146.4 143 146.6 143.5 146.9 144.1C147 144.1 147.1 144.2 147.2 144.2C147.8 143.7 148.4 143.2 148.9 142.7C149.3 142.9 149.6 142.9 149.8 143C151 144 151.8 145.5 153.7 145.2C154.7 145 155 146.1 155.6 146.8C155.7 146.9 155.9 147.1 156 147.3C156.2 147.4 156.4 147.4 156.5 147.5C157.3 147.6 158 147.8 158.9 148C158.9 148 159.1 148 159.2 148.1C160 148.3 160.7 148.4 161.6 148.6C161.3 148.7 161.2 149.1 161.1 149.4C163.3 150.3 163.7 150.7 164.1 151.1C164.5 151.4 165.2 151.9 165.4 151.7C168 150 168.2 153.4 169.8 153.8C170.5 154 169.5 155.1 168.9 155.5C168.6 155.7 167.9 155.6 167.6 155.4C166.5 154.5 164.8 153.6 163.3 153.4C161.8 153.2 161.2 151.2 159.5 151.4C159.6 151 159.9 150.2 159.9 150.3C160.8 150.6 161 150 161.1 149.5C160.8 149.4 160.4 149.2 160 149C160 149.2 159.9 149.4 159.8 149.5C158.4 151.2 157.4 151.5 156.3 150.3C156 150 155.6 149.4 155.4 149.4C153.1 149.8 152.1 147.7 150.4 146.9C150.1 146.8 149.8 146.5 149.6 146.2C148.8 146 148 145.9 147.3 145.8C147.2 145.9 147.1 146 147 146.1C146.9 146.2 146.1 145.8 145.7 145.5C141.9 144.7 141.6 144.5 140.9 143.9C139.1 142.5 137 142.3 134.5 141.9C137.6 140.4 140.2 139.6 142.9 141.7ZM102.1 153.9C102.5 154.4 103 154.9 103.5 155.3C104.1 155.8 104.5 155.8 105 155C105.8 153.8 105.8 153.9 106.6 155C107.2 155.8 107.8 156.6 108.7 157.8C106.5 157.8 105.6 155.2 103.7 157C103.5 157.2 102.3 156.2 101.6 155.8C100.9 155.3 100.2 154.8 99.4001 154.3C100.1 153.6 100.8 152.4 102.1 153.9ZM99.9001 157.8C101 158.5 102.2 159.2 103.3 160C103.8 160.4 104.2 160.9 104.8 161.3C105 161.4 105.5 161.1 105.8 161C105.6 160.7 105.3 160.4 105 160C106.3 159.7 107.7 158.9 107.5 161.3C107.5 161.5 108.2 161.8 108.5 162.1C108.8 162.4 108.9 162.9 109.1 163.3C108.6 163.4 108.1 163.6 107.8 163.5C106.8 162.9 106.2 161.1 104.7 162.9C104.6 163 103.7 162.7 103.4 162.4C102.1 161.2 100.8 159.9 99.5001 158.6C99.5001 158.2 99.7001 158 99.9001 157.8ZM98.5001 176.1C97.5001 175.3 96.6001 175.6 95.7001 176.6C95.6001 176.2 95.4001 175.9 95.4001 175.6C95.3001 175.2 95.3001 174.8 95.3001 174.5C95.0001 174.4 94.8001 174.2 94.6001 174.2C93.7001 174.2 92.7001 174.2 91.8001 174.1C91.6001 174.1 91.3001 173.5 91.4001 173.2C91.4001 173 92.1001 172.6 92.1001 172.6C93.0001 173.3 93.9001 172.6 94.6001 172.7C95.5001 172.8 96.4001 173.3 97.5001 173.4C98.4001 173.6 99.3001 174.3 100 174.9C101.2 175.9 102.1 177.1 102.9 179.3C101 177.9 99.8001 177 98.5001 176.1ZM107.8 170.1C107.5 170.1 107.1 170.2 107 170C102.3 165.6 101.6 164.8 101.1 162.3C103.2 165.5 106.2 166 109.3 167.1C108.6 168.4 108.2 169.3 107.8 170.1ZM129.7 173.6C129.9 173.8 129.7 174.3 129.6 174.7C129.1 174.7 128.6 174.8 128.3 174.6C127.2 173.8 126.6 172.6 124.8 172.4C123.6 172.3 122.7 170.9 121.1 170.8C119.9 170.7 118.9 168.9 117.8 167.8C117.5 167.5 117.3 167 117 166.3C117.7 166.3 118.6 166 119.1 166.4C119.6 166.7 120 167.6 120.1 168.3C120.2 169.1 120.7 169.8 121.3 169.3C123.1 167.8 123.7 168.8 124.2 170.4C124.3 170.6 124.5 170.7 124.7 171C124.9 170.4 125.1 169.9 125.4 169C125.7 170.1 125.8 170.9 126 171.6C127.8 169.9 129 172.2 130.4 171.9C130.6 172.9 127.9 171.9 129.7 173.6ZM132 166.2C132.4 166.2 132.7 167.2 133.1 167.7C133.3 168 133.6 168.5 133.8 168.4C136.1 168 137.4 169.4 138.8 170.8C139.2 171.2 139.8 171.5 140.8 172.2C139.6 172.3 139 172.4 138.3 172.5C137.5 172.5 136.7 172.5 136 172.5C135.1 171.8 136.4 169.9 134.2 170C132.5 170.1 131.8 168.3 131.1 166.8C130.8 167.1 130.6 167.5 130.3 167.7C129.8 168 129.2 168.2 128.7 168.4C128.6 167.8 128.4 167.2 128.2 166.2C127.5 164.9 124.4 167.7 124.3 164.6C124.1 164.5 123.9 164.4 123.7 164.3C123.3 164.4 122.9 164.5 122.4 164.4C121.7 164.3 121.6 164.3 120.7 163.1C120 162.8 119.4 162.6 118.9 162.3C118.1 163 117.5 162.8 116.8 162C116.5 161.6 116.1 161.3 115.7 160.9C115 160.6 114.3 160.3 113.8 160C113.7 160 113.7 160 113.6 160.1C112.3 160.7 110.8 160.6 109.9 159C111.2 159.3 112.4 159.6 113.5 159.9C110.9 158.7 111.3 158.5 111.8 158.3C110.9 157.8 110.3 157.5 109.2 156.9C110.2 156.6 110.6 156.3 110.8 156.4C111.5 156.8 112.1 157.3 112.6 157.9C113.2 158.5 113.8 159 114.7 158.8C115.8 158.5 116.7 159.1 117 159.9C117.2 160.6 117.4 160.9 117.6 161.1C116.8 160.9 116 160.6 115.2 160.4C115.4 160.6 115.6 160.8 115.7 160.9C116.6 161.3 117.6 161.7 118.9 162.3C119 162.2 119 162.2 119.1 162.2C119.3 162 120.2 162.2 120.3 162.5C120.5 162.8 120.6 163 120.7 163.2C121.6 163.6 122.6 164 123.7 164.4C124.2 164.3 124.7 164 125.2 163.7C124.5 163.4 123.7 163.1 122.9 162.8C122.7 162.8 122.4 162.7 122.2 162.6C121 162.2 119.5 161.7 117.9 161.2C118.2 161.2 118.5 161.1 119.1 160.6C120.2 159.7 120.7 161.1 121.3 161.6C121.6 161.9 122 162.3 122.3 162.5C122.6 162.6 122.8 162.7 123 162.7C123.3 162.7 123.7 162.5 124.2 162C124.3 161.8 125.5 162.6 126.3 163C126 163.2 125.7 163.4 125.4 163.6C129.1 165.2 130.4 166.1 132 166.2ZM117.7 154.1C118.5 154 119.4 154 119.8 154.9C120.4 156.5 121.2 157.2 122.9 156C123 155.9 123.6 156.4 124 156.6C125.1 157.3 125 159.2 127 159.2C126.4 159.5 126.2 159.6 126 159.7C124.2 160.9 123.7 156.6 121.7 158.7C120.5 158 118.7 158 118.6 156C118.6 155.9 117.7 155.6 117.6 155.7C116.7 156.6 115.9 156.9 115 155.7C113 155.9 114.3 154.1 113.7 153.5C113.5 153.3 113.3 153 113 152.6C113.7 152.6 114.2 152.4 114.4 152.6C115.2 153.7 116.2 154.3 117.7 154.1ZM131.1 150.7C130.9 150.8 130.6 150.8 130.4 150.8C129.5 150.8 129.6 148.9 128 149.7C127.5 150 126.4 149.5 125.7 149.2C123.7 148.4 124.2 146.8 124.4 145C125.5 146.1 126.3 146.9 127.8 146.9C129.6 146.9 130.5 148.6 131.4 150.1C131.5 150.2 131.3 150.6 131.1 150.7ZM130.6 145.2C129.2 144.8 128 143.9 126.7 143.2C127.7 142.7 128.5 142.2 129.9 142.7C132.5 143.6 135.3 143.8 138 144.4C138.6 144.5 139.1 145 139.7 145.2C140.8 145.5 141.4 148.2 143.1 146.1C143.3 146.3 143.5 146.4 143.7 146.6C144.8 147.8 146.1 148.3 147.7 148.6C149 148.8 149.7 150.7 151.5 150.2C151.9 150.1 152.6 150.8 153.1 151.2C153.9 151.9 154.4 152.6 155.7 152.6C156.8 152.6 157.4 153.6 157.3 154.9C157.3 155.1 157.6 155.4 157.8 155.6C158 155.1 158.2 154.7 158.7 153.5C159.3 154.4 159.8 155 160.1 155.7C160.3 156.4 160.3 157.2 160.3 157.9C159.6 157.8 158.4 158 158.2 157.7C157.4 156 155.6 155.6 154.3 154.6C153.5 154 153.1 153.9 152.3 154.6C151.8 155.1 151.2 155.1 150.8 154.2C150.3 153 148.8 152.9 148.1 151.8C148 151.6 147.3 151.7 147.1 151.8C146.5 152.4 146 152.6 146 151.5C146 150 145.8 149.5 144.2 150.5C143.6 150.8 142.4 150.4 141.5 149.9C140.7 149.5 140.1 148.7 140.3 147.6C140.4 147 140.2 146.6 139.5 147.2C138.5 148 137.6 147.7 136.8 146.8C136.2 146.1 135.5 145.3 134.6 146.5C134.5 146.6 134.4 146.7 134.3 146.7C133.8 144.4 131.9 145.5 130.6 145.2Z" fill="#001D3F"/>
<path d="M206.3 138.8C206.3 138.7 206.3 138.7 206.2 138.6C205.7 138.5 205.2 138.4 204.7 138.1C203.7 137.9 202.2 137.7 200.3 137.5C200.9 137.8 201.6 138.4 202.5 138.4C203 138.4 204 138.9 204 139.2C204.1 140.3 204.7 140.9 205.4 140.1L206.3 138.8Z" fill="#001D3F"/>
</svg>
