<svg fill="none" height="188" viewBox="0 0 326 188" width="326" xmlns="http://www.w3.org/2000/svg"><path d="m21.1336-.00000232c-12.20418 0-21.13359884 9.02609232-21.13359884 20.60120232 0 5.5999 2.22656884 10.9706 6.18988884 14.9303 3.96331 3.9598 9.33871 6.1844 14.94371 6.1844s10.9804-2.2246 14.9437-6.1844c3.9633-3.9597 6.1899-9.3304 6.1899-14.9303 0-11.57511-8.9294-20.60120232-21.1336-20.60120232zm0 32.40450232c-5.8736 0-10.6239-5.079-10.6239-11.8033 0-6.4296 4.7598-11.28978 10.6239-11.28978s10.6239 4.86018 10.6239 11.28978c0 6.6863-4.7408 11.8033-10.6239 11.8033z" fill="#603313" transform="translate(163.014 118.233)"/><path d="m38.6307 31.5961h-.6759v-27.47776c0-2.85335-1.2471-4.11834319-4.1315-4.11834319h-31.17684c.00538 1.93558319.66717 3.81221319 1.8774 5.32366319 1.21024 1.51144 2.89746 2.56848 4.78635 2.9986l.06663.14266v1.07477c0 7.28551-.79965 14.88491-4.92165 22.05641h-.56166c-2.85589 0-3.89352709 1.0176-3.89352709 3.8995v14.7043c1.18967709 0 2.36769709-.2343 3.46669709-.6895 1.09901-.4551 2.09744-1.1222 2.93823-1.9632.84079-.8409 1.50745-1.8391 1.96185-2.9376.45441-1.0985.68764-2.2757.68639-3.4644.00443-.1542.04067-.3059.10643-.4456.06577-.1396.15966-.2642.2758-.366.11615-.1018.25205-.1785.39922-.2254s.30248-.063.45608-.0472h22.1237c.6759 0 1.0757.5136 1.0757 1.2459.0275 2.3757.9915 4.6448 2.6828 6.3149 1.6912 1.6702 3.9734 2.6068 6.3513 2.6066v-14.7328c0-2.8819-1.0091-3.8995-3.8935-3.8995zm-10.7382.057h-13.2227c3.3318-6.2108 4.3504-14.8849 4.3504-21.324v-1.90221h7.6157c.1682-.01801.3383.00184.4978.05809s.3044.14747.424.26697c.1196.11949.2109.26423.2672.42358.0563.15936.0761.32929.0581.49731z" fill="#603313" transform="translate(204.739 118.909)"/><path d="m.0000061.00000308v.00720023z" fill="#4a3024" transform="translate(213.83 160.045)"/><path d="m.00719499-.00000528-.007194.00721123h.007194z" fill="#4a3024" transform="translate(36.7268 129.761)"/><path d="m.0520959.0479687c-.0380785-.03804463-.0951963-.0856004 0 0z" fill="#4a3024" transform="translate(42.6147 147.461)"/><path d="m42.2957 30.1884c-3.2081-3.0436-7.7299-4.2134-11.157-1.6169-.2346.1682-.4573.3525-.6663.5516-2.5896 2.052-5.7865 3.1892-9.0913 3.2338-5.9307-.0856-10.8524-5.3643-10.8524-11.9745 0-7.3331 4.7598-11.11853 10.6239-11.11853 2.5989 0 6.2164.95113 6.2164 3.22423v8.094c1.1896.0013 2.3679-.2318 3.4674-.6858s2.0986-1.12 2.9403-1.96c.8417-.8401 1.5094-1.8376 1.9649-2.9357.4556-1.098.6901-2.2749.6901-3.4636v-2.11144c0-7.60893-10.6811-9.42556-15.4885-9.42556-12.03282 0-20.9432 8.85488-20.9432 20.43 0 12.1457 8.41536 21.2859 21.1907 21.2859 6.2935-.037 12.3194-2.5483 16.7736-6.9907 1.4851-1.303 4.3124-4.4607 4.3124-4.4607-.1713-.2283.0762-.019.019-.0761z" fill="#603313" transform="translate(0 118.281)"/><path d="m.00000015-.00000464c.09519635.10462264.22847085.21875664 0 0z" fill="#4a3024" transform="translate(42.7051 147.537)"/><path d="m38.4879 11.908v-8.00843c0-2.85335-1.0186-3.89957319-3.9031-3.89957319h-30.69127c-2.85589 0-3.89353044 1.01769319-3.89353044 3.89957319v13.67703c2.18599044-.0025 4.29236044-.82 5.90691044-2.2924 1.61455-1.4723 2.62107-3.4937 2.8226-5.66842v.10462c-.01778-.16715.00193-.33617.0577-.49475.05577-.15859.14619-.30277.26469-.42208.11851-.11932.26213-.21076.42043-.26769s.3273-.07793.49473-.06145h4.18864v32.80397c1.3297 0 2.6464-.2618 3.8747-.7705 1.2284-.5087 2.3444-1.2543 3.2841-2.1941.9398-.9399 1.685-2.0555 2.193-3.2833.508-1.2277.7688-2.5435.7676-3.872v-22.69358h4.1886c.1682-.018.3383.00185.4978.0581s.3043.14747.4239.26696c.1196.1195.2109.26424.2672.42359.0563.15936.0762.32928.0582.49731v-.10462c.2017 2.17634 1.2095 4.19904 2.8261 5.67164s3.7253 2.289 5.9129 2.2892z" fill="#603313" transform="translate(42.1244 118.909)"/><path d="m26.2361 0h-26.2361c.00241751 2.22018.881681 4.34971 2.44674 5.92584 1.56505 1.57612 3.68942 2.47149 5.91149 2.49154h.07616v18.07122 14.7708c2.67981-.0025 5.24931-1.0659 7.14601-2.9573 1.8966-1.8914 2.9658-4.4567 2.9734-7.134v-1.3411h7.6918c3.9538 0 7.7457-1.5693 10.5414-4.3625 2.7958-2.7933 4.3664-6.5817 4.3664-10.532s-1.5706-7.73871-4.3664-10.53197c-2.7957-2.79325-6.5876-4.3624845-10.5414-4.3624845zm-.5426 21.0482h-7.2159v-12.25989h7.2159c1.5904.06251 3.0948.73769 4.1979 1.88399s1.7192 2.6748 1.7192 4.265-.6161 3.1186-1.7192 4.2649-2.6075 1.8215-4.1979 1.884z" fill="#603313" transform="translate(117.596 118.89)"/><path d="m16.6879 0-16.68790349 40.2797c2.41632349 1.023 5.14031349 1.0457 7.57333349.063 2.43297-.9827 4.37597-2.8903 5.40197-5.3036.2189-.5136 7.7585-18.9272 7.7585-18.9272.9043-2.549 1.9039-5.7638 1.9039-5.7638h.1333s.9519 3.2148 1.9039 5.7638l4.103 9.9867h-9.2341c.01 1.1416.2449 2.2701.6914 3.321s1.0958 2.0037 1.9108 2.8038c.8151.8002 1.7799 1.4322 2.8394 1.8598s2.1929.6425 3.3355.6325h4.0078c.0666.1807.1142.2853.1237.3234 1.0279 2.414 2.9727 4.3217 5.4073 5.3043 2.4345.9826 5.1599.9597 7.5775-.0637l-16.7831-40.2797z" fill="#603313" transform="translate(76.9757 118.89)"/><path d="m41.8769 1.70277.3046-.63725c-5.8355-2.14001-11.2712 0-13.7559 5.2882 0 0-4.4456 9.91058-6.2544 13.96238-1.0471-1.9022-7.9965-14.81839-8.0536-14.87545-2.8559-5.059937-8.45343-6.83852-14.11761278-4.28001l16.51661278 28.45736-5.7118 11.4895c5.6356 2.2446 11.9281 0 14.4508-5.0314.1333-.2758 14.3651-29.4846 16.6498-34.37333z" fill="#603313" transform="translate(245.464 118.319)"/><path d="m29.7108 12.4596h-.6949-7.8728c-.001 2.3434.9121 4.5949 2.5456 6.2766 1.6334 1.6817 3.8585 2.6612 6.203 2.7305h.9519c1.1794.3772 2.1852 1.1627 2.8364 2.2151.6511 1.0523.9048 2.3024.7154 3.525-.1894 1.2227-.8095 2.3376-1.7486 3.1441-.9392.8064-2.1356 1.2513-3.3739 1.2547h-11.3189v-23.22627h10.405c2.2235-.00252 4.3553-.88615 5.9276-2.45703s2.4567-3.70074 2.4592-5.92230319h-24.7511c-2.85585 0-4.13148 1.24597319-4.13148 4.11834319v27.58236c-2.15622.217-4.15483 1.2267-5.60786 2.8331-1.453036 1.6064-2.25683595 3.6949-2.25536845 5.8601h29.74890845c3.7013 0 7.251-1.4691 9.8682-4.0839 2.6172-2.6149 4.0876-6.1615 4.0876-9.8595s-1.4704-7.2445-4.0876-9.8594-6.1669-4.0839-9.8682-4.0839z" fill="#603313" transform="translate(282.295 118.909)"/><path d="m18.202 5.76809c.4118-.44795.8505-.87039 1.3137-1.26498 1.529-1.31714 3.279-2.35394 5.1692-3.06259 1.835-.699339 3.7564-1.14726 5.7118-1.331563 3.754-.31439 7.534.052959 11.157 1.084273l.6759.18071.6473.19973.5997.18072.6664.21875c.8568.28534 1.685.5992 2.5037.95112 1.6374.67529 3.2176 1.40765 4.7598 2.2161 1.5422.80844 2.9701 1.65494 4.36 2.5585s2.7131 1.85467 3.9792 2.85334c4.645 3.5923 8.7851 7.7927 12.3089 12.4881 1.4919 1.9646 2.8651 4.0163 4.1125 6.1442 1.088 1.8728 2.067 3.8068 2.932 5.7923.7288 1.6563 1.3644 3.3519 1.904 5.079.7371 2.377 1.2596 4.8153 1.5612 7.2855.1047.837.1428 1.4838.1713 1.9023v.6562l-.1428-.6562c-.0856-.428-.2475-1.0558-.4664-1.9023-.219-.8464-.5141-1.8261-.952-2.9865-.4379-1.1603-.952-2.4824-1.5898-3.9376-.3332-.7228-.6949-1.4837-1.0947-2.2636-.3999-.7799-.8378-1.6074-1.3233-2.4349s-1.009-1.693-1.5707-2.568-1.1614-1.7786-1.8182-2.6726c-2.9076-4.0403-6.257-7.744-9.9862-11.0425-2.1284-1.8749-4.3766-3.6096-6.7303-5.1931-2.4835-1.6657-5.0935-3.1348-7.8061-4.39412-1.3804-.63725-2.8083-1.19841-4.2553-1.7025-.7235-.24729-1.4565-.48507-2.1895-.69431l-.5331-.14267-.5998-.16169-.5616-.13316-.5426-.12364c-2.9024-.68079-5.9004-.85774-8.8628-.52311-1.3794.1653-2.7286.52391-4.0078 1.06524-1.2089.50269-2.3254 1.20346-3.3033 2.07344-1.9181 1.78702-3.1732 4.17082-3.5604 6.76242-.4473 2.875-.3211 5.81.3713 8.6361.6986 3.0312 1.7398 5.9731 3.1034 8.7693.6854 1.4267 1.4438 2.8248 2.2752 4.1944s1.7008 2.7107 2.6084 4.0233c1.8348 2.6175 3.8516 5.1028 6.0354 7.4377 2.1532 2.327 4.4726 4.4949 6.9398 6.4866 2.3946 1.9556 4.9412 3.7176 7.6158 5.2692 1.3137.7513 2.6559 1.4266 3.9982 2.0449l.5046.2282.4855.2093.5521.2282.4855.1807c.6378.2473 1.3232.4851 1.9801.6753 1.2941.3946 2.6236.6622 3.9697.799 1.2476.1388 2.5079.1196 3.7507-.0571 1.1467-.1659 2.259-.516 3.2938-1.0367.9874-.4973 1.8798-1.1637 2.6369-1.9688.7587-.8052 1.3881-1.7227 1.8659-2.7202.472-1.0235.8204-2.0995 1.0376-3.2053.412-2.2391.4442-4.5316.0952-6.7814-.1511-1.1017-.3641-2.194-.6378-3.2719-.1428-.5516-.2761-1.0937-.4189-1.6359-.1427-.5421-.276-1.0272-.4283-1.5503-1.0423-3.5889-2.4258-7.07-4.1316-10.3957-1.1354-2.1989-2.4437-4.3043-3.9125-6.2964-.5236-.6848-.952-1.1984-1.2471-1.5408s-.4665-.5041-.4665-.5041c.1972.1198.3879.2499.5712.39.542.4045 1.0631.8362 1.5612 1.2935.6664.5897 1.4661 1.3506 2.3514 2.2922 1.0087 1.0895 1.9619 2.2291 2.8559 3.4145 2.3798 3.2078 4.3856 6.6765 5.9783 10.3386.238.5231.4569 1.0843.6854 1.6359l.3142.8085c.0571.1427.1047.2758.1618.409.0571.1331.0571.1426.0762.2092v.0761.1141c.4221 1.2115.7718 2.4469 1.0471 3.6999.6236 2.7311.7845 5.5474.476 8.3318-.1929 1.5154-.5734 3.0009-1.1328 4.4226-.5993 1.5078-1.4348 2.9108-2.4751 4.1564-.6981.8302-1.4868 1.5799-2.3514 2.2351l-15.8692 11.4134c-.3551.2544-.7237.4894-1.1043.7038-1.5466.8901-3.2234 1.532-4.9693 1.9023-1.7353.3692-3.5111.513-5.2834.428-1.7397-.0744-3.4679-.3197-5.1596-.7324-.8472-.1902-1.6564-.4185-2.4942-.6848l-.6282-.2092-.5522-.1807-.3141-.1237-.2951-.1046c-.1999-.0761-.3999-.1427-.5903-.2283-1.5652-.6092-3.0969-1.3013-4.5884-2.0734-2.975-1.5494-5.8098-3.3538-8.4725-5.3928-2.6731-2.0488-5.1901-4.2932-7.53-6.7149-2.3594-2.4488-4.5268-5.0753-6.48291-7.8562-.95197-1.3982-1.90392-2.8534-2.78925-4.3371s-1.66594-3.0341-2.39895-4.6224c-.72431-1.5998-1.35991-3.2382-1.90393-4.9078-.27607-.837-.54262-1.693-.76158-2.5585-.05711-.2092-.11422-.447-.171342-.6753-.057118-.2282-.05712-.2282-.076159-.3424-.01904-.1141-.000002-.1997-.076159-.3043-.076157-.1047.000007-.1998-.06663-.2949s-.047605-.2378-.066644-.3519c-.01904-.1141-.095196-.447-.133275-.6658-.724095-3.674-.724095-7.4539 0-11.128.412303-1.9367 1.108389-3.8019 2.065759-5.5355.59467-1.0693 1.2998-2.0735 2.10385-2.996z" fill="#ffb333" transform="translate(123.764 22.3377)"/><path d="m101.175 42.4955c-10.5385-1.0368-21.7907-11.8224-28.0166-19.9735-5.0763-6.3761-11.1446-11.8963-17.9731-16.34964-9.1483-5.706694-15.9263-5.602071-15.9263-5.602071s9.3578 4.527311 15.9263 10.681011c4.1264 3.7206 7.7979 7.9156 10.9381 12.4977 0 0-22.3331-21.27648-45.7799-23.559158-6.9575-.6801-13.9719.47426-20.34349913 3.347928.36174613.07609-.0000026.09511.36174413.07609 5.588025-.40898 12.661155 2.28267 14.012955 7.60894 3.8078 14.8944 9.3863 1.5027 14.0985 9.5111 10.3955 17.7193 13.4227 4.4893 20.4482 6.9432 4.6551 1.6359 3.3224 10.719 9.7577 10.8332 3.9601.0666 9.1293-5.3643 15.5836-.9511 10.9 7.4662 26.9123 6.3629 26.9123 4.9363z" fill="#2e5200" transform="translate(50.9872 62.2037)"/><path d="m.00000407 42.4967c10.53819593-1.0367 21.79039593-11.8224 28.01629593-19.9735 5.0763-6.3761 11.1446-11.8963 17.9731-16.34963 9.1483-5.706689 15.9263-5.649624 15.9263-5.649624s-9.3387 4.565354-15.9263 10.719054c-4.1211 3.7265-7.7892 7.9244-10.9286 12.5072 0 0 22.276-21.27647 45.7705-23.559143 6.9575-.682788 13.9726.471685 20.3437 3.347933-.362.07609 0 .0951-.362.07608-5.588-.40898-12.6611 2.28268-14.0129 7.60893-3.7603 14.8945-9.3864 1.5028-14.1081 9.5111-10.386 17.7669-13.4513 4.5654-20.4387 6.9907-4.6551 1.636-3.3224 10.7191-9.7576 10.8333-3.9602.0665-9.1294-5.3548-15.5837-.9512-10.9285 7.4187-26.91199593 6.3154-26.91199593 4.8888z" fill="#2e5200" transform="translate(186.385 62.2025)"/><path d="m.183608 23.4909s-2.141928-22.14201 8.205922-23.45455c5.31197-.703825 2.99867 8.8739-8.205922 23.45455z" fill="#603313" transform="translate(212.59 52.5987)"/><path d="m10.6906.523501c-5.8451-3.309881-10.69059535 10.157899-10.69059535 10.157899 10.55729535-3.43351 14.08909535-8.18909 10.69059535-10.157899z" fill="#603313" transform="translate(225.996 54.575)"/><path d="m17.6844 31.9293s4.5218 20.3824 14.1271 34.3923c-1.9039-5.973-5.7118-21.6379 1.2376-32.5947 3.2557-5.155 2.0657-9.9962-3.4652-7.4377s-7.5205 1.8356-4.7598-2.4349c3.2938-5.0599 7.4348-5.9635 7.8347-10.0438.3998-4.08024-3.8745-5.25011-7.1303-3.3479-3.2557 1.9022-5.5499.2093-4.3219-2.77724 1.942-4.9458-1.3898-8.474437-6.3686-7.532832-4.97878.941602-6.06402 4.413172-4.1411 8.284212 2.3228 4.62246-.1999 7.96086-4.16003 4.51776-3.96017-3.443-8.97702 2.492-5.19773 7.2761 3.7793 4.7841 8.0441 5.7067 5.9593 8.4839-1.26611 1.693-6.958854.0666-7.092129 4.3371-.1808732 6.0015 13.003789 6.3439 13.175189 9.1497.1713 2.8058-7.91083 1.712-7.22541 5.4689.81868 4.3657 9.51961 1.7501 18.03971 13.1064.0952.0951-6.6542-16.7681-6.5114-28.8473z" fill="#2e5200" transform="translate(86.8223)"/><g fill="#603313"><path d="m.00000174 0h2.35134826l1.90393 3.11015 1.90393-3.11015h2.33231v8.02742h-2.20856v-4.61292l-2.05624 3.14819-2.03721-3.11966v4.58439h-2.17999385z" transform="translate(115.283 179.761)"/><path d="m.00000523 0h6.46382477v1.90223h-4.26479v1.21743h3.80786v1.75005h-3.80786v1.2745h4.32191v1.90223h-6.52094477z" transform="translate(126.383 179.761)"/><path d="m.00029213 4.17862c-.0065794-.55498.09892487-1.10558.31021287-1.61889.211289-.51331.524018-.97877.919485-1.36855.39547-.389788.86554-.695889 1.38213-.900002.51659-.2041133 1.06907-.3020564 1.62441-.28795014.66042-.02698016 1.31677.11530314 1.90663.41329714.58985.297994 1.09359.741795 1.46331 1.289205l-1.59929 1.27449c-.195-.2887-.45701-.52599-.76368-.69161s-.64889-.25465-.99746-.2595c-.53323.05028-1.02851.29747-1.389.69323-.36049.39577-.56026.91166-.56026 1.44678s.19977 1.051.56026 1.44677.85577.64295 1.389.69324c.35603-.00041.70663-.08718 1.02169-.25285s.58515-.40529.78705-.69827l1.67545 1.1889c-.5106.73671-1.24253 1.29204-2.08991 1.58567-.84739.29363-1.76629.31034-2.6238.04771-.85751-.26264-1.60918-.79101-2.146277-1.50868-.537092-.71766-.831759-1.58742-.8413931-2.48347z" transform="translate(134.902 179.634)"/><path d="m2.40847 1.98783h-2.40846884v-1.98783h7.04452884v1.94979h-2.40847v6.07763h-2.22759z" transform="translate(144.213 179.761)"/><path d="m.00268391 4.47972c-.03037141-.86256.19810109-1.71447.65605809-2.4463.457958-.73183 1.124468-1.310136 1.913908-1.660595.78944-.3504591 1.66574-.4570755 2.51629-.3061346.85055.1509406 1.6365.5525326 2.25685 1.1531796.62035.60064 1.04676 1.3729 1.22445 2.21754.1777.84463.09856 1.72306-.22727 2.5224-.32582.79935-.88344 1.4831-1.60119 1.96339s-1.56285.73517-2.4267.73192c-.55891.01391-1.115-.0836-1.63577-.28684-.52076-.20324-.99578-.50814-1.39726-.89688-.401495-.38873-.721408-.8535-.941074-1.36717-.219667-.51367-.33467084-1.06593-.33829209-1.62451zm6.37815609 0c.00893-.27909-.03839-.55712-.13916-.81757-.10076-.26045-.2529-.49799-.44739-.69852-.19449-.20052-.42735-.35993-.68474-.46875-.25738-.10881-.53404-.16482-.81351-.16468-.27751.00343-.55144.06294-.80532.17496-.25387.11201-.48242.27421-.67187.47683-.18946.20262-.33591.44146-.43052.70213s-.13542.53778-.11998.81463c-.01147.27748.03273.55445.12997.81462.09725.26016.24557.49827.43627.70032s.41993.36396.67418.47621c.25424.11224.52839.17255.80631.17739.28201.0005.56115-.05668.8202-.16805.25905-.11136.49253-.27456.68607-.4795.19353-.20495.34301-.44731.43923-.71216.09622-.26486.13715-.5466.12026-.82786z" transform="translate(152.797 179.333)"/><path d="m.00028981 4.17842c-.0065794-.55498.09892489-1.10559.31021319-1.6189.211289-.51331.524018-.97876.919487-1.36855.39546-.389783.86554-.695885 1.38213-.899998.51659-.2041126 1.06907-.3020557 1.62441-.28794937.66028-.02607103 1.3163.11660137 1.906.41451637s1.09358.741231 1.46396 1.287991l-1.62787 1.27449c-.19591-.29002-.45943-.52812-.76788-.6938-.30845-.16569-.65259-.25399-1.00277-.25732-.53323.05029-1.02851.29747-1.389.69324-.3605.39577-.56028.91165-.56028 1.44677s.19978 1.05101.56028 1.44678c.36049.39576.85577.64295 1.389.69323.35734-.00048.70928-.0872 1.02585-.2528.31658-.1656.58843-.40517.7924-.69831l1.67545 1.18889c-.5106.73671-1.24253 1.29205-2.08991 1.58568-.84739.29363-1.76629.31034-2.6238.0477s-1.60918-.79101-2.146277-1.50867c-.537092-.71767-.83175906-1.58742-.84139319-2.48347z" transform="translate(167.802 179.634)"/><path d="m-.00000639 0h2.19904639v4.5178l3.11291-4.5178h2.07529v8.02742h-2.18952v-4.5178l-3.11292 4.5178h-2.07527746z" transform="translate(177.599 179.761)"/><path d="m.00000174 7.99888.15231726-1.71201c.171064.01408.342991.01408.514055 0 .628296 0 1.228036-.32337 1.228036-5.18357v-1.1033h6.17824v8.02742h-2.22759v-6.07763h-1.90393v.31387c0 4.88873-1.07572 5.87789-2.63694 5.87789-.439076.00892-.877451-.03903-1.30418826-.14267z" transform="translate(186.68 179.761)"/><path d="m0 0h2.22759v2.52045h1.21851c1.90393 0 3.33188.95113 3.33188 2.72971 0 1.77859-1.25659 2.77726-3.21763 2.77726h-3.56035zm3.38899 6.15372c.73301 0 1.17091-.32338 1.17091-.95112 0-.62773-.43789-.95111-1.16138-.95111h-1.17093v1.90223zm4.33144-6.15372h2.22759v8.02742h-2.22759z" transform="translate(197.314 179.761)"/></g></svg>